<svg width="59" height="46" viewBox="0 0 59 46" fill="none" xmlns="http://www.w3.org/2000/svg">
<path d="M3 29.6719C21.9112 20.9294 38.0522 20.8312 56 29.6719" stroke="#99B6EF" stroke-linecap="round" stroke-dasharray="3 3"/>
<g clip-path="url(#clip0_96_2738)">
<path d="M33.0729 35.1554L34.8021 33.2552L32.2083 20.9033L36.9635 15.6775C37.3075 15.2996 37.5007 14.7869 37.5007 14.2523C37.5007 13.7178 37.3075 13.2051 36.9635 12.8271C36.6196 12.4491 36.1531 12.2368 35.6667 12.2368C35.1802 12.2368 34.7137 12.4491 34.3698 12.8271L29.6146 18.0529L18.375 15.2025L16.6458 17.1028L25.724 22.3285L20.9688 27.5543L17.9427 27.0792L16.6458 28.5044L20.5365 30.8798L22.6979 35.1554L23.9948 33.7302L23.5625 30.4047L28.3177 25.179L33.0729 35.1554Z" fill="#CBDAF8"/>
</g>
<circle cx="2" cy="30" r="2" fill="#CBDAF8"/>
<circle cx="57" cy="30" r="2" fill="#CBDAF8"/>
<defs>
<clipPath id="clip0_96_2738">
<rect width="30.8311" height="30.8311" fill="white" transform="matrix(0.673022 0.739623 -0.673022 0.739623 28.75 0)"/>
</clipPath>
</defs>
</svg>
