<svg width="268" height="67" viewBox="0 0 268 67" fill="none" xmlns="http://www.w3.org/2000/svg">
<g clip-path="url(#clip0_170_994)">
<path d="M9.03293 0H0V66.9106H9.03293V0Z" fill="#0D2571"/>
<path d="M18.0658 0H12.0438V66.9106H18.0658V0Z" fill="#0D2571"/>
<path d="M30.1098 0H21.0768V66.9106H30.1098V0Z" fill="#0D2571"/>
<path d="M39.1426 0H36.1317V66.9106H39.1426V0Z" fill="#0D2571"/>
<path d="M54.1975 0H45.1646V66.9106H54.1975V0Z" fill="#0D2571"/>
<path d="M60.2195 0H57.2085V66.9106H60.2195V0Z" fill="#0D2571"/>
<path d="M75.2744 0H69.2524V66.9106H75.2744V0Z" fill="#0D2571"/>
<path d="M84.3072 0H78.2853V66.9106H84.3072V0Z" fill="#0D2571"/>
<path d="M96.3512 0H93.3402V66.9106H96.3512V0Z" fill="#0D2571"/>
<path d="M105.384 0H102.373V66.9106H105.384V0Z" fill="#0D2571"/>
<path d="M117.428 0H114.417V66.9106H117.428V0Z" fill="#0D2571"/>
<path d="M126.461 0H120.439V66.9106H126.461V0Z" fill="#0D2571"/>
<path d="M141.516 0H135.494V66.9106H141.516V0Z" fill="#0D2571"/>
<path d="M153.56 0H144.527V66.9106H153.56V0Z" fill="#0D2571"/>
<path d="M162.593 0H156.571V66.9106H162.593V0Z" fill="#0D2571"/>
<path d="M174.637 0H165.604V66.9106H174.637V0Z" fill="#0D2571"/>
<path d="M183.67 0H180.659V66.9106H183.67V0Z" fill="#0D2571"/>
<path d="M195.713 0H186.68V66.9106H195.713V0Z" fill="#0D2571"/>
<path d="M204.746 0H201.735V66.9106H204.746V0Z" fill="#0D2571"/>
<path d="M247.011 0H244V66.9106H247.011V0Z" fill="#0D2571"/>
<path d="M219.801 0H210.768V66.9106H219.801V0Z" fill="#0D2571"/>
<path d="M219.801 0H210.768V66.9106H219.801V0Z" fill="#0D2571"/>
<path d="M262.033 0H253V66.9106H262.033V0Z" fill="#0D2571"/>
<path d="M228.834 0H222.812V66.9106H228.834V0Z" fill="#0D2571"/>
<path d="M238.022 0H232V66.9106H238.022V0Z" fill="#0D2571"/>
<path d="M275.033 0H266V66.9106H275.033V0Z" fill="#0D2571"/>
</g>
<defs>
<clipPath id="clip0_170_994">
<rect width="267.642" height="66.9106" fill="white"/>
</clipPath>
</defs>
</svg>
