<svg width="316" height="2" viewBox="0 0 316 2" fill="none" xmlns="http://www.w3.org/2000/svg">
<mask id="path-1-inside-1_99_8411" fill="white">
<path d="M0 0H315.296V1.42025H0V0Z"/>
</mask>
<path d="M315.296 0V-1H313.876V0V1H315.296V0ZM312.456 0V-1H309.615V0V1H312.456V0ZM308.195 0V-1H305.354V0V1H308.195V0ZM303.934 0V-1H301.094V0V1H303.934V0ZM299.673 0V-1H296.833V0V1H299.673V0ZM295.413 0V-1H292.572V0V1H295.413V0ZM291.152 0V-1H288.311V0V1H291.152V0ZM286.891 0V-1H284.051V0V1H286.891V0ZM282.63 0V-1H279.79V0V1H282.63V0ZM278.37 0V-1H275.529V0V1H278.37V0ZM274.109 0V-1H271.268V0V1H274.109V0ZM269.848 0V-1H267.008V0V1H269.848V0ZM265.587 0V-1H262.747V0V1H265.587V0ZM261.327 0V-1H258.486V0V1H261.327V0ZM257.066 0V-1H254.225V0V1H257.066V0ZM252.805 0V-1H249.965V0V1H252.805V0ZM248.544 0V-1H245.704V0V1H248.544V0ZM244.284 0V-1H241.443V0V1H244.284V0ZM240.023 0V-1H237.182V0V1H240.023V0ZM235.762 0V-1H232.922V0V1H235.762V0ZM231.501 0V-1H228.661V0V1H231.501V0ZM227.241 0V-1H224.4V0V1H227.241V0ZM222.98 0V-1H220.139V0V1H222.98V0ZM218.719 0V-1H215.878V0V1H218.719V0ZM214.458 0V-1H211.618V0V1H214.458V0ZM210.197 0V-1H207.357V0V1H210.197V0ZM205.937 0V-1H203.096V0V1H205.937V0ZM201.676 0V-1H198.835V0V1H201.676V0ZM197.415 0V-1H194.575V0V1H197.415V0ZM193.154 0V-1H190.314V0V1H193.154V0ZM188.894 0V-1H186.053V0V1H188.894V0ZM184.633 0V-1H181.792V0V1H184.633V0ZM180.372 0V-1H177.532V0V1H180.372V0ZM176.111 0V-1H173.271V0V1H176.111V0ZM171.851 0V-1H169.01V0V1H171.851V0ZM167.59 0V-1H164.749V0V1H167.59V0ZM163.329 0V-1H160.489V0V1H163.329V0ZM159.068 0V-1H156.228V0V1H159.068V0ZM154.808 0V-1H151.967V0V1H154.808V0ZM150.547 0V-1H147.706V0V1H150.547V0ZM146.286 0V-1H143.446V0V1H146.286V0ZM142.025 0V-1H139.185V0V1H142.025V0ZM137.765 0V-1H134.924V0V1H137.765V0ZM133.504 0V-1H130.663V0V1H133.504V0ZM129.243 0V-1H126.403V0V1H129.243V0ZM124.982 0V-1H122.142V0V1H124.982V0ZM120.722 0V-1H117.881V0V1H120.722V0ZM116.461 0V-1H113.62V0V1H116.461V0ZM112.2 0V-1H109.36V0V1H112.2V0ZM107.939 0V-1H105.099V0V1H107.939V0ZM103.679 0V-1H100.838V0V1H103.679V0ZM99.4178 0V-1H96.5773V0V1H99.4178V0ZM95.157 0V-1H92.3165V0V1H95.157V0ZM90.8963 0V-1H88.0558V0V1H90.8963V0ZM86.6355 0V-1H83.795V0V1H86.6355V0ZM82.3747 0V-1H79.5343V0V1H82.3747V0ZM78.114 0V-1H75.2735V0V1H78.114V0ZM73.8532 0V-1H71.0127V0V1H73.8532V0ZM69.5925 0V-1H66.752V0V1H69.5925V0ZM65.3317 0V-1H62.4912V0V1H65.3317V0ZM61.071 0V-1H58.2305V0V1H61.071V0ZM56.8102 0V-1H53.9697V0V1H56.8102V0ZM52.5494 0V-1H49.7089V0V1H52.5494V0ZM48.2887 0V-1H45.4482V0V1H48.2887V0ZM44.0279 0V-1H41.1874V0V1H44.0279V0ZM39.7671 0V-1H36.9266V0V1H39.7671V0ZM35.5063 0V-1H32.6658V0V1H35.5063V0ZM31.2456 0V-1H28.4051V0V1H31.2456V0ZM26.9848 0V-1H24.1443V0V1H26.9848V0ZM22.724 0V-1H19.8835V0V1H22.724V0ZM18.4633 0V-1H15.6227V0V1H18.4633V0ZM14.2025 0V-1H11.362V0V1H14.2025V0ZM9.94171 0V-1H7.10121V0V1H9.94171V0ZM5.68093 0V-1H2.84043V0V1H5.68093V0ZM1.42016 0V-1H0V0V1H1.42016V0ZM315.296 0V-2H313.876V0V2H315.296V0ZM312.456 0V-2H309.615V0V2H312.456V0ZM308.195 0V-2H305.354V0V2H308.195V0ZM303.934 0V-2H301.094V0V2H303.934V0ZM299.673 0V-2H296.833V0V2H299.673V0ZM295.413 0V-2H292.572V0V2H295.413V0ZM291.152 0V-2H288.311V0V2H291.152V0ZM286.891 0V-2H284.051V0V2H286.891V0ZM282.63 0V-2H279.79V0V2H282.63V0ZM278.37 0V-2H275.529V0V2H278.37V0ZM274.109 0V-2H271.268V0V2H274.109V0ZM269.848 0V-2H267.008V0V2H269.848V0ZM265.587 0V-2H262.747V0V2H265.587V0ZM261.327 0V-2H258.486V0V2H261.327V0ZM257.066 0V-2H254.225V0V2H257.066V0ZM252.805 0V-2H249.965V0V2H252.805V0ZM248.544 0V-2H245.704V0V2H248.544V0ZM244.284 0V-2H241.443V0V2H244.284V0ZM240.023 0V-2H237.182V0V2H240.023V0ZM235.762 0V-2H232.922V0V2H235.762V0ZM231.501 0V-2H228.661V0V2H231.501V0ZM227.241 0V-2H224.4V0V2H227.241V0ZM222.98 0V-2H220.139V0V2H222.98V0ZM218.719 0V-2H215.878V0V2H218.719V0ZM214.458 0V-2H211.618V0V2H214.458V0ZM210.197 0V-2H207.357V0V2H210.197V0ZM205.937 0V-2H203.096V0V2H205.937V0ZM201.676 0V-2H198.835V0V2H201.676V0ZM197.415 0V-2H194.575V0V2H197.415V0ZM193.154 0V-2H190.314V0V2H193.154V0ZM188.894 0V-2H186.053V0V2H188.894V0ZM184.633 0V-2H181.792V0V2H184.633V0ZM180.372 0V-2H177.532V0V2H180.372V0ZM176.111 0V-2H173.271V0V2H176.111V0ZM171.851 0V-2H169.01V0V2H171.851V0ZM167.59 0V-2H164.749V0V2H167.59V0ZM163.329 0V-2H160.489V0V2H163.329V0ZM159.068 0V-2H156.228V0V2H159.068V0ZM154.808 0V-2H151.967V0V2H154.808V0ZM150.547 0V-2H147.706V0V2H150.547V0ZM146.286 0V-2H143.446V0V2H146.286V0ZM142.025 0V-2H139.185V0V2H142.025V0ZM137.765 0V-2H134.924V0V2H137.765V0ZM133.504 0V-2H130.663V0V2H133.504V0ZM129.243 0V-2H126.403V0V2H129.243V0ZM124.982 0V-2H122.142V0V2H124.982V0ZM120.722 0V-2H117.881V0V2H120.722V0ZM116.461 0V-2H113.62V0V2H116.461V0ZM112.2 0V-2H109.36V0V2H112.2V0ZM107.939 0V-2H105.099V0V2H107.939V0ZM103.679 0V-2H100.838V0V2H103.679V0ZM99.4178 0V-2H96.5773V0V2H99.4178V0ZM95.157 0V-2H92.3165V0V2H95.157V0ZM90.8963 0V-2H88.0558V0V2H90.8963V0ZM86.6355 0V-2H83.795V0V2H86.6355V0ZM82.3747 0V-2H79.5343V0V2H82.3747V0ZM78.114 0V-2H75.2735V0V2H78.114V0ZM73.8532 0V-2H71.0127V0V2H73.8532V0ZM69.5925 0V-2H66.752V0V2H69.5925V0ZM65.3317 0V-2H62.4912V0V2H65.3317V0ZM61.071 0V-2H58.2305V0V2H61.071V0ZM56.8102 0V-2H53.9697V0V2H56.8102V0ZM52.5494 0V-2H49.7089V0V2H52.5494V0ZM48.2887 0V-2H45.4482V0V2H48.2887V0ZM44.0279 0V-2H41.1874V0V2H44.0279V0ZM39.7671 0V-2H36.9266V0V2H39.7671V0ZM35.5063 0V-2H32.6658V0V2H35.5063V0ZM31.2456 0V-2H28.4051V0V2H31.2456V0ZM26.9848 0V-2H24.1443V0V2H26.9848V0ZM22.724 0V-2H19.8835V0V2H22.724V0ZM18.4633 0V-2H15.6227V0V2H18.4633V0ZM14.2025 0V-2H11.362V0V2H14.2025V0ZM9.94171 0V-2H7.10121V0V2H9.94171V0ZM5.68093 0V-2H2.84043V0V2H5.68093V0ZM1.42016 0V-2H0V0V2H1.42016V0Z" fill="#CBDAF8" mask="url(#path-1-inside-1_99_8411)"/>
</svg>
