<svg width="331" height="351" viewBox="0 0 331 351" fill="none" xmlns="http://www.w3.org/2000/svg">
<path d="M403.711 300.775L423.06 284.086L404.627 164.91L457.836 119.015C461.685 115.696 464.057 110.982 464.429 105.911C464.801 100.84 463.144 95.8276 459.822 91.976C456.5 88.1243 451.785 85.7492 446.714 85.3731C441.644 84.9969 436.633 86.6506 432.784 89.9702L379.574 135.865L264.396 100.134L245.047 116.824L336.039 173.416L282.829 219.311L251.616 212.464L237.104 224.981L276.006 250.522L295.559 292.753L310.071 280.236L307.881 248.356L361.091 202.461L403.711 300.775Z" fill="#99B6EF"/>
<circle cx="10.85" cy="334.85" r="10.85" fill="#CBDAF8" fill-opacity="0.5"/>
<circle cx="11.2117" cy="335.212" r="6.87167" fill="#99B6EF"/>
<path d="M12.5 336C12.5 336 107.536 344.531 163.5 325.5C218.875 306.669 288.5 243 288.5 243" stroke="#99B6EF" stroke-width="2" stroke-linecap="round" stroke-dasharray="9 9"/>
</svg>
