<svg width="30" height="30" viewBox="0 0 30 30" fill="none" xmlns="http://www.w3.org/2000/svg">
<g clip-path="url(#clip0_99_8368)">
<path d="M2.99249 0H6.10352e-05V2.99242H2.99249V0Z" fill="#0F1C3F"/>
<path d="M6.32571 0H3.33328V2.99242H6.32571V0Z" fill="#0F1C3F"/>
<path d="M9.65899 0H6.66656V2.99242H9.65899V0Z" fill="#0F1C3F"/>
<path d="M16.3257 0H13.3333V2.99242H16.3257V0Z" fill="#0F1C3F"/>
<path d="M22.9923 0H19.9999V2.99242H22.9923V0Z" fill="#0F1C3F"/>
<path d="M26.3256 0H23.3332V2.99242H26.3256V0Z" fill="#0F1C3F"/>
<path d="M29.659 0H26.6666V2.99242H29.659V0Z" fill="#0F1C3F"/>
<path d="M2.99242 3.33398H0V6.32641H2.99242V3.33398Z" fill="#0F1C3F"/>
<path d="M9.65899 3.33398H6.66656V6.32641H9.65899V3.33398Z" fill="#0F1C3F"/>
<path d="M22.9923 3.33398H19.9999V6.32641H22.9923V3.33398Z" fill="#0F1C3F"/>
<path d="M29.659 3.33398H26.6666V6.32641H29.659V3.33398Z" fill="#0F1C3F"/>
<path d="M2.99242 6.66602H0V9.65844H2.99242V6.66602Z" fill="#0F1C3F"/>
<path d="M9.65899 6.66602H6.66656V9.65844H9.65899V6.66602Z" fill="#0F1C3F"/>
<path d="M16.3257 6.66602H13.3333V9.65844H16.3257V6.66602Z" fill="#0F1C3F"/>
<path d="M22.9923 6.66602H19.9999V9.65844H22.9923V6.66602Z" fill="#0F1C3F"/>
<path d="M29.659 6.66602H26.6666V9.65844H29.659V6.66602Z" fill="#0F1C3F"/>
<path d="M2.99242 10.001H0V12.9934H2.99242V10.001Z" fill="#0F1C3F"/>
<path d="M9.65899 10.001H6.66656V12.9934H9.65899V10.001Z" fill="#0F1C3F"/>
<path d="M22.9923 10.001H19.9999V12.9934H22.9923V10.001Z" fill="#0F1C3F"/>
<path d="M29.659 10.001H26.6666V12.9934H29.659V10.001Z" fill="#0F1C3F"/>
<path d="M2.99242 13.333H0V16.3254H2.99242V13.333Z" fill="#0F1C3F"/>
<path d="M6.32571 13.333H3.33328V16.3254H6.32571V13.333Z" fill="#0F1C3F"/>
<path d="M9.65899 13.333H6.66656V16.3254H9.65899V13.333Z" fill="#0F1C3F"/>
<path d="M16.3257 13.333H13.3333V16.3254H16.3257V13.333Z" fill="#0F1C3F"/>
<path d="M22.9923 13.333H19.9999V16.3254H22.9923V13.333Z" fill="#0F1C3F"/>
<path d="M26.3256 13.333H23.3332V16.3254H26.3256V13.333Z" fill="#0F1C3F"/>
<path d="M29.659 13.333H26.6666V16.3254H29.659V13.333Z" fill="#0F1C3F"/>
<path d="M2.99242 19.999H0V22.9914H2.99242V19.999Z" fill="#0F1C3F"/>
<path d="M9.65899 19.999H6.66656V22.9914H9.65899V19.999Z" fill="#0F1C3F"/>
<path d="M12.9924 19.999H10V22.9914H12.9924V19.999Z" fill="#0F1C3F"/>
<path d="M19.659 19.999H16.6666V22.9914H19.659V19.999Z" fill="#0F1C3F"/>
<path d="M26.3256 19.999H23.3332V22.9914H26.3256V19.999Z" fill="#0F1C3F"/>
<path d="M29.659 19.999H26.6666V22.9914H29.659V19.999Z" fill="#0F1C3F"/>
<path d="M6.32571 23.334H3.33328V26.3264H6.32571V23.334Z" fill="#0F1C3F"/>
<path d="M16.3257 23.334H13.3333V26.3264H16.3257V23.334Z" fill="#0F1C3F"/>
<path d="M22.9923 23.334H19.9999V26.3264H22.9923V23.334Z" fill="#0F1C3F"/>
<path d="M2.99242 26.667H0V29.6594H2.99242V26.667Z" fill="#0F1C3F"/>
<path d="M6.32571 26.667H3.33328V29.6594H6.32571V26.667Z" fill="#0F1C3F"/>
<path d="M12.9924 26.667H10V29.6594H12.9924V26.667Z" fill="#0F1C3F"/>
<path d="M16.3257 26.667H13.3333V29.6594H16.3257V26.667Z" fill="#0F1C3F"/>
<path d="M22.9923 26.667H19.9999V29.6594H22.9923V26.667Z" fill="#0F1C3F"/>
<path d="M26.3256 26.667H23.3332V29.6594H26.3256V26.667Z" fill="#0F1C3F"/>
</g>
<defs>
<clipPath id="clip0_99_8368">
<rect width="30" height="30" fill="white"/>
</clipPath>
</defs>
</svg>
