<svg width="381" height="305" viewBox="0 0 381 305" fill="none" xmlns="http://www.w3.org/2000/svg">
<g filter="url(#filter0_d_170_1140)">
<g clip-path="url(#clip0_170_1140)">
<rect x="20" y="16" width="341" height="265" rx="15" fill="white"/>
<rect x="354" y="-39" width="8" height="580" fill="#0D2571"/>
<rect x="20" y="16" width="8" height="580" fill="#0D2571"/>
<g clip-path="url(#clip1_170_1140)">
<path d="M294.877 40H291V43.8768H294.877V40Z" fill="#0D2571"/>
<path d="M299.099 40H295.222V43.8768H299.099V40Z" fill="#0D2571"/>
<path d="M303.321 40H299.445V43.8768H303.321V40Z" fill="#0D2571"/>
<path d="M311.766 40H307.889V43.8768H311.766V40Z" fill="#0D2571"/>
<path d="M320.21 40H316.333V43.8768H320.21V40Z" fill="#0D2571"/>
<path d="M324.432 40H320.555V43.8768H324.432V40Z" fill="#0D2571"/>
<path d="M328.655 40H324.778V43.8768H328.655V40Z" fill="#0D2571"/>
<path d="M294.877 44.2227H291V48.0994H294.877V44.2227Z" fill="#0D2571"/>
<path d="M303.321 44.2227H299.445V48.0994H303.321V44.2227Z" fill="#0D2571"/>
<path d="M320.21 44.2227H316.333V48.0994H320.21V44.2227Z" fill="#0D2571"/>
<path d="M328.655 44.2227H324.778V48.0994H328.655V44.2227Z" fill="#0D2571"/>
<path d="M294.877 48.4434H291V52.3201H294.877V48.4434Z" fill="#0D2571"/>
<path d="M303.321 48.4434H299.445V52.3201H303.321V48.4434Z" fill="#0D2571"/>
<path d="M311.766 48.4434H307.889V52.3201H311.766V48.4434Z" fill="#0D2571"/>
<path d="M320.21 48.4434H316.333V52.3201H320.21V48.4434Z" fill="#0D2571"/>
<path d="M328.655 48.4434H324.778V52.3201H328.655V48.4434Z" fill="#0D2571"/>
<path d="M294.877 52.667H291V56.5438H294.877V52.667Z" fill="#0D2571"/>
<path d="M303.321 52.667H299.445V56.5438H303.321V52.667Z" fill="#0D2571"/>
<path d="M320.21 52.667H316.333V56.5438H320.21V52.667Z" fill="#0D2571"/>
<path d="M328.655 52.667H324.778V56.5438H328.655V52.667Z" fill="#0D2571"/>
<path d="M294.877 56.8896H291V60.7664H294.877V56.8896Z" fill="#0D2571"/>
<path d="M299.099 56.8896H295.222V60.7664H299.099V56.8896Z" fill="#0D2571"/>
<path d="M303.321 56.8896H299.445V60.7664H303.321V56.8896Z" fill="#0D2571"/>
<path d="M311.766 56.8896H307.889V60.7664H311.766V56.8896Z" fill="#0D2571"/>
<path d="M320.21 56.8896H316.333V60.7664H320.21V56.8896Z" fill="#0D2571"/>
<path d="M324.432 56.8896H320.555V60.7664H324.432V56.8896Z" fill="#0D2571"/>
<path d="M328.655 56.8896H324.778V60.7664H328.655V56.8896Z" fill="#0D2571"/>
<path d="M294.877 65.333H291V69.2098H294.877V65.333Z" fill="#0D2571"/>
<path d="M303.321 65.333H299.445V69.2098H303.321V65.333Z" fill="#0D2571"/>
<path d="M307.544 65.333H303.667V69.2098H307.544V65.333Z" fill="#0D2571"/>
<path d="M315.988 65.333H312.111V69.2098H315.988V65.333Z" fill="#0D2571"/>
<path d="M324.432 65.333H320.555V69.2098H324.432V65.333Z" fill="#0D2571"/>
<path d="M328.655 65.333H324.778V69.2098H328.655V65.333Z" fill="#0D2571"/>
<path d="M299.099 69.5566H295.222V73.4334H299.099V69.5566Z" fill="#0D2571"/>
<path d="M311.766 69.5566H307.889V73.4334H311.766V69.5566Z" fill="#0D2571"/>
<path d="M320.21 69.5566H316.333V73.4334H320.21V69.5566Z" fill="#0D2571"/>
<path d="M294.877 73.7773H291V77.6541H294.877V73.7773Z" fill="#0D2571"/>
<path d="M299.099 73.7773H295.222V77.6541H299.099V73.7773Z" fill="#0D2571"/>
<path d="M307.544 73.7773H303.667V77.6541H307.544V73.7773Z" fill="#0D2571"/>
<path d="M311.766 73.7773H307.889V77.6541H311.766V73.7773Z" fill="#0D2571"/>
<path d="M320.21 73.7773H316.333V77.6541H320.21V73.7773Z" fill="#0D2571"/>
<path d="M324.432 73.7773H320.555V77.6541H324.432V73.7773Z" fill="#0D2571"/>
</g>
<mask id="path-46-inside-1_170_1140" fill="white">
<path d="M54 99H329V100.5H54V99Z"/>
</mask>
<path d="M329 99V98.5H327.497V99V99.5H329V99ZM325.995 99V98.5H322.989V99V99.5H325.995V99ZM321.486 99V98.5H318.481V99V99.5H321.486V99ZM316.978 99V98.5H313.973V99V99.5H316.978V99ZM312.47 99V98.5H309.464V99V99.5H312.47V99ZM307.962 99V98.5H304.956V99V99.5H307.962V99ZM303.454 99V98.5H300.448V99V99.5H303.454V99ZM298.945 99V98.5H295.94V99V99.5H298.945V99ZM294.437 99V98.5H291.432V99V99.5H294.437V99ZM289.929 99V98.5H286.924V99V99.5H289.929V99ZM285.421 99V98.5H282.415V99V99.5H285.421V99ZM280.913 99V98.5H277.907V99V99.5H280.913V99ZM276.404 99V98.5H273.399V99V99.5H276.404V99ZM271.896 99V98.5H268.891V99V99.5H271.896V99ZM267.388 99V98.5H264.383V99V99.5H267.388V99ZM262.88 99V98.5H259.874V99V99.5H262.88V99ZM258.372 99V98.5H255.366V99V99.5H258.372V99ZM253.863 99V98.5H250.858V99V99.5H253.863V99ZM249.355 99V98.5H246.35V99V99.5H249.355V99ZM244.847 99V98.5H241.842V99V99.5H244.847V99ZM240.339 99V98.5H237.333V99V99.5H240.339V99ZM235.831 99V98.5H232.825V99V99.5H235.831V99ZM231.322 99V98.5H228.317V99V99.5H231.322V99ZM226.814 99V98.5H223.809V99V99.5H226.814V99ZM222.306 99V98.5H219.301V99V99.5H222.306V99ZM217.798 99V98.5H214.792V99V99.5H217.798V99ZM213.29 99V98.5H210.284V99V99.5H213.29V99ZM208.781 99V98.5H205.776V99V99.5H208.781V99ZM204.273 99V98.5H201.268V99V99.5H204.273V99ZM199.765 99V98.5H196.76V99V99.5H199.765V99ZM195.257 99V98.5H192.251V99V99.5H195.257V99ZM190.749 99V98.5H187.743V99V99.5H190.749V99ZM186.24 99V98.5H183.235V99V99.5H186.24V99ZM181.732 99V98.5H178.727V99V99.5H181.732V99ZM177.224 99V98.5H174.219V99V99.5H177.224V99ZM172.716 99V98.5H169.71V99V99.5H172.716V99ZM168.208 99V98.5H165.202V99V99.5H168.208V99ZM163.7 99V98.5H160.694V99V99.5H163.7V99ZM159.191 99V98.5H156.186V99V99.5H159.191V99ZM154.683 99V98.5H151.678V99V99.5H154.683V99ZM150.175 99V98.5H147.169V99V99.5H150.175V99ZM145.667 99V98.5H142.661V99V99.5H145.667V99ZM141.159 99V98.5H138.153V99V99.5H141.159V99ZM136.65 99V98.5H133.645V99V99.5H136.65V99ZM132.142 99V98.5H129.137V99V99.5H132.142V99ZM127.634 99V98.5H124.629V99V99.5H127.634V99ZM123.126 99V98.5H120.12V99V99.5H123.126V99ZM118.618 99V98.5H115.612V99V99.5H118.618V99ZM114.109 99V98.5H111.104V99V99.5H114.109V99ZM109.601 99V98.5H106.596V99V99.5H109.601V99ZM105.093 99V98.5H102.088V99V99.5H105.093V99ZM100.585 99V98.5H97.5793V99V99.5H100.585V99ZM96.0766 99V98.5H93.0712V99V99.5H96.0766V99ZM91.5684 99V98.5H88.563V99V99.5H91.5684V99ZM87.0602 99V98.5H84.0548V99V99.5H87.0602V99ZM82.552 99V98.5H79.5466V99V99.5H82.552V99ZM78.0438 99V98.5H75.0384V99V99.5H78.0438V99ZM73.5356 99V98.5H70.5302V99V99.5H73.5356V99ZM69.0274 99V98.5H66.022V99V99.5H69.0274V99ZM64.5192 99V98.5H61.5138V99V99.5H64.5192V99ZM60.011 99V98.5H57.0056V99V99.5H60.011V99ZM55.5028 99V98.5H54V99V99.5H55.5028V99ZM329 99V98H327.497V99V100H329V99ZM325.995 99V98H322.989V99V100H325.995V99ZM321.486 99V98H318.481V99V100H321.486V99ZM316.978 99V98H313.973V99V100H316.978V99ZM312.47 99V98H309.464V99V100H312.47V99ZM307.962 99V98H304.956V99V100H307.962V99ZM303.454 99V98H300.448V99V100H303.454V99ZM298.945 99V98H295.94V99V100H298.945V99ZM294.437 99V98H291.432V99V100H294.437V99ZM289.929 99V98H286.924V99V100H289.929V99ZM285.421 99V98H282.415V99V100H285.421V99ZM280.913 99V98H277.907V99V100H280.913V99ZM276.404 99V98H273.399V99V100H276.404V99ZM271.896 99V98H268.891V99V100H271.896V99ZM267.388 99V98H264.383V99V100H267.388V99ZM262.88 99V98H259.874V99V100H262.88V99ZM258.372 99V98H255.366V99V100H258.372V99ZM253.863 99V98H250.858V99V100H253.863V99ZM249.355 99V98H246.35V99V100H249.355V99ZM244.847 99V98H241.842V99V100H244.847V99ZM240.339 99V98H237.333V99V100H240.339V99ZM235.831 99V98H232.825V99V100H235.831V99ZM231.322 99V98H228.317V99V100H231.322V99ZM226.814 99V98H223.809V99V100H226.814V99ZM222.306 99V98H219.301V99V100H222.306V99ZM217.798 99V98H214.792V99V100H217.798V99ZM213.29 99V98H210.284V99V100H213.29V99ZM208.781 99V98H205.776V99V100H208.781V99ZM204.273 99V98H201.268V99V100H204.273V99ZM199.765 99V98H196.76V99V100H199.765V99ZM195.257 99V98H192.251V99V100H195.257V99ZM190.749 99V98H187.743V99V100H190.749V99ZM186.24 99V98H183.235V99V100H186.24V99ZM181.732 99V98H178.727V99V100H181.732V99ZM177.224 99V98H174.219V99V100H177.224V99ZM172.716 99V98H169.71V99V100H172.716V99ZM168.208 99V98H165.202V99V100H168.208V99ZM163.7 99V98H160.694V99V100H163.7V99ZM159.191 99V98H156.186V99V100H159.191V99ZM154.683 99V98H151.678V99V100H154.683V99ZM150.175 99V98H147.169V99V100H150.175V99ZM145.667 99V98H142.661V99V100H145.667V99ZM141.159 99V98H138.153V99V100H141.159V99ZM136.65 99V98H133.645V99V100H136.65V99ZM132.142 99V98H129.137V99V100H132.142V99ZM127.634 99V98H124.629V99V100H127.634V99ZM123.126 99V98H120.12V99V100H123.126V99ZM118.618 99V98H115.612V99V100H118.618V99ZM114.109 99V98H111.104V99V100H114.109V99ZM109.601 99V98H106.596V99V100H109.601V99ZM105.093 99V98H102.088V99V100H105.093V99ZM100.585 99V98H97.5793V99V100H100.585V99ZM96.0766 99V98H93.0712V99V100H96.0766V99ZM91.5684 99V98H88.563V99V100H91.5684V99ZM87.0602 99V98H84.0548V99V100H87.0602V99ZM82.552 99V98H79.5466V99V100H82.552V99ZM78.0438 99V98H75.0384V99V100H78.0438V99ZM73.5356 99V98H70.5302V99V100H73.5356V99ZM69.0274 99V98H66.022V99V100H69.0274V99ZM64.5192 99V98H61.5138V99V100H64.5192V99ZM60.011 99V98H57.0056V99V100H60.011V99ZM55.5028 99V98H54V99V100H55.5028V99Z" fill="#99B6EF" mask="url(#path-46-inside-1_170_1140)"/>
<mask id="path-48-inside-2_170_1140" fill="white">
<path d="M31.6261 214.962H350.374V216.415H31.6261V214.962Z"/>
</mask>
<path d="M350.374 214.962V213.962H348.918V214.962V215.962H350.374V214.962ZM347.463 214.962V213.962H344.552V214.962V215.962H347.463V214.962ZM343.097 214.962V213.962H340.186V214.962V215.962H343.097V214.962ZM338.73 214.962V213.962H335.819V214.962V215.962H338.73V214.962ZM334.364 214.962V213.962H331.453V214.962V215.962H334.364V214.962ZM329.997 214.962V213.962H327.086V214.962V215.962H329.997V214.962ZM325.631 214.962V213.962H322.72V214.962V215.962H325.631V214.962ZM321.265 214.962V213.962H318.354V214.962V215.962H321.265V214.962ZM316.898 214.962V213.962H313.987V214.962V215.962H316.898V214.962ZM312.532 214.962V213.962H309.621V214.962V215.962H312.532V214.962ZM308.165 214.962V213.962H305.254V214.962V215.962H308.165V214.962ZM303.799 214.962V213.962H300.888V214.962V215.962H303.799V214.962ZM299.433 214.962V213.962H296.522V214.962V215.962H299.433V214.962ZM295.066 214.962V213.962H292.155V214.962V215.962H295.066V214.962ZM290.7 214.962V213.962H287.789V214.962V215.962H290.7V214.962ZM286.333 214.962V213.962H283.422V214.962V215.962H286.333V214.962ZM281.967 214.962V213.962H279.056V214.962V215.962H281.967V214.962ZM277.6 214.962V213.962H274.69V214.962V215.962H277.6V214.962ZM273.234 214.962V213.962H270.323V214.962V215.962H273.234V214.962ZM268.868 214.962V213.962H265.957V214.962V215.962H268.868V214.962ZM264.501 214.962V213.962H261.59V214.962V215.962H264.501V214.962ZM260.135 214.962V213.962H257.224V214.962V215.962H260.135V214.962ZM255.768 214.962V213.962H252.857V214.962V215.962H255.768V214.962ZM251.402 214.962V213.962H248.491V214.962V215.962H251.402V214.962ZM247.036 214.962V213.962H244.125V214.962V215.962H247.036V214.962ZM242.669 214.962V213.962H239.758V214.962V215.962H242.669V214.962ZM238.303 214.962V213.962H235.392V214.962V215.962H238.303V214.962ZM233.936 214.962V213.962H231.025V214.962V215.962H233.936V214.962ZM229.57 214.962V213.962H226.659V214.962V215.962H229.57V214.962ZM225.204 214.962V213.962H222.293V214.962V215.962H225.204V214.962ZM220.837 214.962V213.962H217.926V214.962V215.962H220.837V214.962ZM216.471 214.962V213.962H213.56V214.962V215.962H216.471V214.962ZM212.104 214.962V213.962H209.193V214.962V215.962H212.104V214.962ZM207.738 214.962V213.962H204.827V214.962V215.962H207.738V214.962ZM203.372 214.962V213.962H200.461V214.962V215.962H203.372V214.962ZM199.005 214.962V213.962H196.094V214.962V215.962H199.005V214.962ZM194.639 214.962V213.962H191.728V214.962V215.962H194.639V214.962ZM190.272 214.962V213.962H187.361V214.962V215.962H190.272V214.962ZM185.906 214.962V213.962H182.995V214.962V215.962H185.906V214.962ZM181.539 214.962V213.962H178.629V214.962V215.962H181.539V214.962ZM177.173 214.962V213.962H174.262V214.962V215.962H177.173V214.962ZM172.807 214.962V213.962H169.896V214.962V215.962H172.807V214.962ZM168.44 214.962V213.962H165.529V214.962V215.962H168.44V214.962ZM164.074 214.962V213.962H161.163V214.962V215.962H164.074V214.962ZM159.707 214.962V213.962H156.796V214.962V215.962H159.707V214.962ZM155.341 214.962V213.962H152.43V214.962V215.962H155.341V214.962ZM150.975 214.962V213.962H148.064V214.962V215.962H150.975V214.962ZM146.608 214.962V213.962H143.697V214.962V215.962H146.608V214.962ZM142.242 214.962V213.962H139.331V214.962V215.962H142.242V214.962ZM137.875 214.962V213.962H134.964V214.962V215.962H137.875V214.962ZM133.509 214.962V213.962H130.598V214.962V215.962H133.509V214.962ZM129.143 214.962V213.962H126.232V214.962V215.962H129.143V214.962ZM124.776 214.962V213.962H121.865V214.962V215.962H124.776V214.962ZM120.41 214.962V213.962H117.499V214.962V215.962H120.41V214.962ZM116.043 214.962V213.962H113.132V214.962V215.962H116.043V214.962ZM111.677 214.962V213.962H108.766V214.962V215.962H111.677V214.962ZM107.311 214.962V213.962H104.4V214.962V215.962H107.311V214.962ZM102.944 214.962V213.962H100.033V214.962V215.962H102.944V214.962ZM98.5777 214.962V213.962H95.6668V214.962V215.962H98.5777V214.962ZM94.2113 214.962V213.962H91.3004V214.962V215.962H94.2113V214.962ZM89.8449 214.962V213.962H86.9339V214.962V215.962H89.8449V214.962ZM85.4785 214.962V213.962H82.5675V214.962V215.962H85.4785V214.962ZM81.112 214.962V213.962H78.2011V214.962V215.962H81.112V214.962ZM76.7456 214.962V213.962H73.8347V214.962V215.962H76.7456V214.962ZM72.3792 214.962V213.962H69.4682V214.962V215.962H72.3792V214.962ZM68.0128 214.962V213.962H65.1018V214.962V215.962H68.0128V214.962ZM63.6463 214.962V213.962H60.7354V214.962V215.962H63.6463V214.962ZM59.2799 214.962V213.962H56.369V214.962V215.962H59.2799V214.962ZM54.9135 214.962V213.962H52.0025V214.962V215.962H54.9135V214.962ZM50.5471 214.962V213.962H47.6361V214.962V215.962H50.5471V214.962ZM46.1806 214.962V213.962H43.2697V214.962V215.962H46.1806V214.962ZM41.8142 214.962V213.962H38.9033V214.962V215.962H41.8142V214.962ZM37.4478 214.962V213.962H34.5368V214.962V215.962H37.4478V214.962ZM33.0814 214.962V213.962H31.6261V214.962V215.962H33.0814V214.962ZM350.374 214.962V212.962H348.918V214.962V216.962H350.374V214.962ZM347.463 214.962V212.962H344.552V214.962V216.962H347.463V214.962ZM343.097 214.962V212.962H340.186V214.962V216.962H343.097V214.962ZM338.73 214.962V212.962H335.819V214.962V216.962H338.73V214.962ZM334.364 214.962V212.962H331.453V214.962V216.962H334.364V214.962ZM329.997 214.962V212.962H327.086V214.962V216.962H329.997V214.962ZM325.631 214.962V212.962H322.72V214.962V216.962H325.631V214.962ZM321.265 214.962V212.962H318.354V214.962V216.962H321.265V214.962ZM316.898 214.962V212.962H313.987V214.962V216.962H316.898V214.962ZM312.532 214.962V212.962H309.621V214.962V216.962H312.532V214.962ZM308.165 214.962V212.962H305.254V214.962V216.962H308.165V214.962ZM303.799 214.962V212.962H300.888V214.962V216.962H303.799V214.962ZM299.433 214.962V212.962H296.522V214.962V216.962H299.433V214.962ZM295.066 214.962V212.962H292.155V214.962V216.962H295.066V214.962ZM290.7 214.962V212.962H287.789V214.962V216.962H290.7V214.962ZM286.333 214.962V212.962H283.422V214.962V216.962H286.333V214.962ZM281.967 214.962V212.962H279.056V214.962V216.962H281.967V214.962ZM277.6 214.962V212.962H274.69V214.962V216.962H277.6V214.962ZM273.234 214.962V212.962H270.323V214.962V216.962H273.234V214.962ZM268.868 214.962V212.962H265.957V214.962V216.962H268.868V214.962ZM264.501 214.962V212.962H261.59V214.962V216.962H264.501V214.962ZM260.135 214.962V212.962H257.224V214.962V216.962H260.135V214.962ZM255.768 214.962V212.962H252.857V214.962V216.962H255.768V214.962ZM251.402 214.962V212.962H248.491V214.962V216.962H251.402V214.962ZM247.036 214.962V212.962H244.125V214.962V216.962H247.036V214.962ZM242.669 214.962V212.962H239.758V214.962V216.962H242.669V214.962ZM238.303 214.962V212.962H235.392V214.962V216.962H238.303V214.962ZM233.936 214.962V212.962H231.025V214.962V216.962H233.936V214.962ZM229.57 214.962V212.962H226.659V214.962V216.962H229.57V214.962ZM225.204 214.962V212.962H222.293V214.962V216.962H225.204V214.962ZM220.837 214.962V212.962H217.926V214.962V216.962H220.837V214.962ZM216.471 214.962V212.962H213.56V214.962V216.962H216.471V214.962ZM212.104 214.962V212.962H209.193V214.962V216.962H212.104V214.962ZM207.738 214.962V212.962H204.827V214.962V216.962H207.738V214.962ZM203.372 214.962V212.962H200.461V214.962V216.962H203.372V214.962ZM199.005 214.962V212.962H196.094V214.962V216.962H199.005V214.962ZM194.639 214.962V212.962H191.728V214.962V216.962H194.639V214.962ZM190.272 214.962V212.962H187.361V214.962V216.962H190.272V214.962ZM185.906 214.962V212.962H182.995V214.962V216.962H185.906V214.962ZM181.539 214.962V212.962H178.629V214.962V216.962H181.539V214.962ZM177.173 214.962V212.962H174.262V214.962V216.962H177.173V214.962ZM172.807 214.962V212.962H169.896V214.962V216.962H172.807V214.962ZM168.44 214.962V212.962H165.529V214.962V216.962H168.44V214.962ZM164.074 214.962V212.962H161.163V214.962V216.962H164.074V214.962ZM159.707 214.962V212.962H156.796V214.962V216.962H159.707V214.962ZM155.341 214.962V212.962H152.43V214.962V216.962H155.341V214.962ZM150.975 214.962V212.962H148.064V214.962V216.962H150.975V214.962ZM146.608 214.962V212.962H143.697V214.962V216.962H146.608V214.962ZM142.242 214.962V212.962H139.331V214.962V216.962H142.242V214.962ZM137.875 214.962V212.962H134.964V214.962V216.962H137.875V214.962ZM133.509 214.962V212.962H130.598V214.962V216.962H133.509V214.962ZM129.143 214.962V212.962H126.232V214.962V216.962H129.143V214.962ZM124.776 214.962V212.962H121.865V214.962V216.962H124.776V214.962ZM120.41 214.962V212.962H117.499V214.962V216.962H120.41V214.962ZM116.043 214.962V212.962H113.132V214.962V216.962H116.043V214.962ZM111.677 214.962V212.962H108.766V214.962V216.962H111.677V214.962ZM107.311 214.962V212.962H104.4V214.962V216.962H107.311V214.962ZM102.944 214.962V212.962H100.033V214.962V216.962H102.944V214.962ZM98.5777 214.962V212.962H95.6668V214.962V216.962H98.5777V214.962ZM94.2113 214.962V212.962H91.3004V214.962V216.962H94.2113V214.962ZM89.8449 214.962V212.962H86.9339V214.962V216.962H89.8449V214.962ZM85.4785 214.962V212.962H82.5675V214.962V216.962H85.4785V214.962ZM81.112 214.962V212.962H78.2011V214.962V216.962H81.112V214.962ZM76.7456 214.962V212.962H73.8347V214.962V216.962H76.7456V214.962ZM72.3792 214.962V212.962H69.4682V214.962V216.962H72.3792V214.962ZM68.0128 214.962V212.962H65.1018V214.962V216.962H68.0128V214.962ZM63.6463 214.962V212.962H60.7354V214.962V216.962H63.6463V214.962ZM59.2799 214.962V212.962H56.369V214.962V216.962H59.2799V214.962ZM54.9135 214.962V212.962H52.0025V214.962V216.962H54.9135V214.962ZM50.5471 214.962V212.962H47.6361V214.962V216.962H50.5471V214.962ZM46.1806 214.962V212.962H43.2697V214.962V216.962H46.1806V214.962ZM41.8142 214.962V212.962H38.9033V214.962V216.962H41.8142V214.962ZM37.4478 214.962V212.962H34.5368V214.962V216.962H37.4478V214.962ZM33.0814 214.962V212.962H31.6261V214.962V216.962H33.0814V214.962Z" fill="#E6E6E6" mask="url(#path-48-inside-2_170_1140)"/>
<path d="M10.3116 215.688C10.3116 210.338 14.6493 206 20 206V206C25.3508 206 29.6884 210.338 29.6884 215.688V215.688C29.6884 221.039 25.3508 225.377 20 225.377V225.377C14.6493 225.377 10.3116 221.039 10.3116 215.688V215.688Z" fill="#F3F3F3"/>
<path d="M352.312 215.688C352.312 210.338 356.649 206 362 206V206C367.351 206 371.688 210.338 371.688 215.688V215.688C371.688 221.039 367.351 225.377 362 225.377V225.377C356.649 225.377 352.312 221.039 352.312 215.688V215.688Z" fill="#F3F3F3"/>
<path d="M63.8154 235H49V259H63.8154V235Z" fill="#0D2571"/>
<path d="M78.6308 235H68.7539V259H78.6308V235Z" fill="#0D2571"/>
<path d="M98.3846 235H83.5692V259H98.3846V235Z" fill="#0D2571"/>
<path d="M113.2 235H108.262V259H113.2V235Z" fill="#0D2571"/>
<path d="M137.892 235H123.077V259H137.892V235Z" fill="#0D2571"/>
<path d="M147.769 235H142.831V259H147.769V235Z" fill="#0D2571"/>
<path d="M172.462 235H162.585V259H172.462V235Z" fill="#0D2571"/>
<path d="M187.277 235H177.4V259H187.277V235Z" fill="#0D2571"/>
<path d="M207.031 235H202.092V259H207.031V235Z" fill="#0D2571"/>
<path d="M221.846 235H216.908V259H221.846V235Z" fill="#0D2571"/>
<path d="M241.6 235H236.662V259H241.6V235Z" fill="#0D2571"/>
<path d="M256.415 235H246.539V259H256.415V235Z" fill="#0D2571"/>
<path d="M281.108 235H271.231V259H281.108V235Z" fill="#0D2571"/>
<path d="M300.862 235H286.046V259H300.862V235Z" fill="#0D2571"/>
<path d="M315.677 235H305.8V259H315.677V235Z" fill="#0D2571"/>
<path d="M335.431 235H320.615V259H335.431V235Z" fill="#0D2571"/>
</g>
</g>
<defs>
<filter id="filter0_d_170_1140" x="0" y="0" width="381" height="305" filterUnits="userSpaceOnUse" color-interpolation-filters="sRGB">
<feFlood flood-opacity="0" result="BackgroundImageFix"/>
<feColorMatrix in="SourceAlpha" type="matrix" values="0 0 0 0 0 0 0 0 0 0 0 0 0 0 0 0 0 0 127 0" result="hardAlpha"/>
<feOffset dy="4"/>
<feGaussianBlur stdDeviation="10"/>
<feComposite in2="hardAlpha" operator="out"/>
<feColorMatrix type="matrix" values="0 0 0 0 0.0705882 0 0 0 0 0.0705882 0 0 0 0 0.0705882 0 0 0 0.05 0"/>
<feBlend mode="normal" in2="BackgroundImageFix" result="effect1_dropShadow_170_1140"/>
<feBlend mode="normal" in="SourceGraphic" in2="effect1_dropShadow_170_1140" result="shape"/>
</filter>
<clipPath id="clip0_170_1140">
<rect x="20" y="16" width="341" height="265" rx="15" fill="white"/>
</clipPath>
<clipPath id="clip1_170_1140">
<rect width="38" height="38" fill="white" transform="translate(291 40)"/>
</clipPath>
</defs>
</svg>
