<svg width="382" height="526" viewBox="0 0 382 526" fill="none" xmlns="http://www.w3.org/2000/svg">
<g filter="url(#filter0_d_170_1063)">
<g clip-path="url(#clip0_170_1063)">
<path d="M20 31C20 22.7157 26.7157 16 35 16H347C355.284 16 362 22.7157 362 31V487C362 495.284 355.284 502 347 502H35C26.7157 502 20 495.284 20 487V31Z" fill="white"/>
<rect x="20" y="16" width="8" height="580" fill="#0D2571"/>
<rect x="354" y="-31" width="8" height="580" fill="#0D2571"/>
<mask id="path-4-inside-1_170_1063" fill="white">
<path d="M31.6261 381.962H350.374V383.415H31.6261V381.962Z"/>
</mask>
<path d="M350.374 381.962V380.962H348.918V381.962V382.962H350.374V381.962ZM347.463 381.962V380.962H344.552V381.962V382.962H347.463V381.962ZM343.097 381.962V380.962H340.186V381.962V382.962H343.097V381.962ZM338.73 381.962V380.962H335.819V381.962V382.962H338.73V381.962ZM334.364 381.962V380.962H331.453V381.962V382.962H334.364V381.962ZM329.997 381.962V380.962H327.086V381.962V382.962H329.997V381.962ZM325.631 381.962V380.962H322.72V381.962V382.962H325.631V381.962ZM321.265 381.962V380.962H318.354V381.962V382.962H321.265V381.962ZM316.898 381.962V380.962H313.987V381.962V382.962H316.898V381.962ZM312.532 381.962V380.962H309.621V381.962V382.962H312.532V381.962ZM308.165 381.962V380.962H305.254V381.962V382.962H308.165V381.962ZM303.799 381.962V380.962H300.888V381.962V382.962H303.799V381.962ZM299.433 381.962V380.962H296.522V381.962V382.962H299.433V381.962ZM295.066 381.962V380.962H292.155V381.962V382.962H295.066V381.962ZM290.7 381.962V380.962H287.789V381.962V382.962H290.7V381.962ZM286.333 381.962V380.962H283.422V381.962V382.962H286.333V381.962ZM281.967 381.962V380.962H279.056V381.962V382.962H281.967V381.962ZM277.6 381.962V380.962H274.69V381.962V382.962H277.6V381.962ZM273.234 381.962V380.962H270.323V381.962V382.962H273.234V381.962ZM268.868 381.962V380.962H265.957V381.962V382.962H268.868V381.962ZM264.501 381.962V380.962H261.59V381.962V382.962H264.501V381.962ZM260.135 381.962V380.962H257.224V381.962V382.962H260.135V381.962ZM255.768 381.962V380.962H252.857V381.962V382.962H255.768V381.962ZM251.402 381.962V380.962H248.491V381.962V382.962H251.402V381.962ZM247.036 381.962V380.962H244.125V381.962V382.962H247.036V381.962ZM242.669 381.962V380.962H239.758V381.962V382.962H242.669V381.962ZM238.303 381.962V380.962H235.392V381.962V382.962H238.303V381.962ZM233.936 381.962V380.962H231.025V381.962V382.962H233.936V381.962ZM229.57 381.962V380.962H226.659V381.962V382.962H229.57V381.962ZM225.204 381.962V380.962H222.293V381.962V382.962H225.204V381.962ZM220.837 381.962V380.962H217.926V381.962V382.962H220.837V381.962ZM216.471 381.962V380.962H213.56V381.962V382.962H216.471V381.962ZM212.104 381.962V380.962H209.193V381.962V382.962H212.104V381.962ZM207.738 381.962V380.962H204.827V381.962V382.962H207.738V381.962ZM203.372 381.962V380.962H200.461V381.962V382.962H203.372V381.962ZM199.005 381.962V380.962H196.094V381.962V382.962H199.005V381.962ZM194.639 381.962V380.962H191.728V381.962V382.962H194.639V381.962ZM190.272 381.962V380.962H187.361V381.962V382.962H190.272V381.962ZM185.906 381.962V380.962H182.995V381.962V382.962H185.906V381.962ZM181.539 381.962V380.962H178.629V381.962V382.962H181.539V381.962ZM177.173 381.962V380.962H174.262V381.962V382.962H177.173V381.962ZM172.807 381.962V380.962H169.896V381.962V382.962H172.807V381.962ZM168.44 381.962V380.962H165.529V381.962V382.962H168.44V381.962ZM164.074 381.962V380.962H161.163V381.962V382.962H164.074V381.962ZM159.707 381.962V380.962H156.796V381.962V382.962H159.707V381.962ZM155.341 381.962V380.962H152.43V381.962V382.962H155.341V381.962ZM150.975 381.962V380.962H148.064V381.962V382.962H150.975V381.962ZM146.608 381.962V380.962H143.697V381.962V382.962H146.608V381.962ZM142.242 381.962V380.962H139.331V381.962V382.962H142.242V381.962ZM137.875 381.962V380.962H134.964V381.962V382.962H137.875V381.962ZM133.509 381.962V380.962H130.598V381.962V382.962H133.509V381.962ZM129.143 381.962V380.962H126.232V381.962V382.962H129.143V381.962ZM124.776 381.962V380.962H121.865V381.962V382.962H124.776V381.962ZM120.41 381.962V380.962H117.499V381.962V382.962H120.41V381.962ZM116.043 381.962V380.962H113.132V381.962V382.962H116.043V381.962ZM111.677 381.962V380.962H108.766V381.962V382.962H111.677V381.962ZM107.311 381.962V380.962H104.4V381.962V382.962H107.311V381.962ZM102.944 381.962V380.962H100.033V381.962V382.962H102.944V381.962ZM98.5777 381.962V380.962H95.6668V381.962V382.962H98.5777V381.962ZM94.2113 381.962V380.962H91.3004V381.962V382.962H94.2113V381.962ZM89.8449 381.962V380.962H86.9339V381.962V382.962H89.8449V381.962ZM85.4785 381.962V380.962H82.5675V381.962V382.962H85.4785V381.962ZM81.112 381.962V380.962H78.2011V381.962V382.962H81.112V381.962ZM76.7456 381.962V380.962H73.8347V381.962V382.962H76.7456V381.962ZM72.3792 381.962V380.962H69.4682V381.962V382.962H72.3792V381.962ZM68.0128 381.962V380.962H65.1018V381.962V382.962H68.0128V381.962ZM63.6463 381.962V380.962H60.7354V381.962V382.962H63.6463V381.962ZM59.2799 381.962V380.962H56.369V381.962V382.962H59.2799V381.962ZM54.9135 381.962V380.962H52.0025V381.962V382.962H54.9135V381.962ZM50.5471 381.962V380.962H47.6361V381.962V382.962H50.5471V381.962ZM46.1806 381.962V380.962H43.2697V381.962V382.962H46.1806V381.962ZM41.8142 381.962V380.962H38.9033V381.962V382.962H41.8142V381.962ZM37.4478 381.962V380.962H34.5368V381.962V382.962H37.4478V381.962ZM33.0814 381.962V380.962H31.6261V381.962V382.962H33.0814V381.962ZM350.374 381.962V379.962H348.918V381.962V383.962H350.374V381.962ZM347.463 381.962V379.962H344.552V381.962V383.962H347.463V381.962ZM343.097 381.962V379.962H340.186V381.962V383.962H343.097V381.962ZM338.73 381.962V379.962H335.819V381.962V383.962H338.73V381.962ZM334.364 381.962V379.962H331.453V381.962V383.962H334.364V381.962ZM329.997 381.962V379.962H327.086V381.962V383.962H329.997V381.962ZM325.631 381.962V379.962H322.72V381.962V383.962H325.631V381.962ZM321.265 381.962V379.962H318.354V381.962V383.962H321.265V381.962ZM316.898 381.962V379.962H313.987V381.962V383.962H316.898V381.962ZM312.532 381.962V379.962H309.621V381.962V383.962H312.532V381.962ZM308.165 381.962V379.962H305.254V381.962V383.962H308.165V381.962ZM303.799 381.962V379.962H300.888V381.962V383.962H303.799V381.962ZM299.433 381.962V379.962H296.522V381.962V383.962H299.433V381.962ZM295.066 381.962V379.962H292.155V381.962V383.962H295.066V381.962ZM290.7 381.962V379.962H287.789V381.962V383.962H290.7V381.962ZM286.333 381.962V379.962H283.422V381.962V383.962H286.333V381.962ZM281.967 381.962V379.962H279.056V381.962V383.962H281.967V381.962ZM277.6 381.962V379.962H274.69V381.962V383.962H277.6V381.962ZM273.234 381.962V379.962H270.323V381.962V383.962H273.234V381.962ZM268.868 381.962V379.962H265.957V381.962V383.962H268.868V381.962ZM264.501 381.962V379.962H261.59V381.962V383.962H264.501V381.962ZM260.135 381.962V379.962H257.224V381.962V383.962H260.135V381.962ZM255.768 381.962V379.962H252.857V381.962V383.962H255.768V381.962ZM251.402 381.962V379.962H248.491V381.962V383.962H251.402V381.962ZM247.036 381.962V379.962H244.125V381.962V383.962H247.036V381.962ZM242.669 381.962V379.962H239.758V381.962V383.962H242.669V381.962ZM238.303 381.962V379.962H235.392V381.962V383.962H238.303V381.962ZM233.936 381.962V379.962H231.025V381.962V383.962H233.936V381.962ZM229.57 381.962V379.962H226.659V381.962V383.962H229.57V381.962ZM225.204 381.962V379.962H222.293V381.962V383.962H225.204V381.962ZM220.837 381.962V379.962H217.926V381.962V383.962H220.837V381.962ZM216.471 381.962V379.962H213.56V381.962V383.962H216.471V381.962ZM212.104 381.962V379.962H209.193V381.962V383.962H212.104V381.962ZM207.738 381.962V379.962H204.827V381.962V383.962H207.738V381.962ZM203.372 381.962V379.962H200.461V381.962V383.962H203.372V381.962ZM199.005 381.962V379.962H196.094V381.962V383.962H199.005V381.962ZM194.639 381.962V379.962H191.728V381.962V383.962H194.639V381.962ZM190.272 381.962V379.962H187.361V381.962V383.962H190.272V381.962ZM185.906 381.962V379.962H182.995V381.962V383.962H185.906V381.962ZM181.539 381.962V379.962H178.629V381.962V383.962H181.539V381.962ZM177.173 381.962V379.962H174.262V381.962V383.962H177.173V381.962ZM172.807 381.962V379.962H169.896V381.962V383.962H172.807V381.962ZM168.44 381.962V379.962H165.529V381.962V383.962H168.44V381.962ZM164.074 381.962V379.962H161.163V381.962V383.962H164.074V381.962ZM159.707 381.962V379.962H156.796V381.962V383.962H159.707V381.962ZM155.341 381.962V379.962H152.43V381.962V383.962H155.341V381.962ZM150.975 381.962V379.962H148.064V381.962V383.962H150.975V381.962ZM146.608 381.962V379.962H143.697V381.962V383.962H146.608V381.962ZM142.242 381.962V379.962H139.331V381.962V383.962H142.242V381.962ZM137.875 381.962V379.962H134.964V381.962V383.962H137.875V381.962ZM133.509 381.962V379.962H130.598V381.962V383.962H133.509V381.962ZM129.143 381.962V379.962H126.232V381.962V383.962H129.143V381.962ZM124.776 381.962V379.962H121.865V381.962V383.962H124.776V381.962ZM120.41 381.962V379.962H117.499V381.962V383.962H120.41V381.962ZM116.043 381.962V379.962H113.132V381.962V383.962H116.043V381.962ZM111.677 381.962V379.962H108.766V381.962V383.962H111.677V381.962ZM107.311 381.962V379.962H104.4V381.962V383.962H107.311V381.962ZM102.944 381.962V379.962H100.033V381.962V383.962H102.944V381.962ZM98.5777 381.962V379.962H95.6668V381.962V383.962H98.5777V381.962ZM94.2113 381.962V379.962H91.3004V381.962V383.962H94.2113V381.962ZM89.8449 381.962V379.962H86.9339V381.962V383.962H89.8449V381.962ZM85.4785 381.962V379.962H82.5675V381.962V383.962H85.4785V381.962ZM81.112 381.962V379.962H78.2011V381.962V383.962H81.112V381.962ZM76.7456 381.962V379.962H73.8347V381.962V383.962H76.7456V381.962ZM72.3792 381.962V379.962H69.4682V381.962V383.962H72.3792V381.962ZM68.0128 381.962V379.962H65.1018V381.962V383.962H68.0128V381.962ZM63.6463 381.962V379.962H60.7354V381.962V383.962H63.6463V381.962ZM59.2799 381.962V379.962H56.369V381.962V383.962H59.2799V381.962ZM54.9135 381.962V379.962H52.0025V381.962V383.962H54.9135V381.962ZM50.5471 381.962V379.962H47.6361V381.962V383.962H50.5471V381.962ZM46.1806 381.962V379.962H43.2697V381.962V383.962H46.1806V381.962ZM41.8142 381.962V379.962H38.9033V381.962V383.962H41.8142V381.962ZM37.4478 381.962V379.962H34.5368V381.962V383.962H37.4478V381.962ZM33.0814 381.962V379.962H31.6261V381.962V383.962H33.0814V381.962Z" fill="#E6E6E6" mask="url(#path-4-inside-1_170_1063)"/>
<path d="M10.3116 382.688C10.3116 377.338 14.6493 373 20 373V373C25.3508 373 29.6884 377.338 29.6884 382.688V382.688C29.6884 388.039 25.3508 392.377 20 392.377V392.377C14.6493 392.377 10.3116 388.039 10.3116 382.688V382.688Z" fill="#F3F3F3"/>
<path d="M352.312 382.688C352.312 377.338 356.649 373 362 373V373C367.351 373 371.688 377.338 371.688 382.688V382.688C371.688 388.039 367.351 392.377 362 392.377V392.377C356.649 392.377 352.312 388.039 352.312 382.688V382.688Z" fill="#F3F3F3"/>
</g>
</g>
<defs>
<filter id="filter0_d_170_1063" x="0" y="0" width="382" height="526" filterUnits="userSpaceOnUse" color-interpolation-filters="sRGB">
<feFlood flood-opacity="0" result="BackgroundImageFix"/>
<feColorMatrix in="SourceAlpha" type="matrix" values="0 0 0 0 0 0 0 0 0 0 0 0 0 0 0 0 0 0 127 0" result="hardAlpha"/>
<feOffset dy="4"/>
<feGaussianBlur stdDeviation="10"/>
<feComposite in2="hardAlpha" operator="out"/>
<feColorMatrix type="matrix" values="0 0 0 0 0.0705882 0 0 0 0 0.0705882 0 0 0 0 0.0705882 0 0 0 0.05 0"/>
<feBlend mode="normal" in2="BackgroundImageFix" result="effect1_dropShadow_170_1063"/>
<feBlend mode="normal" in="SourceGraphic" in2="effect1_dropShadow_170_1063" result="shape"/>
</filter>
<clipPath id="clip0_170_1063">
<path d="M20 31C20 22.7157 26.7157 16 35 16H347C355.284 16 362 22.7157 362 31V487C362 495.284 355.284 502 347 502H35C26.7157 502 20 495.284 20 487V31Z" fill="white"/>
</clipPath>
</defs>
</svg>
