<svg width="382" height="603" viewBox="0 0 382 603" fill="none" xmlns="http://www.w3.org/2000/svg">
<g filter="url(#filter0_d_233_2331)">
<g clip-path="url(#clip0_233_2331)">
<path d="M20 31C20 22.7157 26.7157 16 35 16H347C355.284 16 362 22.7157 362 31V564C362 572.284 355.284 579 347 579H35C26.7157 579 20 572.284 20 564V31Z" fill="white"/>
<rect x="20" y="16" width="8" height="580" fill="#0D2571"/>
<rect x="354" y="8" width="8" height="580" fill="#0D2571"/>
<mask id="path-4-inside-1_233_2331" fill="white">
<path d="M31.626 483.712H350.374V485.165H31.626V483.712Z"/>
</mask>
<path d="M350.374 483.712V482.712H348.918V483.712V484.712H350.374V483.712ZM347.463 483.712V482.712H344.552V483.712V484.712H347.463V483.712ZM343.096 483.712V482.712H340.186V483.712V484.712H343.096V483.712ZM338.73 483.712V482.712H335.819V483.712V484.712H338.73V483.712ZM334.364 483.712V482.712H331.453V483.712V484.712H334.364V483.712ZM329.997 483.712V482.712H327.086V483.712V484.712H329.997V483.712ZM325.631 483.712V482.712H322.72V483.712V484.712H325.631V483.712ZM321.264 483.712V482.712H318.354V483.712V484.712H321.264V483.712ZM316.898 483.712V482.712H313.987V483.712V484.712H316.898V483.712ZM312.532 483.712V482.712H309.621V483.712V484.712H312.532V483.712ZM308.165 483.712V482.712H305.254V483.712V484.712H308.165V483.712ZM303.799 483.712V482.712H300.888V483.712V484.712H303.799V483.712ZM299.432 483.712V482.712H296.521V483.712V484.712H299.432V483.712ZM295.066 483.712V482.712H292.155V483.712V484.712H295.066V483.712ZM290.7 483.712V482.712H287.789V483.712V484.712H290.7V483.712ZM286.333 483.712V482.712H283.422V483.712V484.712H286.333V483.712ZM281.967 483.712V482.712H279.056V483.712V484.712H281.967V483.712ZM277.6 483.712V482.712H274.689V483.712V484.712H277.6V483.712ZM273.234 483.712V482.712H270.323V483.712V484.712H273.234V483.712ZM268.868 483.712V482.712H265.957V483.712V484.712H268.868V483.712ZM264.501 483.712V482.712H261.59V483.712V484.712H264.501V483.712ZM260.135 483.712V482.712H257.224V483.712V484.712H260.135V483.712ZM255.768 483.712V482.712H252.857V483.712V484.712H255.768V483.712ZM251.402 483.712V482.712H248.491V483.712V484.712H251.402V483.712ZM247.035 483.712V482.712H244.125V483.712V484.712H247.035V483.712ZM242.669 483.712V482.712H239.758V483.712V484.712H242.669V483.712ZM238.303 483.712V482.712H235.392V483.712V484.712H238.303V483.712ZM233.936 483.712V482.712H231.025V483.712V484.712H233.936V483.712ZM229.57 483.712V482.712H226.659V483.712V484.712H229.57V483.712ZM225.203 483.712V482.712H222.293V483.712V484.712H225.203V483.712ZM220.837 483.712V482.712H217.926V483.712V484.712H220.837V483.712ZM216.471 483.712V482.712H213.56V483.712V484.712H216.471V483.712ZM212.104 483.712V482.712H209.193V483.712V484.712H212.104V483.712ZM207.738 483.712V482.712H204.827V483.712V484.712H207.738V483.712ZM203.371 483.712V482.712H200.46V483.712V484.712H203.371V483.712ZM199.005 483.712V482.712H196.094V483.712V484.712H199.005V483.712ZM194.639 483.712V482.712H191.728V483.712V484.712H194.639V483.712ZM190.272 483.712V482.712H187.361V483.712V484.712H190.272V483.712ZM185.906 483.712V482.712H182.995V483.712V484.712H185.906V483.712ZM181.539 483.712V482.712H178.628V483.712V484.712H181.539V483.712ZM177.173 483.712V482.712H174.262V483.712V484.712H177.173V483.712ZM172.807 483.712V482.712H169.896V483.712V484.712H172.807V483.712ZM168.44 483.712V482.712H165.529V483.712V484.712H168.44V483.712ZM164.074 483.712V482.712H161.163V483.712V484.712H164.074V483.712ZM159.707 483.712V482.712H156.796V483.712V484.712H159.707V483.712ZM155.341 483.712V482.712H152.43V483.712V484.712H155.341V483.712ZM150.974 483.712V482.712H148.064V483.712V484.712H150.974V483.712ZM146.608 483.712V482.712H143.697V483.712V484.712H146.608V483.712ZM142.242 483.712V482.712H139.331V483.712V484.712H142.242V483.712ZM137.875 483.712V482.712H134.964V483.712V484.712H137.875V483.712ZM133.509 483.712V482.712H130.598V483.712V484.712H133.509V483.712ZM129.142 483.712V482.712H126.232V483.712V484.712H129.142V483.712ZM124.776 483.712V482.712H121.865V483.712V484.712H124.776V483.712ZM120.41 483.712V482.712H117.499V483.712V484.712H120.41V483.712ZM116.043 483.712V482.712H113.132V483.712V484.712H116.043V483.712ZM111.677 483.712V482.712H108.766V483.712V484.712H111.677V483.712ZM107.31 483.712V482.712H104.399V483.712V484.712H107.31V483.712ZM102.944 483.712V482.712H100.033V483.712V484.712H102.944V483.712ZM98.5776 483.712V482.712H95.6666V483.712V484.712H98.5776V483.712ZM94.2112 483.712V482.712H91.3002V483.712V484.712H94.2112V483.712ZM89.8448 483.712V482.712H86.9338V483.712V484.712H89.8448V483.712ZM85.4783 483.712V482.712H82.5674V483.712V484.712H85.4783V483.712ZM81.1119 483.712V482.712H78.201V483.712V484.712H81.1119V483.712ZM76.7455 483.712V482.712H73.8345V483.712V484.712H76.7455V483.712ZM72.3791 483.712V482.712H69.4681V483.712V484.712H72.3791V483.712ZM68.0126 483.712V482.712H65.1017V483.712V484.712H68.0126V483.712ZM63.6462 483.712V482.712H60.7353V483.712V484.712H63.6462V483.712ZM59.2798 483.712V482.712H56.3688V483.712V484.712H59.2798V483.712ZM54.9134 483.712V482.712H52.0024V483.712V484.712H54.9134V483.712ZM50.5469 483.712V482.712H47.636V483.712V484.712H50.5469V483.712ZM46.1805 483.712V482.712H43.2696V483.712V484.712H46.1805V483.712ZM41.8141 483.712V482.712H38.9031V483.712V484.712H41.8141V483.712ZM37.4477 483.712V482.712H34.5367V483.712V484.712H37.4477V483.712ZM33.0812 483.712V482.712H31.626V483.712V484.712H33.0812V483.712ZM350.374 483.712V481.712H348.918V483.712V485.712H350.374V483.712ZM347.463 483.712V481.712H344.552V483.712V485.712H347.463V483.712ZM343.096 483.712V481.712H340.186V483.712V485.712H343.096V483.712ZM338.73 483.712V481.712H335.819V483.712V485.712H338.73V483.712ZM334.364 483.712V481.712H331.453V483.712V485.712H334.364V483.712ZM329.997 483.712V481.712H327.086V483.712V485.712H329.997V483.712ZM325.631 483.712V481.712H322.72V483.712V485.712H325.631V483.712ZM321.264 483.712V481.712H318.354V483.712V485.712H321.264V483.712ZM316.898 483.712V481.712H313.987V483.712V485.712H316.898V483.712ZM312.532 483.712V481.712H309.621V483.712V485.712H312.532V483.712ZM308.165 483.712V481.712H305.254V483.712V485.712H308.165V483.712ZM303.799 483.712V481.712H300.888V483.712V485.712H303.799V483.712ZM299.432 483.712V481.712H296.521V483.712V485.712H299.432V483.712ZM295.066 483.712V481.712H292.155V483.712V485.712H295.066V483.712ZM290.7 483.712V481.712H287.789V483.712V485.712H290.7V483.712ZM286.333 483.712V481.712H283.422V483.712V485.712H286.333V483.712ZM281.967 483.712V481.712H279.056V483.712V485.712H281.967V483.712ZM277.6 483.712V481.712H274.689V483.712V485.712H277.6V483.712ZM273.234 483.712V481.712H270.323V483.712V485.712H273.234V483.712ZM268.868 483.712V481.712H265.957V483.712V485.712H268.868V483.712ZM264.501 483.712V481.712H261.59V483.712V485.712H264.501V483.712ZM260.135 483.712V481.712H257.224V483.712V485.712H260.135V483.712ZM255.768 483.712V481.712H252.857V483.712V485.712H255.768V483.712ZM251.402 483.712V481.712H248.491V483.712V485.712H251.402V483.712ZM247.035 483.712V481.712H244.125V483.712V485.712H247.035V483.712ZM242.669 483.712V481.712H239.758V483.712V485.712H242.669V483.712ZM238.303 483.712V481.712H235.392V483.712V485.712H238.303V483.712ZM233.936 483.712V481.712H231.025V483.712V485.712H233.936V483.712ZM229.57 483.712V481.712H226.659V483.712V485.712H229.57V483.712ZM225.203 483.712V481.712H222.293V483.712V485.712H225.203V483.712ZM220.837 483.712V481.712H217.926V483.712V485.712H220.837V483.712ZM216.471 483.712V481.712H213.56V483.712V485.712H216.471V483.712ZM212.104 483.712V481.712H209.193V483.712V485.712H212.104V483.712ZM207.738 483.712V481.712H204.827V483.712V485.712H207.738V483.712ZM203.371 483.712V481.712H200.46V483.712V485.712H203.371V483.712ZM199.005 483.712V481.712H196.094V483.712V485.712H199.005V483.712ZM194.639 483.712V481.712H191.728V483.712V485.712H194.639V483.712ZM190.272 483.712V481.712H187.361V483.712V485.712H190.272V483.712ZM185.906 483.712V481.712H182.995V483.712V485.712H185.906V483.712ZM181.539 483.712V481.712H178.628V483.712V485.712H181.539V483.712ZM177.173 483.712V481.712H174.262V483.712V485.712H177.173V483.712ZM172.807 483.712V481.712H169.896V483.712V485.712H172.807V483.712ZM168.44 483.712V481.712H165.529V483.712V485.712H168.44V483.712ZM164.074 483.712V481.712H161.163V483.712V485.712H164.074V483.712ZM159.707 483.712V481.712H156.796V483.712V485.712H159.707V483.712ZM155.341 483.712V481.712H152.43V483.712V485.712H155.341V483.712ZM150.974 483.712V481.712H148.064V483.712V485.712H150.974V483.712ZM146.608 483.712V481.712H143.697V483.712V485.712H146.608V483.712ZM142.242 483.712V481.712H139.331V483.712V485.712H142.242V483.712ZM137.875 483.712V481.712H134.964V483.712V485.712H137.875V483.712ZM133.509 483.712V481.712H130.598V483.712V485.712H133.509V483.712ZM129.142 483.712V481.712H126.232V483.712V485.712H129.142V483.712ZM124.776 483.712V481.712H121.865V483.712V485.712H124.776V483.712ZM120.41 483.712V481.712H117.499V483.712V485.712H120.41V483.712ZM116.043 483.712V481.712H113.132V483.712V485.712H116.043V483.712ZM111.677 483.712V481.712H108.766V483.712V485.712H111.677V483.712ZM107.31 483.712V481.712H104.399V483.712V485.712H107.31V483.712ZM102.944 483.712V481.712H100.033V483.712V485.712H102.944V483.712ZM98.5776 483.712V481.712H95.6666V483.712V485.712H98.5776V483.712ZM94.2112 483.712V481.712H91.3002V483.712V485.712H94.2112V483.712ZM89.8448 483.712V481.712H86.9338V483.712V485.712H89.8448V483.712ZM85.4783 483.712V481.712H82.5674V483.712V485.712H85.4783V483.712ZM81.1119 483.712V481.712H78.201V483.712V485.712H81.1119V483.712ZM76.7455 483.712V481.712H73.8345V483.712V485.712H76.7455V483.712ZM72.3791 483.712V481.712H69.4681V483.712V485.712H72.3791V483.712ZM68.0126 483.712V481.712H65.1017V483.712V485.712H68.0126V483.712ZM63.6462 483.712V481.712H60.7353V483.712V485.712H63.6462V483.712ZM59.2798 483.712V481.712H56.3688V483.712V485.712H59.2798V483.712ZM54.9134 483.712V481.712H52.0024V483.712V485.712H54.9134V483.712ZM50.5469 483.712V481.712H47.636V483.712V485.712H50.5469V483.712ZM46.1805 483.712V481.712H43.2696V483.712V485.712H46.1805V483.712ZM41.8141 483.712V481.712H38.9031V483.712V485.712H41.8141V483.712ZM37.4477 483.712V481.712H34.5367V483.712V485.712H37.4477V483.712ZM33.0812 483.712V481.712H31.626V483.712V485.712H33.0812V483.712Z" fill="#E6E6E6" mask="url(#path-4-inside-1_233_2331)"/>
<path d="M10.3115 484.438C10.3115 479.088 14.6492 474.75 19.9999 474.75C25.3507 474.75 29.6883 479.088 29.6883 484.438C29.6883 489.789 25.3507 494.127 19.9999 494.127C14.6492 494.127 10.3115 489.789 10.3115 484.438Z" fill="#F3F3F3"/>
<path d="M352.312 484.438C352.312 479.088 356.649 474.75 362 474.75C367.351 474.75 371.688 479.088 371.688 484.438C371.688 489.789 367.351 494.127 362 494.127C356.649 494.127 352.312 489.789 352.312 484.438Z" fill="#F3F3F3"/>
</g>
</g>
<defs>
<filter id="filter0_d_233_2331" x="0" y="0" width="382" height="603" filterUnits="userSpaceOnUse" color-interpolation-filters="sRGB">
<feFlood flood-opacity="0" result="BackgroundImageFix"/>
<feColorMatrix in="SourceAlpha" type="matrix" values="0 0 0 0 0 0 0 0 0 0 0 0 0 0 0 0 0 0 127 0" result="hardAlpha"/>
<feOffset dy="4"/>
<feGaussianBlur stdDeviation="10"/>
<feComposite in2="hardAlpha" operator="out"/>
<feColorMatrix type="matrix" values="0 0 0 0 0.0705882 0 0 0 0 0.0705882 0 0 0 0 0.0705882 0 0 0 0.05 0"/>
<feBlend mode="normal" in2="BackgroundImageFix" result="effect1_dropShadow_233_2331"/>
<feBlend mode="normal" in="SourceGraphic" in2="effect1_dropShadow_233_2331" result="shape"/>
</filter>
<clipPath id="clip0_233_2331">
<path d="M20 31C20 22.7157 26.7157 16 35 16H347C355.284 16 362 22.7157 362 31V564C362 572.284 355.284 579 347 579H35C26.7157 579 20 572.284 20 564V31Z" fill="white"/>
</clipPath>
</defs>
</svg>
