<svg width="59" height="59" viewBox="0 0 59 59" fill="none" xmlns="http://www.w3.org/2000/svg">
<g clip-path="url(#clip0_39_1543)">
<path d="M35.5638 45.3746L38.0164 42.9219L34.3374 26.9796L41.0823 20.2347C41.5701 19.7469 41.8442 19.0852 41.8442 18.3952C41.8442 17.7053 41.5701 17.0436 41.0823 16.5557C40.5944 16.0678 39.9327 15.7938 39.2428 15.7938C38.5528 15.7938 37.8911 16.0678 37.4033 16.5557L30.6584 23.3006L14.716 19.6216L12.2634 22.0742L25.1399 28.8191L18.395 35.5639L14.1029 34.9508L12.2634 36.7903L17.7819 39.8561L20.8477 45.3746L22.6872 43.5351L22.0741 39.2429L28.8189 32.4981L35.5638 45.3746Z" fill="#CBDAF8"/>
</g>
<defs>
<clipPath id="clip0_39_1543">
<rect width="41.6232" height="41.6232" fill="white" transform="translate(29.4321) rotate(45)"/>
</clipPath>
</defs>
</svg>
