<svg width="12" height="12" viewBox="0 0 12 12" fill="none" xmlns="http://www.w3.org/2000/svg">
<path d="M5.75312 6.97812L1.46562 11.2656C1.30521 11.426 1.10104 11.5063 0.853125 11.5063C0.605208 11.5063 0.401041 11.426 0.240625 11.2656C0.080208 11.1052 0 10.901 0 10.6531C0 10.4052 0.080208 10.201 0.240625 10.0406L4.52813 5.75312L0.240625 1.46562C0.080208 1.30521 0 1.10104 0 0.853125C0 0.605208 0.080208 0.401041 0.240625 0.240625C0.401041 0.080208 0.605208 0 0.853125 0C1.10104 0 1.30521 0.080208 1.46562 0.240625L5.75312 4.52813L10.0406 0.240625C10.201 0.080208 10.4052 0 10.6531 0C10.901 0 11.1052 0.080208 11.2656 0.240625C11.426 0.401041 11.5063 0.605208 11.5063 0.853125C11.5063 1.10104 11.426 1.30521 11.2656 1.46562L6.97812 5.75312L11.2656 10.0406C11.426 10.201 11.5063 10.4052 11.5063 10.6531C11.5063 10.901 11.426 11.1052 11.2656 11.2656C11.1052 11.426 10.901 11.5063 10.6531 11.5063C10.4052 11.5063 10.201 11.426 10.0406 11.2656L5.75312 6.97812Z" fill="#121212"/>
</svg>
