<svg width="390" height="102" viewBox="0 0 390 102" fill="none" xmlns="http://www.w3.org/2000/svg">
<g clip-path="url(#clip0_323_6134)">
<path d="M35 67C43.8366 67 51 59.8366 51 51C51 42.1634 43.8366 35 35 35C26.1634 35 19 42.1634 19 51C19 59.8366 26.1634 67 35 67Z" fill="#030B1C" stroke="#0A2245" stroke-width="1.5"/>
<path d="M35 63C41.6274 63 47 57.6274 47 51C47 44.3726 41.6274 39 35 39C28.3726 39 23 44.3726 23 51C23 57.6274 28.3726 63 35 63Z" stroke="#0A1A30" stroke-width="0.8"/>
<path d="M35 37V40" stroke="#0D2A4A" stroke-width="0.8"/>
<path d="M44.8995 41.1006L42.7782 43.2219" stroke="#0D2A4A" stroke-width="0.8"/>
<path d="M49 51H46" stroke="#0D2A4A" stroke-width="0.8"/>
<path d="M44.8995 60.8996L42.7782 58.7783" stroke="#0D2A4A" stroke-width="0.8"/>
<path d="M35 65V62" stroke="#0D2A4A" stroke-width="0.8"/>
<path d="M25.1005 60.8996L27.2218 58.7783" stroke="#0D2A4A" stroke-width="0.8"/>
<path d="M21 51H24" stroke="#0D2A4A" stroke-width="0.8"/>
<path d="M25.1005 41.1006L27.2218 43.2219" stroke="#0D2A4A" stroke-width="0.8"/>
<path d="M35 51L28.5 62.2583" stroke="#1A7A35" stroke-width="1.5" stroke-linecap="round"/>
<path d="M35 53.5C36.3807 53.5 37.5 52.3807 37.5 51C37.5 49.6193 36.3807 48.5 35 48.5C33.6193 48.5 32.5 49.6193 32.5 51C32.5 52.3807 33.6193 53.5 35 53.5Z" fill="#040D20"/>
</g>
<g clip-path="url(#clip1_323_6134)">
<path d="M71 64C78.1797 64 84 58.1797 84 51C84 43.8203 78.1797 38 71 38C63.8203 38 58 43.8203 58 51C58 58.1797 63.8203 64 71 64Z" fill="#030B1C" stroke="#0A2245" stroke-width="1.5"/>
<path d="M71 60C75.9706 60 80 55.9706 80 51C80 46.0294 75.9706 42 71 42C66.0294 42 62 46.0294 62 51C62 55.9706 66.0294 60 71 60Z" stroke="#0A1A30" stroke-width="0.8"/>
<path d="M71 40V43" stroke="#0D2A4A" stroke-width="0.8"/>
<path d="M78.7782 43.2217L76.6569 45.343" stroke="#0D2A4A" stroke-width="0.8"/>
<path d="M82 51H79" stroke="#0D2A4A" stroke-width="0.8"/>
<path d="M78.7782 58.7785L76.6569 56.6572" stroke="#0D2A4A" stroke-width="0.8"/>
<path d="M71 62V59" stroke="#0D2A4A" stroke-width="0.8"/>
<path d="M63.2218 58.7785L65.3431 56.6572" stroke="#0D2A4A" stroke-width="0.8"/>
<path d="M60 51H63" stroke="#0D2A4A" stroke-width="0.8"/>
<path d="M63.2218 43.2217L65.3431 45.343" stroke="#0D2A4A" stroke-width="0.8"/>
<path d="M71 51L78.6604 57.4279" stroke="#1A6090" stroke-width="1.5" stroke-linecap="round"/>
<path d="M71 53.5C72.3807 53.5 73.5 52.3807 73.5 51C73.5 49.6193 72.3807 48.5 71 48.5C69.6193 48.5 68.5 49.6193 68.5 51C68.5 52.3807 69.6193 53.5 71 53.5Z" fill="#040D20"/>
</g>
<g filter="url(#filter0_i_323_6134)">
<mask id="path-25-inside-1_323_6134" fill="white">
<path d="M90 39C90 36.2386 92.2386 34 95 34H129C131.761 34 134 36.2386 134 39V63C134 65.7614 131.761 68 129 68H95C92.2386 68 90 65.7614 90 63V39Z"/>
</mask>
<path d="M90 39C90 36.2386 92.2386 34 95 34H129C131.761 34 134 36.2386 134 39V63C134 65.7614 131.761 68 129 68H95C92.2386 68 90 65.7614 90 63V39Z" fill="#010A1A"/>
<path d="M95 34V35H129V34V33H95V34ZM134 39H133V63H134H135V39H134ZM129 68V67H95V68V69H129V68ZM90 63H91V39H90H89V63H90ZM95 68V67C92.7909 67 91 65.2091 91 63H90H89C89 66.3137 91.6863 69 95 69V68ZM134 63H133C133 65.2091 131.209 67 129 67V68V69C132.314 69 135 66.3137 135 63H134ZM129 34V35C131.209 35 133 36.7909 133 39H134H135C135 35.6863 132.314 33 129 33V34ZM95 34V33C91.6863 33 89 35.6863 89 39H90H91C91 36.7909 92.7909 35 95 35V34Z" fill="#0A2040" mask="url(#path-25-inside-1_323_6134)"/>
<path d="M105.795 47.0879C104.529 47.0879 103.624 46.4111 103.58 45.4004H104.38C104.424 46.0068 105.03 46.3848 105.786 46.3848C106.621 46.3848 107.236 45.9277 107.236 45.2686C107.236 44.5742 106.683 44.082 105.689 44.082H105.171V43.3877H105.689C106.463 43.3877 106.999 42.957 106.999 42.2979C106.999 41.665 106.533 41.2344 105.812 41.2344C105.136 41.2344 104.512 41.6123 104.477 42.2363H103.712C103.756 41.2256 104.688 40.5488 105.821 40.5488C107.034 40.5488 107.772 41.3398 107.764 42.2539C107.772 42.9746 107.351 43.5107 106.683 43.6953V43.7393C107.509 43.8711 108.019 44.46 108.01 45.2686C108.019 46.3145 107.061 47.0879 105.795 47.0879ZM111.727 47.0879C110.575 47.0879 109.705 46.376 109.661 45.4004H110.426C110.487 45.9717 111.041 46.3936 111.727 46.3936C112.553 46.3936 113.15 45.7871 113.15 44.9873C113.15 44.1611 112.526 43.5547 111.674 43.5459C111.138 43.5371 110.725 43.7041 110.487 44.1172H109.723L110.171 40.6367H113.616V41.3398H110.83L110.593 43.2031H110.654C110.936 42.9834 111.366 42.834 111.814 42.834C113.027 42.834 113.924 43.7305 113.924 44.9697C113.924 46.2002 112.992 47.0879 111.727 47.0879ZM117.605 47.0879C116.19 47.0879 115.382 45.9014 115.382 43.8184C115.382 41.7529 116.208 40.5488 117.605 40.5488C119.003 40.5488 119.829 41.7529 119.829 43.8184C119.829 45.9014 119.012 47.0879 117.605 47.0879ZM117.605 46.3848C118.52 46.3848 119.056 45.4619 119.056 43.8184C119.056 42.1748 118.52 41.2344 117.605 41.2344C116.691 41.2344 116.146 42.1748 116.146 43.8184C116.146 45.4619 116.683 46.3848 117.605 46.3848ZM103.703 60V53.6367H104.494V56.7832H104.573L107.403 53.6367H108.44L105.777 56.5107L108.44 60H107.474L105.285 57.0557L104.494 57.9521V60H103.703ZM109.441 54.3398V53.6367H114.24V54.3398H112.245V60H111.445V54.3398H109.441ZM119.267 55.2363C119.196 54.6123 118.625 54.252 117.86 54.252C117.017 54.252 116.463 54.6914 116.463 55.2979C116.463 55.9658 117.21 56.2119 117.693 56.335L118.326 56.5107C119.012 56.6865 120.128 57.082 120.128 58.2686C120.128 59.3057 119.293 60.1143 117.816 60.1143C116.445 60.1143 115.593 59.4023 115.522 58.3477H116.331C116.401 59.0596 117.061 59.3936 117.816 59.3936C118.695 59.3936 119.354 58.9453 119.354 58.251C119.354 57.6357 118.766 57.3984 118.098 57.2051L117.315 56.9941C116.313 56.7041 115.698 56.1943 115.698 55.333C115.698 54.2607 116.656 53.5488 117.887 53.5488C119.117 53.5488 120.005 54.2695 120.04 55.2363H119.267Z" fill="#1A8A35"/>
</g>
<g filter="url(#filter1_di_323_6134)">
<g clip-path="url(#clip2_323_6134)">
<mask id="path-28-inside-2_323_6134" fill="white">
<path d="M141 15C141 11.134 144.134 8 148 8H242C245.866 8 249 11.134 249 15V87C249 90.866 245.866 94 242 94H148C144.134 94 141 90.866 141 87V15Z"/>
</mask>
<path d="M141 15C141 11.134 144.134 8 148 8H242C245.866 8 249 11.134 249 15V87C249 90.866 245.866 94 242 94H148C144.134 94 141 90.866 141 87V15Z" fill="url(#paint0_linear_323_6134)"/>
<path d="M196 93C216.987 93 234 75.9868 234 55C234 34.0132 216.987 17 196 17C175.013 17 158 34.0132 158 55C158 75.9868 175.013 93 196 93Z" stroke="#0A2040" stroke-width="0.8"/>
<path d="M196 83C211.464 83 224 70.464 224 55C224 39.536 211.464 27 196 27C180.536 27 168 39.536 168 55C168 70.464 180.536 83 196 83Z" stroke="#0A2040" stroke-width="0.8"/>
<path d="M196 73C205.941 73 214 64.9411 214 55C214 45.0589 205.941 37 196 37C186.059 37 178 45.0589 178 55C178 64.9411 186.059 73 196 73Z" stroke="#0A2040" stroke-width="0.8"/>
<path d="M196 64C200.971 64 205 59.9706 205 55C205 50.0294 200.971 46 196 46C191.029 46 187 50.0294 187 55C187 59.9706 191.029 64 196 64Z" stroke="#0A2040" stroke-width="0.8"/>
<path d="M158 55H234" stroke="#081830" stroke-width="0.5"/>
<path d="M196 17V93" stroke="#081830" stroke-width="0.5"/>
<path d="M169 28L223 82" stroke="#060E1C" stroke-width="0.5"/>
<path d="M223 28L169 82" stroke="#060E1C" stroke-width="0.5"/>
<path opacity="0.7" d="M196 55V17" stroke="#1560A0" stroke-width="1.5"/>
<path opacity="0.15" d="M196 55L172 19L196 17V55Z" fill="url(#paint1_linear_323_6134)"/>
<path d="M196 50L198.5 56.5L196 55.5L193.5 56.5L196 50Z" fill="#3A9ADF"/>
<path d="M190 56.5H202L200.5 58.5H191.5L190 56.5Z" fill="#3A9ADF"/>
<path d="M193.5 58.5H198.5L197.8 60.5H194.2L193.5 58.5Z" fill="#3A9ADF"/>
<path opacity="0.85" d="M210 39C211.105 39 212 38.1046 212 37C212 35.8954 211.105 35 210 35C208.895 35 208 35.8954 208 37C208 38.1046 208.895 39 210 39Z" fill="#1A8A35"/>
<path opacity="0.65" d="M180 46.5C180.828 46.5 181.5 45.8284 181.5 45C181.5 44.1716 180.828 43.5 180 43.5C179.172 43.5 178.5 44.1716 178.5 45C178.5 45.8284 179.172 46.5 180 46.5Z" fill="#1A8A35"/>
<path opacity="0.5" d="M214 65.1998C214.663 65.1998 215.2 64.6625 215.2 63.9998C215.2 63.3371 214.663 62.7998 214 62.7998C213.337 62.7998 212.8 63.3371 212.8 63.9998C212.8 64.6625 213.337 65.1998 214 65.1998Z" fill="#1A8A35"/>
</g>
<path d="M148 8V9H242V8V7H148V8ZM249 15H248V87H249H250V15H249ZM242 94V93H148V94V95H242V94ZM141 87H142V15H141H140V87H141ZM148 94V93C144.686 93 142 90.3137 142 87H141H140C140 91.4183 143.582 95 148 95V94ZM249 87H248C248 90.3137 245.314 93 242 93V94V95C246.418 95 250 91.4183 250 87H249ZM242 8V9C245.314 9 248 11.6863 248 15H249H250C250 10.5817 246.418 7 242 7V8ZM148 8V7C143.582 7 140 10.5817 140 15H141H142C142 11.6863 144.686 9 148 9V8Z" fill="#0A2240" mask="url(#path-28-inside-2_323_6134)"/>
</g>
<g filter="url(#filter2_i_323_6134)">
<mask id="path-46-inside-3_323_6134" fill="white">
<path d="M256 39C256 36.2386 258.239 34 261 34H295C297.761 34 300 36.2386 300 39V63C300 65.7614 297.761 68 295 68H261C258.239 68 256 65.7614 256 63V39Z"/>
</mask>
<path d="M256 39C256 36.2386 258.239 34 261 34H295C297.761 34 300 36.2386 300 39V63C300 65.7614 297.761 68 295 68H261C258.239 68 256 65.7614 256 63V39Z" fill="#010A1A"/>
<path d="M261 34V35H295V34V33H261V34ZM300 39H299V63H300H301V39H300ZM295 68V67H261V68V69H295V68ZM256 63H257V39H256H255V63H256ZM261 68V67C258.791 67 257 65.2091 257 63H256H255C255 66.3137 257.686 69 261 69V68ZM300 63H299C299 65.2091 297.209 67 295 67V68V69C298.314 69 301 66.3137 301 63H300ZM295 34V35C297.209 35 299 36.7909 299 39H300H301C301 35.6863 298.314 33 295 33V34ZM261 34V33C257.686 33 255 35.6863 255 39H256H257C257 36.7909 258.791 35 261 35V34Z" fill="#0A2040" mask="url(#path-46-inside-3_323_6134)"/>
<path d="M269.984 47H269.158L271.487 40.6367H272.322L274.651 47H273.816L273.184 45.207H270.626L269.984 47ZM270.863 44.5127H272.938L271.927 41.665H271.874L270.863 44.5127ZM276.013 47V40.6367H276.804V46.2969H279.757V47H276.013ZM280.116 41.3398V40.6367H284.915V41.3398H282.92V47H282.12V41.3398H280.116ZM271.795 60.0879C270.529 60.0879 269.624 59.4111 269.58 58.4004H270.38C270.424 59.0068 271.03 59.3848 271.786 59.3848C272.621 59.3848 273.236 58.9277 273.236 58.2686C273.236 57.5742 272.683 57.082 271.689 57.082H271.171V56.3877H271.689C272.463 56.3877 272.999 55.957 272.999 55.2979C272.999 54.665 272.533 54.2344 271.812 54.2344C271.136 54.2344 270.512 54.6123 270.477 55.2363H269.712C269.756 54.2256 270.688 53.5488 271.821 53.5488C273.034 53.5488 273.772 54.3398 273.764 55.2539C273.772 55.9746 273.351 56.5107 272.683 56.6953V56.7393C273.509 56.8711 274.019 57.46 274.01 58.2686C274.019 59.3145 273.061 60.0879 271.795 60.0879ZM277.727 60.0879C276.575 60.0879 275.705 59.376 275.661 58.4004H276.426C276.487 58.9717 277.041 59.3936 277.727 59.3936C278.553 59.3936 279.15 58.7871 279.15 57.9873C279.15 57.1611 278.526 56.5547 277.674 56.5459C277.138 56.5371 276.725 56.7041 276.487 57.1172H275.723L276.171 53.6367H279.616V54.3398H276.83L276.593 56.2031H276.654C276.936 55.9834 277.366 55.834 277.814 55.834C279.027 55.834 279.924 56.7305 279.924 57.9697C279.924 59.2002 278.992 60.0879 277.727 60.0879ZM283.605 60.0879C282.19 60.0879 281.382 58.9014 281.382 56.8184C281.382 54.7529 282.208 53.5488 283.605 53.5488C285.003 53.5488 285.829 54.7529 285.829 56.8184C285.829 58.9014 285.012 60.0879 283.605 60.0879ZM283.605 59.3848C284.52 59.3848 285.056 58.4619 285.056 56.8184C285.056 55.1748 284.52 54.2344 283.605 54.2344C282.691 54.2344 282.146 55.1748 282.146 56.8184C282.146 58.4619 282.683 59.3848 283.605 59.3848Z" fill="#1A8A35"/>
</g>
<g clip-path="url(#clip3_323_6134)">
<path d="M319 64C326.18 64 332 58.1797 332 51C332 43.8203 326.18 38 319 38C311.82 38 306 43.8203 306 51C306 58.1797 311.82 64 319 64Z" fill="#030B1C" stroke="#0A2245" stroke-width="1.5"/>
<path d="M319 60C323.971 60 328 55.9706 328 51C328 46.0294 323.971 42 319 42C314.029 42 310 46.0294 310 51C310 55.9706 314.029 60 319 60Z" stroke="#0A1A30" stroke-width="0.8"/>
<path d="M319 40V43" stroke="#0D2A4A" stroke-width="0.8"/>
<path d="M326.778 43.2217L324.657 45.343" stroke="#0D2A4A" stroke-width="0.8"/>
<path d="M330 51H327" stroke="#0D2A4A" stroke-width="0.8"/>
<path d="M326.778 58.7785L324.657 56.6572" stroke="#0D2A4A" stroke-width="0.8"/>
<path d="M319 62V59" stroke="#0D2A4A" stroke-width="0.8"/>
<path d="M311.222 58.7785L313.343 56.6572" stroke="#0D2A4A" stroke-width="0.8"/>
<path d="M308 51H311" stroke="#0D2A4A" stroke-width="0.8"/>
<path d="M311.222 43.2217L313.343 45.343" stroke="#0D2A4A" stroke-width="0.8"/>
<path d="M319 51L327.66 46" stroke="#1A6090" stroke-width="1.5" stroke-linecap="round"/>
<path d="M319 53.5C320.381 53.5 321.5 52.3807 321.5 51C321.5 49.6193 320.381 48.5 319 48.5C317.619 48.5 316.5 49.6193 316.5 51C316.5 52.3807 317.619 53.5 319 53.5Z" fill="#040D20"/>
</g>
<g clip-path="url(#clip4_323_6134)">
<path d="M355 67C363.837 67 371 59.8366 371 51C371 42.1634 363.837 35 355 35C346.163 35 339 42.1634 339 51C339 59.8366 346.163 67 355 67Z" fill="#030B1C" stroke="#0A2245" stroke-width="1.5"/>
<path d="M355 63C361.627 63 367 57.6274 367 51C367 44.3726 361.627 39 355 39C348.373 39 343 44.3726 343 51C343 57.6274 348.373 63 355 63Z" stroke="#0A1A30" stroke-width="0.8"/>
<path d="M355 37V40" stroke="#0D2A4A" stroke-width="0.8"/>
<path d="M364.9 41.1006L362.778 43.2219" stroke="#0D2A4A" stroke-width="0.8"/>
<path d="M369 51H366" stroke="#0D2A4A" stroke-width="0.8"/>
<path d="M364.9 60.8996L362.778 58.7783" stroke="#0D2A4A" stroke-width="0.8"/>
<path d="M355 65V62" stroke="#0D2A4A" stroke-width="0.8"/>
<path d="M345.101 60.8996L347.222 58.7783" stroke="#0D2A4A" stroke-width="0.8"/>
<path d="M341 51H344" stroke="#0D2A4A" stroke-width="0.8"/>
<path d="M345.101 41.1006L347.222 43.2219" stroke="#0D2A4A" stroke-width="0.8"/>
<path d="M355 51L359.446 63.216" stroke="#8A5A20" stroke-width="1.5" stroke-linecap="round"/>
<path d="M355 53.5C356.381 53.5 357.5 52.3807 357.5 51C357.5 49.6193 356.381 48.5 355 48.5C353.619 48.5 352.5 49.6193 352.5 51C352.5 52.3807 353.619 53.5 355 53.5Z" fill="#040D20"/>
</g>
<defs>
<filter id="filter0_i_323_6134" x="90" y="34" width="44" height="36" filterUnits="userSpaceOnUse" color-interpolation-filters="sRGB">
<feFlood flood-opacity="0" result="BackgroundImageFix"/>
<feBlend mode="normal" in="SourceGraphic" in2="BackgroundImageFix" result="shape"/>
<feColorMatrix in="SourceAlpha" type="matrix" values="0 0 0 0 0 0 0 0 0 0 0 0 0 0 0 0 0 0 127 0" result="hardAlpha"/>
<feOffset dy="2"/>
<feGaussianBlur stdDeviation="2.5"/>
<feComposite in2="hardAlpha" operator="arithmetic" k2="-1" k3="1"/>
<feColorMatrix type="matrix" values="0 0 0 0 0 0 0 0 0 0 0 0 0 0 0.117647 0 0 0 0.8 0"/>
<feBlend mode="normal" in2="shape" result="effect1_innerShadow_323_6134"/>
</filter>
<filter id="filter1_di_323_6134" x="133" y="0" width="124" height="102" filterUnits="userSpaceOnUse" color-interpolation-filters="sRGB">
<feFlood flood-opacity="0" result="BackgroundImageFix"/>
<feColorMatrix in="SourceAlpha" type="matrix" values="0 0 0 0 0 0 0 0 0 0 0 0 0 0 0 0 0 0 127 0" result="hardAlpha"/>
<feOffset/>
<feGaussianBlur stdDeviation="4"/>
<feComposite in2="hardAlpha" operator="out"/>
<feColorMatrix type="matrix" values="0 0 0 0 0.0392157 0 0 0 0 0.196078 0 0 0 0 0.470588 0 0 0 0.3 0"/>
<feBlend mode="normal" in2="BackgroundImageFix" result="effect1_dropShadow_323_6134"/>
<feBlend mode="normal" in="SourceGraphic" in2="effect1_dropShadow_323_6134" result="shape"/>
<feColorMatrix in="SourceAlpha" type="matrix" values="0 0 0 0 0 0 0 0 0 0 0 0 0 0 0 0 0 0 127 0" result="hardAlpha"/>
<feOffset dy="2"/>
<feGaussianBlur stdDeviation="4"/>
<feComposite in2="hardAlpha" operator="arithmetic" k2="-1" k3="1"/>
<feColorMatrix type="matrix" values="0 0 0 0 0 0 0 0 0 0 0 0 0 0 0.117647 0 0 0 0.9 0"/>
<feBlend mode="normal" in2="shape" result="effect2_innerShadow_323_6134"/>
</filter>
<filter id="filter2_i_323_6134" x="256" y="34" width="44" height="36" filterUnits="userSpaceOnUse" color-interpolation-filters="sRGB">
<feFlood flood-opacity="0" result="BackgroundImageFix"/>
<feBlend mode="normal" in="SourceGraphic" in2="BackgroundImageFix" result="shape"/>
<feColorMatrix in="SourceAlpha" type="matrix" values="0 0 0 0 0 0 0 0 0 0 0 0 0 0 0 0 0 0 127 0" result="hardAlpha"/>
<feOffset dy="2"/>
<feGaussianBlur stdDeviation="2.5"/>
<feComposite in2="hardAlpha" operator="arithmetic" k2="-1" k3="1"/>
<feColorMatrix type="matrix" values="0 0 0 0 0 0 0 0 0 0 0 0 0 0 0.117647 0 0 0 0.8 0"/>
<feBlend mode="normal" in2="shape" result="effect1_innerShadow_323_6134"/>
</filter>
<linearGradient id="paint0_linear_323_6134" x1="195" y1="8" x2="195" y2="94" gradientUnits="userSpaceOnUse">
<stop stop-color="#010B1C"/>
<stop offset="1" stop-color="#010810"/>
</linearGradient>
<linearGradient id="paint1_linear_323_6134" x1="196" y1="17" x2="196" y2="55" gradientUnits="userSpaceOnUse">
<stop stop-color="#1560A0"/>
<stop offset="1" stop-opacity="0"/>
</linearGradient>
<clipPath id="clip0_323_6134">
<rect width="34" height="34" fill="white" transform="translate(18 34)"/>
</clipPath>
<clipPath id="clip1_323_6134">
<rect width="28" height="28" fill="white" transform="translate(57 37)"/>
</clipPath>
<clipPath id="clip2_323_6134">
<path d="M141 15C141 11.134 144.134 8 148 8H242C245.866 8 249 11.134 249 15V87C249 90.866 245.866 94 242 94H148C144.134 94 141 90.866 141 87V15Z" fill="white"/>
</clipPath>
<clipPath id="clip3_323_6134">
<rect width="28" height="28" fill="white" transform="translate(305 37)"/>
</clipPath>
<clipPath id="clip4_323_6134">
<rect width="34" height="34" fill="white" transform="translate(338 34)"/>
</clipPath>
</defs>
</svg>
