<svg width="52" height="52" viewBox="0 0 52 52" fill="none" xmlns="http://www.w3.org/2000/svg">
<path d="M16.6875 43.125C15.6448 43.125 14.7525 42.7541 14.0106 42.0122C13.2687 41.2703 12.8971 40.3773 12.8958 39.3334V14.6875C12.3587 14.6875 11.9087 14.5055 11.546 14.1415C11.1833 13.7775 11.0013 13.3276 11 12.7917C10.9987 12.2558 11.1807 11.8058 11.546 11.4418C11.9113 11.0778 12.3612 10.8958 12.8958 10.8958H20.4792C20.4792 10.3587 20.6612 9.90874 21.0252 9.546C21.3892 9.18326 21.8391 9.00126 22.375 9H29.9584C30.4955 9 30.9461 9.182 31.3101 9.546C31.6741 9.91 31.8555 10.3599 31.8542 10.8958H39.4375C39.9747 10.8958 40.4253 11.0778 40.7893 11.4418C41.1533 11.8058 41.3346 12.2558 41.3334 12.7917C41.3321 13.3276 41.1501 13.7781 40.7874 14.1434C40.4246 14.5087 39.9747 14.69 39.4375 14.6875V39.3334C39.4375 40.3761 39.0666 41.269 38.3247 42.0122C37.5828 42.7553 36.6898 43.1263 35.6459 43.125H16.6875ZM35.6459 14.6875H16.6875V39.3334H35.6459V14.6875ZM23.7267 34.9976C24.0895 34.6336 24.2709 34.183 24.2709 33.6459V20.375C24.2709 19.8379 24.0889 19.3879 23.7248 19.0252C23.3608 18.6624 22.9109 18.4804 22.375 18.4792C21.8391 18.4779 21.3892 18.6599 21.0252 19.0252C20.6612 19.3904 20.4792 19.8404 20.4792 20.375V33.6459C20.4792 34.183 20.6612 34.6336 21.0252 34.9976C21.3892 35.3616 21.8391 35.543 22.375 35.5417C22.9109 35.5404 23.3615 35.3603 23.7267 34.9976ZM31.3101 34.9957C31.6728 34.6342 31.8542 34.1843 31.8542 33.6459V20.375C31.8542 19.8379 31.6722 19.3879 31.3082 19.0252C30.9442 18.6624 30.4942 18.4804 29.9584 18.4792C29.4225 18.4779 28.9725 18.6599 28.6085 19.0252C28.2445 19.3904 28.0625 19.8404 28.0625 20.375V33.6459C28.0625 34.183 28.2445 34.6336 28.6085 34.9976C28.9725 35.3616 29.4225 35.543 29.9584 35.5417C30.4942 35.5404 30.9448 35.3584 31.3101 34.9957Z" fill="#DD3232"/>
</svg>
