<svg width="79" height="79" viewBox="0 0 79 79" fill="none" xmlns="http://www.w3.org/2000/svg">
<mask id="path-1-inside-1_96_459" fill="white">
<path d="M0 39.3606C0 17.6223 17.6223 0 39.3606 0C61.0989 0 78.7212 17.6223 78.7212 39.3606C78.7212 61.0989 61.0989 78.7212 39.3606 78.7212C17.6223 78.7212 0 61.0989 0 39.3606Z"/>
</mask>
<path d="M39.3606 78.7212V77.7372C38.6864 77.7372 38.0163 77.7198 37.3508 77.6855L37.3001 78.6682L37.2494 79.6509C37.9487 79.687 38.6526 79.7052 39.3606 79.7052V78.7212ZM35.2451 78.5086L35.3468 77.5299C34.0018 77.3901 32.6776 77.181 31.3778 76.906L31.1742 77.8687L30.9705 78.8314C32.3374 79.1206 33.7296 79.3405 35.1434 79.4874L35.2451 78.5086ZM29.1696 77.3891L29.4237 76.4385C28.1217 76.0905 26.847 75.6757 25.6034 75.198L25.2505 76.1165L24.8977 77.0351C26.2055 77.5375 27.5462 77.9737 28.9155 78.3398L29.1696 77.3891ZM23.3468 75.3271L23.7476 74.4284C22.5197 73.8808 21.3258 73.2707 20.17 72.6019L19.6772 73.4536L19.1844 74.3054C20.3995 75.0085 21.6549 75.65 22.9461 76.2258L23.3468 75.3271ZM17.9211 72.3752L18.4577 71.5505C17.3329 70.8185 16.2487 70.0291 15.2094 69.1864L14.5896 69.9508L13.9699 70.7151C15.0623 71.6008 16.2019 72.4305 17.3844 73.2L17.9211 72.3752ZM13.0232 68.6116L13.6818 67.8806C12.6862 66.9835 11.7377 66.035 10.8406 65.0394L10.1096 65.698L9.37852 66.3567C10.3213 67.4031 11.3181 68.3999 12.3645 69.3427L13.0232 68.6116ZM8.77044 64.1316L9.53479 63.5119C8.69214 62.4725 7.90274 61.3883 7.17075 60.2635L6.34598 60.8002L5.52122 61.3369C6.2907 62.5193 7.12044 63.6589 8.00608 64.7513L8.77044 64.1316ZM5.26757 59.044L6.11929 58.5513C5.45053 57.3954 4.84036 56.2015 4.29283 54.9736L3.39412 55.3744L2.4954 55.7751C3.07117 57.0663 3.71275 58.3217 4.41584 59.5368L5.26757 59.044ZM2.60467 53.4707L3.52325 53.1178C3.04555 51.8742 2.63074 50.5995 2.2827 49.2975L1.33207 49.5516L0.381427 49.8057C0.74746 51.175 1.18372 52.5157 1.6861 53.8235L2.60467 53.4707ZM0.852504 47.5471L1.81521 47.3434C1.54026 46.0436 1.33107 44.7194 1.19132 43.3744L0.212574 43.4761L-0.766173 43.5778C-0.619282 44.9916 -0.399357 46.3838 -0.110206 47.7507L0.852504 47.5471ZM0.0530051 41.4211L1.03571 41.3704C1.00139 40.7049 0.984015 40.0348 0.984015 39.3606H0H-0.984015C-0.984015 40.0686 -0.965766 40.7725 -0.929704 41.4718L0.0530051 41.4211ZM0 39.3606H0.984015C0.984015 38.6864 1.00139 38.0163 1.03571 37.3508L0.0530051 37.3001L-0.929704 37.2494C-0.965766 37.9487 -0.984015 38.6526 -0.984015 39.3606H0ZM0.212574 35.2451L1.19132 35.3468C1.33107 34.0018 1.54026 32.6776 1.81521 31.3778L0.852504 31.1742L-0.110206 30.9705C-0.399356 32.3374 -0.619282 33.7296 -0.766172 35.1434L0.212574 35.2451ZM1.33207 29.1696L2.2827 29.4237C2.63074 28.1217 3.04555 26.847 3.52325 25.6034L2.60467 25.2505L1.6861 24.8977C1.18372 26.2055 0.747461 27.5462 0.381428 28.9155L1.33207 29.1696ZM3.39412 23.3468L4.29283 23.7476C4.84036 22.5197 5.45053 21.3258 6.11929 20.17L5.26757 19.6772L4.41584 19.1844C3.71275 20.3995 3.07117 21.6549 2.4954 22.9461L3.39412 23.3468ZM6.34598 17.9211L7.17075 18.4577C7.90274 17.3329 8.69213 16.2487 9.53479 15.2094L8.77043 14.5896L8.00608 13.9699C7.12044 15.0623 6.29069 16.2019 5.52121 17.3844L6.34598 17.9211ZM10.1096 13.0232L10.8406 13.6818C11.7377 12.6862 12.6862 11.7377 13.6818 10.8406L13.0232 10.1096L12.3645 9.37852C11.3181 10.3213 10.3213 11.3181 9.37852 12.3645L10.1096 13.0232ZM14.5896 8.77044L15.2094 9.53479C16.2487 8.69214 17.3329 7.90274 18.4577 7.17075L17.921 6.34598L17.3843 5.52122C16.2019 6.2907 15.0623 7.12044 13.9699 8.00608L14.5896 8.77044ZM19.6772 5.26757L20.17 6.11929C21.3258 5.45053 22.5197 4.84036 23.7476 4.29283L23.3468 3.39412L22.9461 2.4954C21.6549 3.07117 20.3995 3.71275 19.1844 4.41584L19.6772 5.26757ZM25.2505 2.60467L25.6034 3.52325C26.847 3.04555 28.1217 2.63074 29.4237 2.2827L29.1696 1.33207L28.9155 0.381427C27.5462 0.74746 26.2055 1.18372 24.8977 1.6861L25.2505 2.60467ZM31.1742 0.852504L31.3778 1.81521C32.6776 1.54026 34.0018 1.33107 35.3468 1.19132L35.2451 0.212574L35.1434 -0.766173C33.7296 -0.619282 32.3374 -0.399357 30.9705 -0.110206L31.1742 0.852504ZM37.3001 0.0530051L37.3508 1.03571C38.0163 1.00139 38.6864 0.984015 39.3606 0.984015V0V-0.984015C38.6526 -0.984015 37.9487 -0.965766 37.2494 -0.929704L37.3001 0.0530051ZM39.3606 0V0.984015C40.0348 0.984015 40.7049 1.00139 41.3704 1.03571L41.4211 0.0530051L41.4718 -0.929704C40.7725 -0.965766 40.0686 -0.984015 39.3606 -0.984015V0ZM43.4761 0.212574L43.3744 1.19132C44.7194 1.33107 46.0436 1.54026 47.3434 1.81521L47.5471 0.852504L47.7507 -0.110206C46.3838 -0.399356 44.9916 -0.619282 43.5778 -0.766172L43.4761 0.212574ZM49.5516 1.33207L49.2975 2.2827C50.5995 2.63074 51.8742 3.04555 53.1178 3.52325L53.4707 2.60467L53.8235 1.6861C52.5157 1.18372 51.175 0.747461 49.8057 0.381428L49.5516 1.33207ZM55.3744 3.39412L54.9736 4.29283C56.2015 4.84036 57.3954 5.45053 58.5512 6.11929L59.044 5.26757L59.5368 4.41584C58.3217 3.71275 57.0663 3.07117 55.7751 2.4954L55.3744 3.39412ZM60.8002 6.34598L60.2635 7.17075C61.3883 7.90274 62.4725 8.69213 63.5118 9.53479L64.1316 8.77043L64.7513 8.00608C63.6589 7.12044 62.5193 6.29069 61.3369 5.52121L60.8002 6.34598ZM65.698 10.1096L65.0394 10.8406C66.035 11.7377 66.9835 12.6862 67.8806 13.6818L68.6116 13.0232L69.3427 12.3645C68.3999 11.3181 67.4031 10.3213 66.3567 9.37852L65.698 10.1096ZM69.9508 14.5896L69.1864 15.2094C70.0291 16.2487 70.8185 17.3329 71.5505 18.4577L72.3752 17.921L73.2 17.3843C72.4305 16.2019 71.6008 15.0623 70.7151 13.9699L69.9508 14.5896ZM73.4536 19.6772L72.6019 20.17C73.2707 21.3258 73.8808 22.5197 74.4284 23.7476L75.3271 23.3468L76.2258 22.9461C75.65 21.6549 75.0085 20.3995 74.3054 19.1844L73.4536 19.6772ZM76.1165 25.2505L75.198 25.6034C75.6757 26.847 76.0905 28.1217 76.4385 29.4237L77.3891 29.1696L78.3398 28.9155C77.9737 27.5462 77.5375 26.2055 77.0351 24.8977L76.1165 25.2505ZM77.8687 31.1742L76.906 31.3778C77.181 32.6776 77.3901 34.0018 77.5299 35.3468L78.5086 35.2451L79.4874 35.1434C79.3405 33.7296 79.1206 32.3374 78.8314 30.9705L77.8687 31.1742ZM78.6682 37.3001L77.6855 37.3508C77.7198 38.0163 77.7372 38.6864 77.7372 39.3606H78.7212H79.7052C79.7052 38.6526 79.687 37.9487 79.6509 37.2494L78.6682 37.3001ZM78.7212 39.3606H77.7372C77.7372 40.0348 77.7198 40.7049 77.6855 41.3704L78.6682 41.4211L79.6509 41.4718C79.687 40.7725 79.7052 40.0686 79.7052 39.3606H78.7212ZM78.5086 43.4761L77.5299 43.3744C77.3901 44.7194 77.181 46.0436 76.906 47.3434L77.8687 47.5471L78.8314 47.7507C79.1206 46.3838 79.3405 44.9916 79.4874 43.5778L78.5086 43.4761ZM77.3891 49.5516L76.4385 49.2975C76.0905 50.5995 75.6757 51.8742 75.198 53.1178L76.1165 53.4707L77.0351 53.8235C77.5375 52.5157 77.9737 51.175 78.3398 49.8057L77.3891 49.5516ZM75.3271 55.3744L74.4284 54.9736C73.8808 56.2015 73.2707 57.3954 72.6019 58.5512L73.4536 59.044L74.3054 59.5368C75.0085 58.3217 75.65 57.0663 76.2258 55.7751L75.3271 55.3744ZM72.3752 60.8002L71.5505 60.2635C70.8185 61.3883 70.0291 62.4725 69.1864 63.5118L69.9508 64.1316L70.7151 64.7513C71.6008 63.6589 72.4305 62.5193 73.2 61.3369L72.3752 60.8002ZM68.6116 65.698L67.8806 65.0394C66.9835 66.035 66.035 66.9835 65.0394 67.8806L65.698 68.6116L66.3567 69.3427C67.4031 68.3999 68.3999 67.4031 69.3427 66.3567L68.6116 65.698ZM64.1316 69.9508L63.5119 69.1864C62.4725 70.0291 61.3883 70.8185 60.2635 71.5505L60.8002 72.3752L61.3369 73.2C62.5193 72.4305 63.6589 71.6008 64.7513 70.7151L64.1316 69.9508ZM59.044 73.4536L58.5513 72.6019C57.3954 73.2707 56.2015 73.8808 54.9736 74.4284L55.3744 75.3271L55.7751 76.2258C57.0663 75.65 58.3217 75.0085 59.5368 74.3054L59.044 73.4536ZM53.4707 76.1165L53.1178 75.198C51.8742 75.6757 50.5995 76.0905 49.2975 76.4385L49.5516 77.3891L49.8057 78.3398C51.175 77.9737 52.5157 77.5375 53.8235 77.0351L53.4707 76.1165ZM47.5471 77.8687L47.3434 76.906C46.0436 77.181 44.7194 77.3901 43.3744 77.5299L43.4761 78.5086L43.5778 79.4874C44.9916 79.3405 46.3838 79.1206 47.7507 78.8314L47.5471 77.8687ZM41.4211 78.6682L41.3704 77.6855C40.7049 77.7198 40.0348 77.7372 39.3606 77.7372V78.7212V79.7052C40.0686 79.7052 40.7725 79.687 41.4718 79.6509L41.4211 78.6682ZM39.3606 78.7212V76.7532C38.7033 76.7532 38.0501 76.7362 37.4015 76.7028L37.3001 78.6682L37.1988 80.6336C37.9149 80.6706 38.6356 80.6892 39.3606 80.6892V78.7212ZM35.2451 78.5086L35.4485 76.5511C34.1379 76.415 32.8477 76.2111 31.5815 75.9433L31.1742 77.8687L30.7668 79.7941C32.1672 80.0904 33.5935 80.3157 35.0417 80.4661L35.2451 78.5086ZM29.1696 77.3891L29.6778 75.4879C28.4095 75.1488 27.1677 74.7447 25.9562 74.2794L25.2505 76.1165L24.5448 77.9537C25.8848 78.4684 27.2584 78.9154 28.6614 79.2904L29.1696 77.3891ZM23.3468 75.3271L24.1483 73.5297C22.9521 72.9963 21.7889 72.4018 20.6628 71.7502L19.6772 73.4536L18.6916 75.1571C19.9364 75.8773 21.2225 76.5346 22.5453 77.1245L23.3468 75.3271ZM17.9211 72.3752L18.9944 70.7257C17.8984 70.0124 16.8419 69.2432 15.8291 68.4221L14.5896 69.9508L13.3502 71.4795C14.4691 72.3866 15.6364 73.2365 16.8477 74.0248L17.9211 72.3752ZM13.0232 68.6116L14.3405 67.1495C13.3702 66.2753 12.4459 65.351 11.5717 64.3807L10.1096 65.698L8.64746 67.0154C9.61311 68.0872 10.6341 69.1081 11.7058 70.0737L13.0232 68.6116ZM8.77044 64.1316L10.2991 62.8921C9.47799 61.8793 8.70877 60.8228 7.99552 59.7268L6.34598 60.8002L4.69645 61.8736C5.48467 63.0848 6.33459 64.2521 7.24173 65.371L8.77044 64.1316ZM5.26757 59.044L6.97102 58.0584C6.31942 56.9323 5.72496 55.7691 5.19155 54.5729L3.39412 55.3744L1.59669 56.1759C2.18658 57.4987 2.84386 58.7848 3.56412 60.0297L5.26757 59.044ZM2.60467 53.4707L4.44183 52.765C3.97647 51.5535 3.57238 50.3117 3.23334 49.0434L1.33207 49.5516L-0.569211 50.0598C-0.194181 51.4628 0.2528 52.8364 0.767522 54.1764L2.60467 53.4707ZM0.852504 47.5471L2.77792 47.1397C2.51006 45.8735 2.30624 44.5833 2.17007 43.2727L0.212574 43.4761L-1.74492 43.6795C-1.59446 45.1277 -1.36916 46.554 -1.07292 47.9544L0.852504 47.5471ZM0.0530051 41.4211L2.01842 41.3197C1.98497 40.6711 1.96803 40.0179 1.96803 39.3606H0H-1.96803C-1.96803 40.0856 -1.94935 40.8063 -1.91241 41.5224L0.0530051 41.4211ZM0 39.3606H1.96803C1.96803 38.7033 1.98497 38.0501 2.01842 37.4015L0.0530051 37.3001L-1.91241 37.1988C-1.94935 37.9149 -1.96803 38.6356 -1.96803 39.3606H0ZM0.212574 35.2451L2.17007 35.4485C2.30624 34.1379 2.51006 32.8477 2.77792 31.5815L0.852504 31.1742L-1.07292 30.7668C-1.36916 32.1672 -1.59446 33.5935 -1.74492 35.0417L0.212574 35.2451ZM1.33207 29.1696L3.23334 29.6778C3.57239 28.4095 3.97647 27.1677 4.44182 25.9562L2.60467 25.2505L0.76752 24.5448C0.252799 25.8848 -0.194181 27.2584 -0.56921 28.6614L1.33207 29.1696ZM3.39412 23.3468L5.19154 24.1483C5.72495 22.9521 6.31942 21.7889 6.97101 20.6628L5.26757 19.6772L3.56412 18.6916C2.84386 19.9364 2.18658 21.2225 1.59669 22.5453L3.39412 23.3468ZM6.34598 17.9211L7.99552 18.9944C8.70877 17.8984 9.47798 16.8419 10.2991 15.8291L8.77043 14.5896L7.24172 13.3502C6.33459 14.4691 5.48467 15.6364 4.69645 16.8477L6.34598 17.9211ZM10.1096 13.0232L11.5717 14.3405C12.4459 13.3702 13.3702 12.4459 14.3405 11.5717L13.0232 10.1096L11.7058 8.64746C10.6341 9.61311 9.6131 10.6341 8.64746 11.7058L10.1096 13.0232ZM14.5896 8.77044L15.8291 10.2991C16.8419 9.47799 17.8984 8.70877 18.9944 7.99552L17.921 6.34598L16.8477 4.69645C15.6364 5.48467 14.4691 6.33459 13.3502 7.24173L14.5896 8.77044ZM19.6772 5.26757L20.6628 6.97102C21.7889 6.31942 22.9521 5.72496 24.1483 5.19155L23.3468 3.39412L22.5453 1.59669C21.2225 2.18658 19.9364 2.84386 18.6916 3.56412L19.6772 5.26757ZM25.2505 2.60467L25.9562 4.44183C27.1677 3.97647 28.4095 3.57238 29.6779 3.23334L29.1696 1.33207L28.6614 -0.569211C27.2584 -0.194181 25.8848 0.2528 24.5448 0.767522L25.2505 2.60467ZM31.1742 0.852504L31.5815 2.77792C32.8477 2.51006 34.1379 2.30624 35.4485 2.17007L35.2451 0.212574L35.0417 -1.74492C33.5935 -1.59446 32.1673 -1.36916 30.7668 -1.07292L31.1742 0.852504ZM37.3001 0.0530051L37.4015 2.01842C38.0501 1.98497 38.7033 1.96803 39.3606 1.96803V0V-1.96803C38.6356 -1.96803 37.9149 -1.94935 37.1988 -1.91241L37.3001 0.0530051ZM39.3606 0V1.96803C40.0179 1.96803 40.6711 1.98497 41.3197 2.01842L41.4211 0.0530051L41.5224 -1.91241C40.8063 -1.94935 40.0856 -1.96803 39.3606 -1.96803V0ZM43.4761 0.212574L43.2727 2.17007C44.5834 2.30624 45.8735 2.51006 47.1397 2.77792L47.5471 0.852504L47.9544 -1.07292C46.554 -1.36916 45.1277 -1.59446 43.6795 -1.74492L43.4761 0.212574ZM49.5516 1.33207L49.0434 3.23334C50.3117 3.57239 51.5535 3.97647 52.765 4.44182L53.4707 2.60467L54.1764 0.76752C52.8364 0.252799 51.4628 -0.194181 50.0598 -0.56921L49.5516 1.33207ZM55.3744 3.39412L54.5729 5.19154C55.7691 5.72495 56.9323 6.31942 58.0584 6.97101L59.044 5.26757L60.0296 3.56412C58.7848 2.84386 57.4987 2.18658 56.1759 1.59669L55.3744 3.39412ZM60.8002 6.34598L59.7268 7.99552C60.8228 8.70877 61.8793 9.47798 62.8921 10.2991L64.1316 8.77043L65.371 7.24172C64.2521 6.33459 63.0848 5.48467 61.8736 4.69645L60.8002 6.34598ZM65.698 10.1096L64.3807 11.5717C65.351 12.4459 66.2753 13.3702 67.1495 14.3405L68.6116 13.0232L70.0737 11.7058C69.1081 10.6341 68.0872 9.6131 67.0154 8.64746L65.698 10.1096ZM69.9508 14.5896L68.4221 15.8291C69.2432 16.8419 70.0124 17.8984 70.7257 18.9944L72.3752 17.921L74.0248 16.8477C73.2365 15.6364 72.3866 14.4691 71.4795 13.3502L69.9508 14.5896ZM73.4536 19.6772L71.7502 20.6628C72.4018 21.7889 72.9963 22.9521 73.5297 24.1483L75.3271 23.3468L77.1245 22.5453C76.5346 21.2225 75.8773 19.9364 75.1571 18.6916L73.4536 19.6772ZM76.1165 25.2505L74.2794 25.9562C74.7447 27.1677 75.1488 28.4095 75.4879 29.6779L77.3891 29.1696L79.2904 28.6614C78.9154 27.2584 78.4684 25.8848 77.9537 24.5448L76.1165 25.2505ZM77.8687 31.1742L75.9433 31.5815C76.2111 32.8477 76.415 34.1379 76.5511 35.4485L78.5086 35.2451L80.4661 35.0417C80.3157 33.5935 80.0904 32.1673 79.7941 30.7668L77.8687 31.1742ZM78.6682 37.3001L76.7028 37.4015C76.7362 38.0501 76.7532 38.7033 76.7532 39.3606H78.7212H80.6892C80.6892 38.6356 80.6706 37.9149 80.6336 37.1988L78.6682 37.3001ZM78.7212 39.3606H76.7532C76.7532 40.0179 76.7362 40.6711 76.7028 41.3197L78.6682 41.4211L80.6336 41.5224C80.6706 40.8063 80.6892 40.0856 80.6892 39.3606H78.7212ZM78.5086 43.4761L76.5511 43.2727C76.415 44.5834 76.2111 45.8735 75.9433 47.1397L77.8687 47.5471L79.7941 47.9544C80.0904 46.554 80.3157 45.1277 80.4661 43.6795L78.5086 43.4761ZM77.3891 49.5516L75.4879 49.0434C75.1488 50.3117 74.7447 51.5535 74.2794 52.765L76.1165 53.4707L77.9537 54.1764C78.4684 52.8364 78.9154 51.4628 79.2904 50.0598L77.3891 49.5516ZM75.3271 55.3744L73.5297 54.5729C72.9963 55.7691 72.4018 56.9323 71.7502 58.0584L73.4536 59.044L75.1571 60.0296C75.8773 58.7848 76.5346 57.4987 77.1245 56.1759L75.3271 55.3744ZM72.3752 60.8002L70.7257 59.7268C70.0124 60.8228 69.2432 61.8793 68.4221 62.8921L69.9508 64.1316L71.4795 65.371C72.3866 64.2521 73.2365 63.0848 74.0248 61.8736L72.3752 60.8002ZM68.6116 65.698L67.1495 64.3807C66.2753 65.351 65.351 66.2753 64.3807 67.1495L65.698 68.6116L67.0154 70.0737C68.0872 69.1081 69.1081 68.0872 70.0737 67.0154L68.6116 65.698ZM64.1316 69.9508L62.8921 68.4221C61.8793 69.2432 60.8228 70.0124 59.7268 70.7257L60.8002 72.3752L61.8736 74.0248C63.0848 73.2365 64.2521 72.3866 65.371 71.4795L64.1316 69.9508ZM59.044 73.4536L58.0584 71.7502C56.9323 72.4018 55.7691 72.9963 54.5729 73.5297L55.3744 75.3271L56.1759 77.1245C57.4987 76.5346 58.7848 75.8773 60.0297 75.1571L59.044 73.4536ZM53.4707 76.1165L52.765 74.2794C51.5535 74.7447 50.3117 75.1488 49.0434 75.4879L49.5516 77.3891L50.0598 79.2904C51.4628 78.9154 52.8364 78.4684 54.1764 77.9537L53.4707 76.1165ZM47.5471 77.8687L47.1397 75.9433C45.8735 76.2111 44.5833 76.415 43.2727 76.5511L43.4761 78.5086L43.6795 80.4661C45.1277 80.3157 46.554 80.0904 47.9544 79.7941L47.5471 77.8687ZM41.4211 78.6682L41.3197 76.7028C40.6711 76.7362 40.0179 76.7532 39.3606 76.7532V78.7212V80.6892C40.0856 80.6892 40.8063 80.6706 41.5224 80.6336L41.4211 78.6682Z" fill="#B7B7B7" mask="url(#path-1-inside-1_96_459)"/>
<path d="M44.1713 50.1849V47.7795C44.1713 46.5036 43.6645 45.28 42.7623 44.3778C41.8601 43.4756 40.6365 42.9688 39.3606 42.9688H32.1445C30.8686 42.9688 29.645 43.4756 28.7428 44.3778C27.8406 45.28 27.3337 46.5036 27.3337 47.7795V50.1849" stroke="#B7B7B7" stroke-width="2.40537" stroke-linecap="round" stroke-linejoin="round"/>
<path d="M35.7525 38.1581C38.4094 38.1581 40.5633 36.0043 40.5633 33.3474C40.5633 30.6905 38.4094 28.5366 35.7525 28.5366C33.0956 28.5366 30.9418 30.6905 30.9418 33.3474C30.9418 36.0043 33.0956 38.1581 35.7525 38.1581Z" stroke="#B7B7B7" stroke-width="2.40537" stroke-linecap="round" stroke-linejoin="round"/>
<path d="M47.7794 34.5503V41.7664" stroke="#B7B7B7" stroke-width="2.40537" stroke-linecap="round" stroke-linejoin="round"/>
<path d="M51.3874 38.1582H44.1713" stroke="#B7B7B7" stroke-width="2.40537" stroke-linecap="round" stroke-linejoin="round"/>
</svg>
