<svg width="144" height="140" viewBox="0 0 144 140" fill="none" xmlns="http://www.w3.org/2000/svg">
<g filter="url(#filter0_d_323_6226)">
<g filter="url(#filter1_d_323_6226)">
<circle cx="70" cy="66" r="50" fill="#3A55A9" fill-opacity="0.3" shape-rendering="crispEdges"/>
</g>
<path d="M59.708 50.0525L61.4434 48.6164L71.5262 51.9683L76.2988 48.0192C76.644 47.7336 77.0885 47.5968 77.5346 47.6389C77.9807 47.681 78.3918 47.8986 78.6774 48.2438C78.9631 48.589 79.0999 49.0335 79.0578 49.4796C79.0156 49.9257 78.798 50.3368 78.4528 50.6224L73.6803 54.5715L75.0857 65.1035L73.3502 66.5395L69.7755 57.8025L65.0029 61.7516L65.1373 64.5641L63.8357 65.6411L62.1904 61.886L58.8096 59.567L60.1112 58.4899L62.8489 59.1484L67.6214 55.1993L59.708 50.0525Z" fill="#CBDAF8"/>
<path d="M48.1152 77.9492C49.3091 77.9492 50.2979 78.6377 50.8838 79.8242H54.1211V76.9678H55.498V90.1221H54.1211V85.083H50.9717C50.4077 86.4014 49.375 87.1631 48.1152 87.1631C46.1523 87.1631 44.7754 85.376 44.79 82.5488C44.7754 79.7363 46.1523 77.9492 48.1152 77.9492ZM48.1152 79.1943C46.9287 79.1943 46.1084 80.4834 46.1084 82.5488C46.1084 84.6289 46.9287 85.918 48.1152 85.918C49.3018 85.918 50.1221 84.6289 50.1221 82.5488C50.1221 80.4834 49.3018 79.1943 48.1152 79.1943ZM51.2793 80.9668C51.3745 81.4502 51.4404 81.9775 51.4404 82.5488C51.4404 83.0469 51.3965 83.5083 51.3086 83.9404H54.1211V80.9668H51.2793ZM68.7109 76.9678V85.2441H67.3926V81.582H65.8691V84.79H64.5654V77.2168H65.8691V80.4395H67.3926V76.9678H68.7109ZM64.082 78.4619V79.5605H57.4463V78.4619H60.0977V77.0703H61.4746V78.4619H64.082ZM60.7715 80.1758C62.4414 80.1758 63.6133 81.0693 63.6133 82.4316C63.6133 83.7939 62.4414 84.6875 60.7715 84.6875C59.1309 84.6875 57.959 83.7939 57.959 82.4316C57.959 81.0693 59.1309 80.1758 60.7715 80.1758ZM60.7715 81.2012C59.8486 81.2012 59.2041 81.6846 59.2041 82.4316C59.2041 83.1787 59.8486 83.6768 60.7715 83.6768C61.7236 83.6768 62.3535 83.1787 62.3535 82.4316C62.3535 81.6846 61.7236 81.2012 60.7715 81.2012ZM64.3164 85.4346C67.0996 85.4346 68.7695 86.2695 68.7842 87.7637C68.7695 89.2285 67.0996 90.0781 64.3164 90.0635C61.5332 90.0781 59.8633 89.2285 59.8779 87.7637C59.8633 86.2695 61.5332 85.4346 64.3164 85.4346ZM64.3164 86.5039C62.3682 86.5039 61.2402 86.9434 61.2549 87.7637C61.2402 88.5547 62.3682 89.0088 64.3164 88.9941C66.2793 89.0088 67.3779 88.5547 67.3926 87.7637C67.3779 86.9434 66.2793 86.5039 64.3164 86.5039ZM80.708 76.9678V82.1973H82.7441V83.3545H80.708V90.0781H79.3164V76.9678H80.708ZM77.2803 78.3447C77.2656 82.1387 75.5957 85.5225 71.2744 87.6611L70.498 86.5771C73.7866 84.9365 75.5737 82.5635 75.8594 79.502H71.1572V78.3447H77.2803ZM94.3604 76.9678V90.0928H92.9541V76.9678H94.3604ZM90.4492 78.374C90.4492 82.2119 88.8086 85.5518 84.3115 87.7051L83.5791 86.5771C87.0728 84.9146 88.772 82.5488 89.043 79.4873H84.209V78.374H90.4492Z" fill="#CBDAF8"/>
</g>
<defs>
<filter id="filter0_d_323_6226" x="0" y="0" width="140" height="140" filterUnits="userSpaceOnUse" color-interpolation-filters="sRGB">
<feFlood flood-opacity="0" result="BackgroundImageFix"/>
<feColorMatrix in="SourceAlpha" type="matrix" values="0 0 0 0 0 0 0 0 0 0 0 0 0 0 0 0 0 0 127 0" result="hardAlpha"/>
<feOffset dy="4"/>
<feGaussianBlur stdDeviation="10"/>
<feComposite in2="hardAlpha" operator="out"/>
<feColorMatrix type="matrix" values="0 0 0 0 0 0 0 0 0 0 0 0 0 0 0 0 0 0 0.25 0"/>
<feBlend mode="normal" in2="BackgroundImageFix" result="effect1_dropShadow_323_6226"/>
<feBlend mode="normal" in="SourceGraphic" in2="effect1_dropShadow_323_6226" result="shape"/>
</filter>
<filter id="filter1_d_323_6226" x="4" y="0" width="140" height="140" filterUnits="userSpaceOnUse" color-interpolation-filters="sRGB">
<feFlood flood-opacity="0" result="BackgroundImageFix"/>
<feColorMatrix in="SourceAlpha" type="matrix" values="0 0 0 0 0 0 0 0 0 0 0 0 0 0 0 0 0 0 127 0" result="hardAlpha"/>
<feOffset dx="4" dy="4"/>
<feGaussianBlur stdDeviation="10"/>
<feComposite in2="hardAlpha" operator="out"/>
<feColorMatrix type="matrix" values="0 0 0 0 0.6 0 0 0 0 0.713726 0 0 0 0 0.937255 0 0 0 0.3 0"/>
<feBlend mode="normal" in2="BackgroundImageFix" result="effect1_dropShadow_323_6226"/>
<feBlend mode="normal" in="BackgroundImageFix" in2="effect1_dropShadow_323_6226" result="BackgroundImageFix"/>
<feBlend mode="normal" in="SourceGraphic" in2="BackgroundImageFix" result="shape"/>
</filter>
</defs>
</svg>
