<svg width="37" height="37" viewBox="0 0 37 37" fill="none" xmlns="http://www.w3.org/2000/svg">
<path d="M18.4999 17.7293C17.4777 17.7293 16.4974 17.3233 15.7746 16.6005C15.0518 15.8777 14.6458 14.8974 14.6458 13.8752C14.6458 12.853 15.0518 11.8727 15.7746 11.1499C16.4974 10.4271 17.4777 10.021 18.4999 10.021C19.5221 10.021 20.5024 10.4271 21.2252 11.1499C21.948 11.8727 22.3541 12.853 22.3541 13.8752C22.3541 14.3813 22.2544 14.8825 22.0607 15.3501C21.867 15.8177 21.5831 16.2426 21.2252 16.6005C20.8673 16.9584 20.4425 17.2423 19.9748 17.4359C19.5072 17.6296 19.0061 17.7293 18.4999 17.7293ZM18.4999 3.0835C15.6378 3.0835 12.8929 4.22047 10.8691 6.2443C8.84523 8.26813 7.70825 11.013 7.70825 13.8752C7.70825 21.9689 18.4999 33.9168 18.4999 33.9168C18.4999 33.9168 29.2916 21.9689 29.2916 13.8752C29.2916 11.013 28.1546 8.26813 26.1308 6.2443C24.1069 4.22047 21.362 3.0835 18.4999 3.0835Z" fill="#CBDAF8"/>
</svg>
