<svg width="19" height="26" viewBox="0 0 19 26" fill="none" xmlns="http://www.w3.org/2000/svg">
<path d="M9.04167 12.2708C8.18524 12.2708 7.36389 11.9306 6.7583 11.325C6.15272 10.7194 5.8125 9.8981 5.8125 9.04167C5.8125 8.18524 6.15272 7.36389 6.7583 6.7583C7.36389 6.15272 8.18524 5.8125 9.04167 5.8125C9.8981 5.8125 10.7194 6.15272 11.325 6.7583C11.9306 7.36389 12.2708 8.18524 12.2708 9.04167C12.2708 9.46573 12.1873 9.88564 12.025 10.2774C11.8627 10.6692 11.6249 11.0252 11.325 11.325C11.0252 11.6249 10.6692 11.8627 10.2774 12.025C9.88564 12.1873 9.46573 12.2708 9.04167 12.2708ZM9.04167 0C6.64367 0 4.34388 0.952601 2.64824 2.64824C0.952601 4.34388 0 6.64367 0 9.04167C0 15.8229 9.04167 25.8333 9.04167 25.8333C9.04167 25.8333 18.0833 15.8229 18.0833 9.04167C18.0833 6.64367 17.1307 4.34388 15.4351 2.64824C13.7394 0.952601 11.4397 0 9.04167 0Z" fill="#0D2571"/>
</svg>
