<svg width="26" height="26" viewBox="0 0 26 26" fill="none" xmlns="http://www.w3.org/2000/svg">
<path d="M12.9167 0C20.0505 0 25.8333 5.78279 25.8333 12.9167C25.8333 20.0505 20.0505 25.8333 12.9167 25.8333C5.78279 25.8333 0 20.0505 0 12.9167C0 5.78279 5.78279 0 12.9167 0ZM12.9167 2.58333C10.1761 2.58333 7.54777 3.67202 5.6099 5.6099C3.67202 7.54777 2.58333 10.1761 2.58333 12.9167C2.58333 15.6572 3.67202 18.2856 5.6099 20.2234C7.54777 22.1613 10.1761 23.25 12.9167 23.25C15.6572 23.25 18.2856 22.1613 20.2234 20.2234C22.1613 18.2856 23.25 15.6572 23.25 12.9167C23.25 10.1761 22.1613 7.54777 20.2234 5.6099C18.2856 3.67202 15.6572 2.58333 12.9167 2.58333ZM12.9167 18.0833C13.2592 18.0833 13.5878 18.2194 13.83 18.4617C14.0722 18.7039 14.2083 19.0324 14.2083 19.375C14.2083 19.7176 14.0722 20.0461 13.83 20.2883C13.5878 20.5306 13.2592 20.6667 12.9167 20.6667C12.5741 20.6667 12.2456 20.5306 12.0033 20.2883C11.7611 20.0461 11.625 19.7176 11.625 19.375C11.625 19.0324 11.7611 18.7039 12.0033 18.4617C12.2456 18.2194 12.5741 18.0833 12.9167 18.0833ZM12.9167 5.8125C14.0046 5.81253 15.0586 6.19142 15.8976 6.88407C16.7365 7.57672 17.3081 8.5399 17.5141 9.60816C17.7201 10.6764 17.5477 11.7831 17.0265 12.738C16.5052 13.693 15.6677 14.4367 14.6578 14.8412C14.5082 14.8963 14.3734 14.9851 14.2639 15.1009C14.207 15.1655 14.198 15.2481 14.1993 15.3334L14.2083 15.5C14.208 15.8292 14.0819 16.1459 13.8559 16.3853C13.6299 16.6247 13.321 16.7687 12.9924 16.788C12.6637 16.8073 12.3401 16.7004 12.0876 16.4891C11.8352 16.2778 11.6729 15.978 11.634 15.6511L11.625 15.5V15.1771C11.625 13.6878 12.8263 12.794 13.6968 12.4439C14.0512 12.3024 14.3602 12.0671 14.5909 11.7632C14.8216 11.4593 14.9651 11.0983 15.0061 10.719C15.047 10.3396 14.9839 9.95633 14.8235 9.61018C14.663 9.26403 14.4113 8.96813 14.0954 8.75424C13.7794 8.54036 13.4112 8.41657 13.0302 8.39618C12.6492 8.37579 12.2699 8.45956 11.9329 8.6385C11.596 8.81744 11.3141 9.08479 11.1176 9.41183C10.9211 9.73888 10.8175 10.1133 10.8177 10.4948C10.8177 10.8374 10.6816 11.1659 10.4394 11.4081C10.1972 11.6504 9.86861 11.7865 9.52604 11.7865C9.18347 11.7865 8.85493 11.6504 8.6127 11.4081C8.37046 11.1659 8.23438 10.8374 8.23438 10.4948C8.23438 9.25297 8.72769 8.06201 9.60579 7.18391C10.4839 6.30581 11.6748 5.8125 12.9167 5.8125Z" fill="#3A55A9"/>
</svg>
