<svg width="140" height="140" viewBox="0 0 140 140" fill="none" xmlns="http://www.w3.org/2000/svg">
<g filter="url(#filter0_d_323_6231)">
<circle cx="66" cy="66" r="50" fill="#FCD080" fill-opacity="0.25" shape-rendering="crispEdges"/>
</g>
<path d="M55.708 60.7952L57.4434 62.2312L67.5262 58.8794L72.2988 62.8284C72.644 63.1141 73.0885 63.2509 73.5346 63.2088C73.9807 63.1667 74.3918 62.9491 74.6774 62.6039C74.9631 62.2587 75.0999 61.8141 75.0578 61.368C75.0156 60.922 74.798 60.5109 74.4528 60.2252L69.6803 56.2762L71.0857 45.7442L69.3502 44.3082L65.7755 53.0451L61.0029 49.096L61.1373 46.2835L59.8357 45.2065L58.1904 48.9616L54.8096 51.2807L56.1112 52.3577L58.8489 51.6993L63.6214 55.6483L55.708 60.7952Z" fill="#FCD080"/>
<path d="M51.6006 76.9678V90.0928H50.1943V76.9678H51.6006ZM40.4678 83.1494C42.1816 83.1494 44.1372 83.1348 46.0928 83.0322C46.415 81.2817 46.4736 79.978 46.5029 79.0771H41.6104V77.9492H47.8799V78.5498C47.8652 79.4141 47.8652 80.8862 47.5137 82.9443C48.1216 82.9077 48.7295 82.8564 49.3154 82.7979L49.4033 83.8379C48.1069 84.0137 46.7666 84.1235 45.4482 84.1895V89.3311H44.0566V84.248C42.8628 84.292 41.7129 84.3066 40.6582 84.3066L40.4678 83.1494ZM64.0078 77.583V78.5645C64.0078 79.5312 64.0078 80.6885 63.7148 82.2119H65.5312V83.3398H60.1992V85.5811H64.0664V90.0928H62.6748V86.6943H54.75V85.5811H58.8076V83.3398H53.5195V82.2119H62.3086C62.6162 80.7471 62.6309 79.6484 62.6309 78.7109H55.0283V77.583H64.0078ZM76.708 76.9678V82.2852H78.8174V83.4424H76.708V90.0928H75.3311V76.9678H76.708ZM74.1885 79.0186V80.1611H66.4102V79.0186H69.6475V77.1436H71.0391V79.0186H74.1885ZM70.3506 81.1279C72.2256 81.1279 73.6025 82.3877 73.6172 84.1748C73.6025 85.9766 72.2256 87.2217 70.3506 87.2363C68.4609 87.2217 67.084 85.9766 67.084 84.1748C67.084 82.3877 68.4609 81.1279 70.3506 81.1279ZM70.3506 82.2705C69.2373 82.2705 68.4023 83.0469 68.417 84.1748C68.4023 85.3174 69.2373 86.0791 70.3506 86.0645C71.4639 86.0791 72.2842 85.3174 72.2842 84.1748C72.2842 83.0469 71.4639 82.2705 70.3506 82.2705ZM90.3604 76.9678V90.0928H88.9541V76.9678H90.3604ZM86.4492 78.374C86.4492 82.2119 84.8086 85.5518 80.3115 87.7051L79.5791 86.5771C83.0728 84.9146 84.772 82.5488 85.043 79.4873H80.209V78.374H86.4492Z" fill="#FCD080"/>
<defs>
<filter id="filter0_d_323_6231" x="0" y="0" width="140" height="140" filterUnits="userSpaceOnUse" color-interpolation-filters="sRGB">
<feFlood flood-opacity="0" result="BackgroundImageFix"/>
<feColorMatrix in="SourceAlpha" type="matrix" values="0 0 0 0 0 0 0 0 0 0 0 0 0 0 0 0 0 0 127 0" result="hardAlpha"/>
<feOffset dx="4" dy="4"/>
<feGaussianBlur stdDeviation="10"/>
<feComposite in2="hardAlpha" operator="out"/>
<feColorMatrix type="matrix" values="0 0 0 0 0.988235 0 0 0 0 0.815686 0 0 0 0 0.501961 0 0 0 0.25 0"/>
<feBlend mode="normal" in2="BackgroundImageFix" result="effect1_dropShadow_323_6231"/>
<feBlend mode="normal" in="BackgroundImageFix" in2="effect1_dropShadow_323_6231" result="BackgroundImageFix"/>
<feBlend mode="normal" in="SourceGraphic" in2="BackgroundImageFix" result="shape"/>
</filter>
</defs>
</svg>
