<svg width="21" height="21" viewBox="0 0 21 21" fill="none" xmlns="http://www.w3.org/2000/svg">
<path d="M15.3409 6.81871C16.753 6.81871 17.8978 5.67399 17.8978 4.2619C17.8978 2.8498 16.753 1.70508 15.3409 1.70508C13.9288 1.70508 12.7841 2.8498 12.7841 4.2619C12.7841 5.67399 13.9288 6.81871 15.3409 6.81871Z" stroke="#121212" stroke-width="1.70455" stroke-linecap="round" stroke-linejoin="round"/>
<path d="M5.11364 12.7845C6.52573 12.7845 7.67046 11.6398 7.67046 10.2277C7.67046 8.81562 6.52573 7.6709 5.11364 7.6709C3.70155 7.6709 2.55682 8.81562 2.55682 10.2277C2.55682 11.6398 3.70155 12.7845 5.11364 12.7845Z" stroke="#121212" stroke-width="1.70455" stroke-linecap="round" stroke-linejoin="round"/>
<path d="M15.3409 18.7504C16.753 18.7504 17.8978 17.6056 17.8978 16.1935C17.8978 14.7814 16.753 13.6367 15.3409 13.6367C13.9288 13.6367 12.7841 14.7814 12.7841 16.1935C12.7841 17.6056 13.9288 18.7504 15.3409 18.7504Z" stroke="#121212" stroke-width="1.70455" stroke-linecap="round" stroke-linejoin="round"/>
<path d="M7.32104 11.5146L13.1421 14.9067" stroke="#121212" stroke-width="1.70455" stroke-linecap="round" stroke-linejoin="round"/>
<path d="M13.1335 5.54883L7.32104 8.94087" stroke="#121212" stroke-width="1.70455" stroke-linecap="round" stroke-linejoin="round"/>
</svg>
