<svg width="17" height="17" viewBox="0 0 17 17" fill="none" xmlns="http://www.w3.org/2000/svg">
<path d="M8.46648 10.2692L2.15686 16.5788C1.92078 16.8149 1.62033 16.933 1.25549 16.933C0.890643 16.933 0.590185 16.8149 0.354111 16.5788C0.118037 16.3428 0 16.0423 0 15.6775C0 15.3126 0.118037 15.0122 0.354111 14.7761L6.66373 8.46648L0.354111 2.15686C0.118037 1.92078 0 1.62033 0 1.25549C0 0.890643 0.118037 0.590185 0.354111 0.354111C0.590185 0.118037 0.890643 0 1.25549 0C1.62033 0 1.92078 0.118037 2.15686 0.354111L8.46648 6.66373L14.7761 0.354111C15.0122 0.118037 15.3126 0 15.6775 0C16.0423 0 16.3428 0.118037 16.5788 0.354111C16.8149 0.590185 16.933 0.890643 16.933 1.25549C16.933 1.62033 16.8149 1.92078 16.5788 2.15686L10.2692 8.46648L16.5788 14.7761C16.8149 15.0122 16.933 15.3126 16.933 15.6775C16.933 16.0423 16.8149 16.3428 16.5788 16.5788C16.3428 16.8149 16.0423 16.933 15.6775 16.933C15.3126 16.933 15.0122 16.8149 14.7761 16.5788L8.46648 10.2692Z" fill="white"/>
</svg>
