<svg xmlns="http://www.w3.org/2000/svg" width="1200" height="600"><g style="fill:#ffb700"><path d="M0 0h1200v600H0Z" style="fill:#ffb700"/><g style="fill:#ffb700"><path d="M50 50h330v500H50Z" style="fill:#ff5b00" transform="matrix(.94545 0 0 .976 8.727 7.2)"/><path d="M50 50h165v500H50Z" style="fill:#005641" transform="matrix(.94545 0 0 .976 8.727 7.2)"/></g><path d="M402.686-65.367h725.006v500.008H402.686Z" style="fill:#8d2029;stroke:#000;stroke-width:2.40177751;stroke-miterlimit:4;stroke-dasharray:none" transform="matrix(.98982 0 0 .97132 26.604 120.659)"/><g style="fill:#ffb700;stroke:#000;stroke-width:2.00148129;stroke-miterlimit:4;stroke-dasharray:none"><path d="M426.768 400.914c1.16 1.537-1.335 5.4-5.572 8.624a25 25 0 0 1-2.793 1.845c-.24 2.954-2.434 6.517-6.01 9.237-2.302 1.752-4.79 2.855-7.04 3.27-.432 4.03-3.23 8.632-7.778 12.093-2.562 1.95-5.321 3.262-7.953 3.919-.833 6.416-4.985 13.533-11.33 18.434h-19.96v-26.154c6.38-4.879 14.625-6.877 21.021-5.917 1.342-2.36 3.34-4.666 5.895-6.61 4.548-3.46 9.714-4.928 13.695-4.257 1.006-2.061 2.74-4.164 5.042-5.915 3.575-2.72 7.585-3.88 10.482-3.313a25 25 0 0 1 2.525-2.201c4.236-3.224 8.615-4.593 9.776-3.055z" style="stroke-width:2.00147835;stroke-miterlimit:4;stroke-dasharray:none" transform="matrix(1.18778 0 0 1.16558 -.43 8.604)"/><path d="M894.066 400.914c-1.16 1.537 1.336 5.4 5.572 8.624.937.713 1.88 1.325 2.794 1.845.238 2.954 2.434 6.517 6.009 9.238 2.302 1.752 4.79 2.854 7.04 3.269.432 4.03 3.23 8.632 7.778 12.093 2.562 1.95 5.321 3.262 7.954 3.919.832 6.416 4.984 13.534 11.33 18.434h19.96v-26.154c-6.381-4.878-14.626-6.876-21.022-5.916-1.341-2.36-3.34-4.666-5.895-6.61-4.548-3.461-9.714-4.928-13.695-4.257-1.006-2.062-2.74-4.165-5.042-5.916-3.575-2.72-7.585-3.88-10.482-3.312a25 25 0 0 0-2.525-2.202c-4.236-3.224-8.615-4.592-9.776-3.055zM894.066 99.086c-1.16-1.537 1.336-5.4 5.572-8.624a25 25 0 0 1 2.794-1.845c.238-2.954 2.434-6.517 6.009-9.237 2.302-1.752 4.79-2.855 7.04-3.27.432-4.03 3.23-8.632 7.778-12.093 2.562-1.949 5.321-3.261 7.954-3.919.832-6.416 4.984-13.533 11.33-18.434h19.96v26.154c-6.381 4.879-14.626 6.877-21.022 5.917-1.341 2.36-3.34 4.666-5.895 6.61-4.548 3.46-9.714 4.928-13.695 4.257-1.006 2.061-2.74 4.164-5.042 5.915-3.575 2.72-7.585 3.88-10.482 3.313a25 25 0 0 1-2.525 2.201c-4.236 3.224-8.615 4.593-9.776 3.055zM426.768 99.086c1.16-1.537-1.336-5.4-5.572-8.624a25 25 0 0 0-2.793-1.845c-.24-2.954-2.434-6.517-6.01-9.237-2.302-1.752-4.79-2.855-7.04-3.27-.432-4.03-3.23-8.632-7.778-12.093-2.562-1.949-5.321-3.261-7.954-3.919-.832-6.416-4.984-13.533-11.33-18.434h-19.96v26.154c6.382 4.879 14.626 6.877 21.022 5.917 1.342 2.36 3.34 4.666 5.895 6.61 4.548 3.46 9.714 4.928 13.695 4.257 1.006 2.061 2.74 4.164 5.042 5.915 3.575 2.72 7.585 3.88 10.482 3.313a25 25 0 0 0 2.525 2.201c4.236 3.224 8.615 4.593 9.776 3.055z" style="stroke-width:2.00148749;stroke-miterlimit:4;stroke-dasharray:none" transform="matrix(1.18778 0 0 1.16558 -.43 8.604)"/></g><path d="m693.64 475.987 3.884-2.368 1.662 2.373c2.214 3.16 8.34 3.125 12.404-.073l3.108-2.445 2.603 2.445c3.421 3.214 9.811 3.219 13.892.012 2.856-2.247 3.254-2.292 5.143-.583 1.126 1.02 4.429 2.18 7.339 2.578 5.242.719 5.321.68 8.388-4.179 2.568-4.069 2.97-5.715 2.357-9.661-.406-2.616-.844-6.827-.972-9.357-.233-4.581-.208-4.61 6.112-6.933 3.49-1.284 7.53-3.005 8.978-3.825 2.524-1.43 9.482-10.066 9.482-11.768 0-.451-2.718-1.142-6.04-1.536-13.217-1.565-15.455-9.059-6.864-22.977 14.012-22.7 22.467-44.807 22.523-58.89.026-6.294.365-8.407 1.131-7.039 3.13 5.594-2.478 29.05-10.973 45.893l-3.42 6.782 3.263-.793c1.796-.436 12.35-5.139 23.456-10.45 30.397-14.536 40.837-17.385 60.509-16.51 16.48.733 23.5 4.133 35.136 17.02 6.164 6.827 12.102 11.712 22.965 18.892 23.144 15.296 24.11 16.621 25.21 34.61 1.115 18.227.56 19.216-12.496 22.261-11.159 2.603-18.155 8.096-20.031 15.728-1.002 4.075 1.107 4.192 6.732.374l4.124-2.798 1.833 2.798c2.41 3.679 7.533 3.694 11.788.034l3.213-2.764 3.285 2.764c5.105 4.295 11.892 3.253 13.808-2.119.368-1.032 1.351-.702 3.341 1.125 3.73 3.422 13.288 4.89 14.321 2.199.394-1.027-.354-3.562-1.663-5.634-5.562-8.806-7.302-13.005-7.374-17.799-.1-6.667 1.783-9.883 8.965-15.305 8.723-6.587 11.42-15.084 4.785-15.084-4.096 0-8.226-3.823-10.859-10.054-5.353-12.664-4.304-26.862 3.73-50.481 8.161-23.99 9.066-28.414 9.099-44.46.026-12.973-.283-15.216-3.078-22.329-1.71-4.348-5.177-10.823-7.707-14.389l-4.598-6.482 5.904-5.166c18.029-15.77 14.34-41.582-7.362-51.527-6.64-3.042-8.299-3.311-19.934-3.228-6.98.05-17.624 1.02-23.653 2.155-6.146 1.158-16.55 2.09-23.688 2.12-11.337.047-13.262-.248-17.631-2.703-4.556-2.56-5.337-3.777-6.23-9.695-.183-1.217-.988-2.43-1.79-2.697-1.549-.516-8.705 6.042-9.763 8.947-.521 1.434-.947 1.334-2.478-.577-1.016-1.269-2.435-4.185-3.153-6.48-1.806-5.772.412-10.1 6.837-13.342l4.986-2.516-2.94-1.926c-6.066-3.975-16.381-1.256-20.111 5.301-1.056 1.855-2.207 3.376-2.558 3.38-.352.002-2.357-1.765-4.457-3.932-7.833-8.081-5.139-20.037 5.337-23.687 5.587-1.946 10.53-.461 11.559 3.472 1.57 6.005 6.452-1.889 5.576-9.017-.582-4.74-.495-4.904 2.611-4.904 4.32 0 13.512 5.986 16.355 10.65 3.303 5.416 3.062 13.945-.572 20.302l-2.853 4.992 3.732-.79c5.474-1.157 10.792-4.746 13.482-9.1 2.844-4.601 3.15-13.562.628-18.397-2.444-4.687-2.163-5.43 1.45-3.847 6.145 2.693 9.43 5.664 11.894 10.755 2.22 4.584 2.344 5.723 1.142 10.495-.741 2.944-2.39 6.817-3.665 8.607-1.985 2.787-2.052 3.254-.471 3.254 2.945 0 9.094-2.943 11.278-5.397 1.103-1.24 2.712-4.294 3.575-6.786l1.568-4.531 1.803 3.453c2.549 4.884 7.505 9.28 13.546 12.014 6.499 2.942 9.205 3.108 5.807.356-2.292-1.856-6.514-14.938-5.235-16.218.753-.753 9.576 6.415 19.65 15.964 9.528 9.032 15.516 11.991 24.268 11.991 11.18 0 17.69-10.276 12.665-19.993-2.93-5.665-9.456-6.452-13.272-1.6-1.755 2.23-2.237 4.005-1.723 6.345.63 2.867.384 3.249-2.09 3.249-3.249 0-9.655-4.39-21.032-14.415-17.35-15.286-38.43-28.243-53.651-32.976-9.769-3.037-30.636-4.222-40.566-2.304-10.747 2.077-23.459 8.57-30.384 15.523-12.271 12.319-12.466 28.712-.518 43.64l3.422 4.276-2.317 3.8c-3.37 5.529-3.082 12.97.716 18.45 1.673 2.413 3.36 4.387 3.75 4.386s.817-1.553.95-3.449c.335-4.795 2.284-8.007 5.629-9.28 3.013-1.145 4.96-.604 18.756 5.21 14.514 6.117 38.382 6.538 63.762 1.124 12.442-2.654 27.113-2.498 33.568.357 11.832 5.234 14.574 18.85 5.877 29.186-3.765 4.475-7.397 6.297-19.588 9.83-9.277 2.688-11.474 2.867-32.56 2.645-18.014-.19-24.489.175-31.842 1.796-7.983 1.76-12.893 1.938-36.344 1.314l-27.114-.722 3.007 2.63c1.653 1.445 3.99 3.224 5.192 3.952 2.045 1.24 1.977 1.406-1.063 2.596-1.786.7-5.751 1.272-8.81 1.272h-5.564l-.748 4.992c-.412 2.745-.38 5.95.069 7.123.663 1.729.416 1.977-1.31 1.315-1.17-.45-4.428-1.332-7.24-1.963-2.813-.63-6.599-1.913-8.413-2.852-3.052-1.578-3.39-1.535-4.515.565-1.003 1.875-10.426 9.28-11.81 9.28-.222 0-.51-1.427-.64-3.172-.128-1.745-1.488-6.289-3.02-10.096s-3.133-7.961-3.557-9.23c-.638-1.915-.927-2.013-1.697-.577-.511.952-1.256 3.548-1.657 5.769-.4 2.22-1.82 5.829-3.155 8.018l-2.427 3.98-1.548-3.403c-1.662-3.653-4.421-7.441-5.42-7.441-.337 0-.911 1.168-1.276 2.596-.761 2.981-7.303 11.249-8.901 11.249-.589 0-1.07-2.336-1.07-5.192s-.52-5.192-1.154-5.192-1.154.739-1.154 1.642c0 2.195-5.587 8.742-7.46 8.742-.818 0-2.134.779-2.924 1.73-2.06 2.482-3.744 2.134-2.878-.594.406-1.28.142-4.265-.587-6.635s-1.504-4.891-1.722-5.604c-.275-.898-2.277-.66-6.515.774-6.847 2.319-9.143 1.908-5.62-1.004 1.287-1.065 3.245-4.752 4.35-8.195 1.107-3.443 2.738-6.497 3.627-6.788 1.244-.407 1.178.096-.289 2.19-1.047 1.494-1.907 3.51-1.91 4.48 0 .97-.793 3.267-1.752 5.107-.96 1.84-1.562 3.526-1.34 3.749.222.222 2.828-.823 5.79-2.323l5.385-2.726.022 2.439c.013 1.341.661 4.88 1.442 7.864l1.42 5.426 3.666-1.78c3.747-1.818 7.295-8.3 7.295-13.325 0-2.484 1.348-2.103 1.9.538.162.774 1.008 3.683 1.88 6.462l1.585 5.054 2.51-3.19c1.38-1.756 3.111-5.198 3.846-7.65 1.275-4.258 3.278-6.088 3.278-2.997 0 2.228 5.758 10.218 6.869 9.532.537-.332 1.606-3.33 2.375-6.664 1.601-6.933 4.184-11.648 5.825-10.633.617.38.857 1.121.534 1.644-.324.523 1.002 5.03 2.947 10.016a4683 4683 0 0 1 4.338 11.155c.71 1.847 1.352 1.578 5.52-2.308 2.594-2.419 4.948-5.126 5.231-6.017.429-1.346 1.007-1.297 3.433.293 3.392 2.222 14.795 5.803 15.676 4.922.33-.33.668-3.492.751-7.027l.152-6.428 3.28.718c1.803.395 5.595.37 8.427-.054l5.148-.772-4.588-3.323c-2.524-1.828-5.075-4.194-5.67-5.257-.634-1.133-2.88-2.095-5.424-2.323-6.874-.617-19.057-7.832-19.057-11.286 0-.648 1.688.454 3.75 2.45 4.575 4.428 10.932 7.208 16.483 7.208h4.154l-2.57-3.61c-1.476-2.072-2.8-6.004-3.11-9.24-.496-5.156-1.011-5.976-6.11-9.72-3.064-2.248-6.858-5.618-8.432-7.489l-2.862-3.4-1.46 4.037c-.803 2.221-1.784 4.038-2.18 4.038s-1.941-1.298-3.432-2.884-3.008-2.878-3.374-2.871c-.365.007-1.685 2.144-2.933 4.748l-2.27 4.736-1.754-2.73c-.965-1.5-3.243-4.157-5.064-5.902-1.82-1.745-2.777-3.173-2.127-3.173s2.897 1.818 4.993 4.04l3.81 4.04 1.55-2.96c.921-1.757 1.266-4.455.849-6.636-.608-3.18-.522-3.364.632-1.368.734 1.269 2.964 3.702 4.954 5.407l3.619 3.1 2.497-4.831c2.486-4.807 2.503-4.816 3.634-1.946 1.512 3.84 12.457 13.312 21.774 18.846 1.436.853.83-2.08-1.822-8.825-.702-1.787-1.277-5.007-1.277-7.157 0-3.19-.871-4.609-4.734-7.713-5.577-4.481-7.38-7.668-8.432-14.898-.426-2.928-1.402-6.185-2.169-7.238-1.138-1.561-1.326-.687-1.021 4.748.205 3.664-.246 8.219-1.003 10.123l-1.376 3.46-1.064-2.884c-.585-1.586-3.172-4.345-5.75-6.13s-4.387-3.547-4.02-3.913c.366-.367 3.018 1.26 5.892 3.616 4.38 3.588 5.344 3.977 5.95 2.396.713-1.857 0-9.936-1.377-15.583-.687-2.82-.627-2.804 2.667.673 2.43 2.565 3.773 5.624 4.813 10.961 1.322 6.78 1.99 7.91 7.927 13.414 3.566 3.306 6.669 5.825 6.896 5.598.226-.227.676-8.778 1-19.003.619-19.608-.081-24.274-4.553-30.332l-2.298-3.112 3.612-4.114c4.712-5.367 6.876-9.67 7.814-15.538l.764-4.775-4.077 4.077c-3.338 3.338-4.932 4.076-8.798 4.076-3.828 0-5.323-.677-7.903-3.58-3.095-3.482-8.58-6.833-13.854-8.464-1.949-.603-2.597-.34-2.597 1.052 0 1.02-1.076 3.963-2.391 6.542l-2.392 4.688-5.01-5.23c-3.074-3.208-6.722-5.705-9.435-6.458-6.933-1.925-7.309-1.734-7.309 3.72 0 8.273-3.345 9.814-9.365 4.315-4.59-4.191-8.396-5.103-17.099-4.093l-6.721.78 1.21 3.204c1.01 2.676.782 3.803-1.383 6.843-3.51 4.93-8.074 7.065-15.1 7.065-3.236 0-7.286.707-9 1.572-1.713.864-5.97 1.86-9.46 2.212s-7.211.982-8.268 1.399c-1.653.652-1.834.115-1.302-3.855.815-6.076-3.204-10.558-9.468-10.558-8.128 0-11.877 7.676-8.694 17.802.613 1.949 1.414 5.022 1.781 6.83.381 1.875 4.042 6.851 8.526 11.588 4.322 4.567 8.407 9.318 9.078 10.56.67 1.24 2.887 3.232 4.926 4.425l3.708 2.17-.49-4.19c-.537-4.602.413-5.324 2.733-2.076.829 1.161 2.935 3.038 4.68 4.17 2.75 1.785 3.173 1.822 3.173.272 0-.983.56-3.25 1.245-5.036l1.246-3.248 2.16 4.42c1.189 2.43 5.054 7.954 8.589 12.275 6.86 8.384 11.039 17.754 8.882 19.91-.875.876-3.24.808-8.142-.232-3.8-.807-8.5-1.233-10.444-.948-3.972.583-4.284.042-1.842-3.187 2.578-3.408 2.168-3.97-2.896-3.97-5.86 0-20.405-2.966-25.989-5.299-5.43-2.268-6.682-1.704-8.28 3.734-.72 2.447-2.036 6.881-2.926 9.853l-1.619 5.405 5.874-.597c3.231-.329 7.386-1.076 9.234-1.66 1.848-.585 3.528-.895 3.733-.69.205.204-.62 2.316-1.83 4.692l-2.203 4.32 3.662-.788c2.014-.433 5.045-1.494 6.735-2.357 2.94-1.502 3.176-1.393 5.495 2.538 2.852 4.833 5.133 4.635 5.64-.491.523-5.3 2.174-4.516 5.28 2.507 2.985 6.752 6.092 9.136 6.69 5.133.197-1.329 1.806-3.492 3.574-4.808 3.576-2.66 6.271-1.862 7.816 2.315 1.6 4.324-1.968 8.78-12.343 15.421-20.785 13.303-32.866 31.497-36.315 54.688-3.111 20.916 6.605 42.53 26.097 58.055 9.328 7.43 24.147 15.27 23.205 12.279-3.999-12.706-3.867-36.95.223-41.04.614-.614.403 1.916-.47 5.622-3.247 13.803-1.836 24.802 6.49 50.58 7.529 23.316 6.487 33.28-4.17 39.867-3.423 2.115-5.627 2.464-14.83 2.346-9.985-.128-11.073.084-14.279 2.781-3.108 2.616-7.137 11.202-7.137 15.209 0 2.17 2.283 1.883 6.768-.852zm80.919-202.204c0-1.692-4.708-6.28-9.478-9.236-3.747-2.32-4.366-2.391-4.374-.498-.013 2.874-2.433 10.095-3.384 10.095-.536 0-1.329-1.41-1.762-3.135s-2.249-5.124-4.035-7.554l-3.25-4.418-2.529 4.093c-2.358 3.816-6.443 7.553-8.256 7.553-.433 0-.518-2.01-.188-4.465.357-2.669.082-4.786-.687-5.26-.707-.438-1.286-.285-1.286.338 0 1.438-5.673 8.233-6.873 8.233-.495 0-1.187-1.947-1.539-4.326-.352-2.38-.95-6.144-1.328-8.365-.38-2.221.429-.715 1.795 3.347l2.485 7.385 2.724-4.5c1.498-2.476 2.727-5.181 2.73-6.012 0-.83.51-1.199 1.127-.818.616.381 1.473 3.357 1.905 6.613l.786 5.92 2.997-3.471c1.65-1.909 3.581-4.464 4.294-5.679 1.271-2.167 1.343-2.165 3.873.1 1.417 1.269 3.596 4.304 4.842 6.746 1.246 2.44 2.432 4.258 2.636 4.038.203-.22.66-2.737 1.014-5.593.355-2.855.67-5.297.703-5.427.176-.707 9.03 5.37 12.306 8.447 2.106 1.977 4.106 3.319 4.444 2.98s.615-3.256.615-6.484c0-5.002-.502-6.343-3.4-9.078-3.33-3.144-3.424-3.161-4.655-.861-1.598 2.985-3.482 3.028-3.482.08 0-2.153-6.296-10.425-7.934-10.425-.425 0-1.75 1.817-2.947 4.038-1.196 2.222-2.482 4.037-2.858 4.034-1.615-.01-10.49-10.46-10.487-12.345 0-1.5.599-1.116 2.155 1.389 1.182 1.904 3.544 4.746 5.248 6.315 3.45 3.18 4.705 2.406 6.037-3.72.38-1.744 1.039-3.172 1.465-3.172 1.476 0 9.202 8.665 10.289 11.538l1.09 2.884.827-3.173c1.01-3.88 2.125-4.024 3.738-.484.674 1.48 4.003 4.554 7.397 6.834l6.17 4.144 1.24-4.168c.68-2.293 1.583-3.61 2.005-2.928.628 1.018-.976 7.924-2.186 9.41-.181.223-2.181-1.007-4.444-2.733l-4.114-3.137-.016 5.617c-.012 3.09-.329 6.786-.712 8.213-.748 2.792-2.734 3.577-2.734 1.082zm-30.77-44.787c-7.335-6.466-8.448-7.945-8.286-11.01l.173-3.261.478 3.15c.28 1.84 2.233 4.596 4.695 6.625l4.216 3.475 2.59-3.164c1.426-1.74 2.61-3.813 2.633-4.606.06-2.068.411-1.895 5.377 2.655 4.412 4.042 4.48 4.061 5.137 1.442.365-1.46.236-4.209-.289-6.108-1.441-5.222-1.159-6.01 1.025-2.86 1.089 1.568 2.839 3.786 3.89 4.928 1.828 1.988 1.94 1.963 2.62-.577.39-1.459.717-4.13.726-5.935l.016-3.282 3.978 4.761c3.716 4.448 4.058 4.612 5.192 2.493.668-1.248 1.222-4.25 1.232-6.671.013-3.128.325-3.917 1.078-2.726 1.258 1.988.385 7.404-1.939 12.019l-1.667 3.311-2.19-3.6c-2.798-4.603-3.73-4.529-5.527.439-1.697 4.694-2.8 5.051-4.455 1.442-1.07-2.336-1.274-2.05-2.034 2.857l-.844 5.454-5.06-4.146-5.06-4.146-2.274 2.73c-1.251 1.503-2.292 3.38-2.313 4.174-.046 1.719-1.263 1.772-3.118.137zm65.242-24.08c-2.67-2.54-4.509-4.963-4.087-5.385s.897-.543 1.055-.269c.16.275 2.341 2.698 4.85 5.385 5.775 6.187 4.588 6.362-1.818.268zm-86.904-9.485c-2.428-3.468-2.26-5.765.695-9.523 2.137-2.715 3.112-3.084 6.842-2.583 2.393.32 7.542 2.553 11.442 4.96 4.504 2.78 9.164 4.643 12.772 5.106 3.125.4 5.682.552 5.682.336s-1.298-2.45-2.885-4.962c-3.767-5.968-3.638-6.609.611-3.033 4.362 3.67 9.58 4.743 21.239 4.37l5.696-.184-3.305-3.449c-4.621-4.824-3.199-5.256 1.905-.58 4.786 4.388 4.487 4.697-5.588 5.758-4.281.452-8.885.124-12.712-.903-5.725-1.538-5.947-1.514-4.863.512.625 1.168 1.638 2.124 2.25 2.124s1.113.592 1.113 1.315c0 2.224-12.366.268-18.275-2.89-13.5-7.218-15.199-7.843-18.412-6.774-1.788.595-3.578 2.336-4.194 4.081-2.058 5.821 5.76 10.346 8.986 5.2.934-1.49.716-2.511-.927-4.326-2.25-2.486-2.038-2.84.999-1.675 2.156.828 2.446 6.293.44 8.3-2.295 2.294-7.532 1.645-9.51-1.18zm53.18-14.38c-1.688-1.687-.365-2.101 7.203-2.25 9.363-.184 15.05-1.832 21.759-6.304 5.375-3.583 6.833-2.878 1.73.837-4.654 3.39-11.914 5.995-18.923 6.792-3.394.386-7.262.92-8.596 1.188s-2.761.15-3.173-.262zm80.422 294.47 4.189-2.842 2.842 2.842c3.724 3.725 8.087 3.641 11.668-.222 1.562-1.686 2.965-2.854 3.117-2.596s.85 1.507 1.549 2.777c.885 1.606 2.704 2.414 5.99 2.659 3.957.294 5.02-.11 6.592-2.51l1.875-2.861 4.123 2.798c11.288 7.66 17.303-.376 12.258-16.38-2.565-8.138-1.155-12.713 7.113-23.07 3.486-4.368 6.342-9.03 6.345-10.36 0-2.12-.645-2.404-5.285-2.307-4.44.093-5.739-.41-8.076-3.127-3.802-4.418-3.576-9.479.674-15.094l3.395-4.486-6.023-4.316c-3.313-2.373-9.287-7.99-13.275-12.48-8.958-10.085-17.766-14.867-29.381-15.952l-7.788-.727.012 6.224c.015 8.013 3.576 15.721 13.298 28.778 11.053 14.845 11.825 17.143 12.273 36.547l.378 16.41-3.198 3.204c-2.89 2.895-4.194 3.265-13.52 3.833-8.878.54-10.743 1.024-13.348 3.461-3.46 3.237-4.495 4.997-5.564 9.467-.622 2.605-.37 3.173 1.41 3.173 1.193 0 4.054-1.28 6.358-2.843zM619.952 428.05c0-2.075.878-2.629 5.196-3.276l5.196-.78-3.466-2.915c-4.116-3.464-4.497-6.17-.869-6.176 3.614 0 9.735-3.963 10.665-6.894.433-1.363.16-3.184-.615-4.118-2.026-2.441-5.835-2.073-6.542.632-.761 2.908-2.034 2.916-4.92.029-4.343-4.342-4.44-13.33-.202-18.564 1.997-2.467 1.98-2.629-.567-5.175-2.74-2.74-4.696-8.162-3.409-9.448.41-.41 2.574-.084 4.81.725 3.177 1.149 4.43 1.166 5.74.08 3.964-3.29-.33-7.522-6.689-6.588-2.559.375-3.616 0-3.983-1.402-.278-1.063-2.516-2.45-5.038-3.124-4.506-1.202-4.537-1.188-4.537 2.09 0 3.592-1.942 4.27-5.632 1.965-2.998-1.872-5.906-.419-5.906 2.953 0 3.145 2.996 4.697 8.365 4.331 4.118-.28 4.271 2.954.36 7.602l-2.813 3.342 2.228 3.38c3.3 5.007 3.023 13.32-.583 17.45l-2.826 3.237-1.854-2.596c-2.577-3.607-6.101-3.365-7.068.485-.633 2.522-.11 3.674 2.88 6.346 2.01 1.796 4.945 3.265 6.521 3.265 3.901 0 3.749 3.24-.307 6.512l-3.172 2.56 4.903.804c2.697.441 4.904 1.273 4.904 1.846 0 2.2 1.128 8.886 4.49 9.046 2.99.143 4.674-4.53 4.74-7.624zm62.053-24.159c4.455-1.854 14.097-10.475 14.097-12.604 0-.67-2.662-3.76-5.914-6.868-6.845-6.54-14.291-17.553-16.22-23.992-1.006-3.358-5.867-9.105-19.558-23.127l-18.22-18.658-5.251 1.404c-2.888.773-6.412 1.423-7.83 1.446-2.446.04-2.401.188.85 2.844l3.429 2.802 4.807-2.817c4.66-2.732 4.826-2.748 5.401-.55.337 1.286-.39 3.516-1.678 5.154-1.249 1.588-1.96 3.39-1.581 4.003.38.614-.82 1.897-2.667 2.851-3.42 1.77-5.795 7.593-3.095 7.593 2.428 0 7.785-6.978 7.167-9.338-.316-1.208-.163-2.451.34-2.762 2.086-1.29 1.956 4.19-.164 6.884-1.249 1.587-1.96 3.389-1.581 4.002.38.614-.82 1.897-2.667 2.852-3.399 1.757-5.797 7.593-3.12 7.593 2.623 0 7.89-6.668 7.238-9.163-.341-1.305-.209-2.627.294-2.938 1.405-.868 2.163 3.457.977 5.576-.635 1.135-.63 2.684.015 3.913 1.167 2.227-.016 6.502-2.167 7.831-.921.57-.297 1.687 1.939 3.47 3.235 2.58 3.298 2.851 3.298 14.235 0 9.514.363 11.969 2.019 13.625 1.857 1.858 2.019 1.865 2.019.083 0-1.946 3.236-4.326 5.883-4.326.78 0 5.66 4.366 10.841 9.701 5.214 5.368 10.669 9.936 12.213 10.227 1.536.29 3.198.597 3.694.683.497.087 2.833-.646 5.192-1.628zm-55.707-46.032c0-3.067-5.991-6.34-13.157-7.189-5.786-.685-5.88-.646-5.88 2.405 0 2.526.91 3.52 4.903 5.356 6.417 2.95 14.134 2.638 14.134-.572zm6.57-.28c2.923-2.8 4.308-6.13 2.55-6.13-2.022 0-7.39 5.085-7.39 7.001 0 2.99.997 2.811 4.84-.871zm-6.233-9.066c.248-1.73-.766-2.885-3.804-4.334-6.554-3.125-14.39-4.573-16.277-3.007-3.476 2.885-1.16 6.758 4.458 7.455 2.261.28 5.328 1.009 6.814 1.618 4.318 1.77 8.424.964 8.81-1.732zm0-9.268c.353-2.468-1.142-3.351-13.346-7.887-9.11-3.386-13.143-1.79-10.232 4.051 1.015 2.035 2.717 2.964 6.535 3.568 2.84.449 6.72 1.327 8.624 1.95 5.086 1.668 8.025 1.08 8.42-1.682zm6.118-8.686c1.84-1.971 3.347-4.297 3.347-5.169 0-2.828-7.272 2.176-8.198 5.641-1.112 4.158.69 3.982 4.851-.472zm-6.112-.584c.401-2.812-4.028-5.35-12.736-7.303-6.39-1.432-9.208-.62-8.73 2.516.261 1.711 2.39 2.961 8.426 4.95 9.661 3.184 12.567 3.148 13.04-.163zm8.516-13.089c11.16-5.245 12.125-18.473 1.601-21.945-4.369-1.442-7.158-.666-8.83 2.46-1.281 2.392-.425 6.743 1.327 6.743.592 0 1.076.805 1.076 1.79 0 4.592-17.039 6.673-24.026 2.934-2.455-1.314-3.524-4.724-1.48-4.724 1.526 0 2.582-3.475 1.802-5.933-1.063-3.348-4.26-4.508-8.895-3.228-10.46 2.888-10.167 15.866.483 21.374 8.733 4.516 27.877 4.79 36.942.53zm-6.943-10.163c.646-.646.365-1.64-.718-2.539-2.373-1.969-2.246-4.897.356-8.25 1.954-2.517 2.198-6.284 2.871-44.287 1.159-65.491 5.771-114.753 11.85-126.57 2.421-4.706 2.082-4.724-4.173-.231-8.056 5.788-14.19 13.325-19.625 24.114-10.261 20.37-13.827 47.774-13.827 106.27 0 33.217.214 37.562 2.006 40.684 1.702 2.966 1.793 4.061.597 7.229-.775 2.053-1.127 4.016-.781 4.36 2.29 2.292 18.98 1.684 21.444-.78zm93.765-62.45c.35-.566-.423-3.422-1.716-6.346-2.017-4.56-2.83-5.318-5.703-5.318-9 0-23.47-4.247-38.387-11.267-8.614-4.054-11.59-4.986-12.622-3.953-2.636 2.636 1.744 8.892 8.528 12.18 6.018 2.917 22.841 6.502 30.515 6.502 4.452 0 4.557.212 2.024 4.078l-1.864 2.844 5.037.137c2.77.075 6.593.533 8.497 1.017 4.945 1.258 4.99 1.26 5.692.126z" style="stroke:#000;stroke-width:5.09000015" transform="matrix(1.17079 0 0 1.08265 -143.848 -24.794)"/><path d="m668.246 490.53 4.547-2.564 1.946 2.568c2.592 3.422 9.763 3.384 14.522-.078l3.64-2.647 3.046 2.647c4.006 3.48 11.488 3.485 16.265.013 3.344-2.433 3.81-2.482 6.022-.631 1.318 1.103 5.184 2.359 8.592 2.79 6.137.779 6.23.736 9.82-4.524 3.007-4.404 3.478-6.187 2.76-10.46-.476-2.832-.988-7.39-1.139-10.13-.272-4.96-.243-4.99 7.156-7.506 4.087-1.39 8.817-3.253 10.512-4.14 2.955-1.55 11.102-10.899 11.102-12.741 0-.489-3.183-1.237-7.073-1.663-15.473-1.694-18.094-9.807-8.035-24.877 16.405-24.576 26.304-48.509 26.37-63.755.03-6.815.427-9.103 1.324-7.621 3.665 6.056-2.901 31.45-12.848 49.685l-4.005 7.343 3.822-.86c2.102-.472 14.46-5.562 27.461-11.312 35.588-15.738 47.812-18.822 70.844-17.875 19.295.793 27.512 4.474 41.136 18.426 7.217 7.392 14.17 12.68 26.888 20.453 27.096 16.561 28.226 17.996 29.515 37.472 1.305 19.732.656 20.803-14.63 24.1-13.065 2.819-21.256 8.766-23.452 17.027-1.173 4.413 1.295 4.54 7.882.406l4.827-3.029 2.147 3.03c2.822 3.982 8.82 3.998 13.8.036l3.763-2.993 3.846 2.993c5.976 4.65 13.923 3.522 16.166-2.294.431-1.118 1.582-.76 3.912 1.217 4.366 3.705 15.558 5.294 16.767 2.381.46-1.111-.415-3.856-1.948-6.1-6.511-9.533-8.548-14.08-8.633-19.269-.117-7.218 2.088-10.7 10.496-16.57 10.214-7.131 13.37-16.331 5.603-16.331-4.796 0-9.63-4.14-12.714-10.884-6.267-13.712-5.039-29.083 4.367-54.654 9.555-25.974 10.615-30.763 10.653-48.134.031-14.045-.331-16.474-3.604-24.174-2.001-4.709-6.061-11.719-9.023-15.579l-5.384-7.018 6.913-5.592c21.108-17.075 16.79-45.02-8.62-55.786-7.773-3.294-9.715-3.585-23.338-3.496-8.172.054-20.634 1.104-27.692 2.334-7.196 1.254-19.378 2.262-27.733 2.295-13.275.052-15.528-.268-20.643-2.926-5.334-2.773-6.249-4.089-7.293-10.496-.215-1.318-1.158-2.631-2.096-2.92-1.814-.559-10.193 6.541-11.43 9.686-.612 1.552-1.11 1.445-2.902-.624-1.19-1.374-2.851-4.532-3.692-7.016-2.114-6.25.482-10.934 8.005-14.445l5.837-2.724-3.442-2.085c-7.102-4.303-19.178-1.36-23.546 5.74-1.235 2.008-2.583 3.654-2.994 3.659-.412.002-2.76-1.912-5.219-4.258-9.17-8.748-6.016-21.692 6.25-25.644 6.54-2.107 12.328-.5 13.532 3.759 1.839 6.5 7.554-2.045 6.529-9.762-.682-5.131-.58-5.31 3.057-5.31 5.056 0 15.819 6.48 19.148 11.53 3.866 5.864 3.585 15.098-.67 21.98l-3.34 5.405 4.37-.855c6.408-1.253 12.634-5.139 15.784-9.852 3.33-4.982 3.688-14.683.735-19.918-2.861-5.074-2.533-5.88 1.697-4.165 7.195 2.916 11.041 6.132 13.926 11.644 2.599 4.963 2.744 6.196 1.337 11.362-.868 3.187-2.799 7.38-4.291 9.319-2.324 3.017-2.403 3.523-.552 3.523 3.448 0 10.647-3.186 13.204-5.844 1.292-1.342 3.176-4.648 4.186-7.346l1.836-4.906 2.11 3.74c2.985 5.287 8.787 10.045 15.86 13.006 7.609 3.185 10.777 3.364 6.799.385-2.683-2.009-7.627-16.173-6.129-17.558.882-.815 11.212 6.945 23.005 17.283 11.157 9.779 18.167 12.982 28.414 12.982 13.09 0 20.711-11.125 14.828-21.645-3.43-6.134-11.071-6.986-15.54-1.733-2.054 2.415-2.618 4.337-2.016 6.87.737 3.104.45 3.517-2.446 3.517-3.805 0-11.305-4.753-24.625-15.606-20.312-16.549-44.993-30.577-62.814-35.7-11.437-3.29-35.868-4.573-47.494-2.496-12.583 2.248-27.466 9.28-35.574 16.806-14.366 13.337-14.594 31.085-.606 47.247l4.007 4.63-2.713 4.114c-3.946 5.985-3.608 14.04.838 19.974 1.959 2.613 3.934 4.75 4.39 4.749.457-.002.957-1.682 1.112-3.734.393-5.191 2.674-8.67 6.591-10.046 3.528-1.24 5.808-.655 21.96 5.64 16.992 6.622 44.937 7.078 74.651 1.216 14.567-2.873 31.744-2.704 39.3.387 13.854 5.666 17.064 20.408 6.881 31.598-4.408 4.845-8.659 6.817-22.932 10.642-10.862 2.91-13.434 3.104-38.121 2.863-21.091-.205-28.671.19-37.28 1.945-9.347 1.906-15.096 2.098-42.552 1.423l-31.744-.782 3.52 2.847c1.936 1.565 4.672 3.49 6.079 4.28 2.394 1.341 2.314 1.522-1.245 2.81-2.091.757-6.733 1.377-10.315 1.377h-6.513l-.876 5.404c-.483 2.972-.446 6.443.08 7.712.777 1.872.488 2.14-1.532 1.423-1.37-.486-5.185-1.442-8.478-2.124s-7.725-2.072-9.85-3.088c-3.572-1.708-3.97-1.662-5.285.611-1.175 2.031-12.207 10.048-13.827 10.048-.26 0-.598-1.546-.749-3.435-.15-1.89-1.742-6.808-3.537-10.93s-3.668-8.62-4.163-9.993c-.748-2.073-1.087-2.18-1.988-.625-.598 1.03-1.47 3.841-1.94 6.246-.469 2.405-2.13 6.31-3.694 8.68l-2.841 4.31-1.813-3.685c-1.945-3.955-5.176-8.056-6.345-8.056-.395 0-1.067 1.265-1.494 2.81-.891 3.229-8.55 12.18-10.422 12.18-.688 0-1.252-2.53-1.252-5.621s-.608-5.621-1.35-5.621c-.744 0-1.352.8-1.352 1.777 0 2.377-6.541 9.465-8.735 9.465-.957 0-2.497.843-3.422 1.874-2.412 2.686-4.385 2.31-3.37-.645.475-1.385.166-4.617-.688-7.182l-2.016-6.068c-.322-.972-2.666-.714-7.627.839-8.017 2.51-10.704 2.065-6.581-1.088 1.507-1.152 3.8-5.145 5.095-8.872s3.205-7.034 4.245-7.35c1.457-.44 1.38.105-.337 2.371-1.227 1.619-2.233 3.802-2.238 4.851 0 1.05-.927 3.538-2.05 5.53-1.123 1.99-1.83 3.817-1.57 4.058.261.24 3.311-.891 6.78-2.515l6.304-2.951.026 2.64c.015 1.453.774 5.284 1.688 8.515l1.663 5.874 4.292-1.927c4.386-1.968 8.54-8.986 8.54-14.426 0-2.69 1.579-2.277 2.225.581.19.84 1.18 3.988 2.2 6.997l1.857 5.472 2.939-3.455c1.616-1.9 3.642-5.627 4.502-8.282 1.494-4.61 3.839-6.59 3.839-3.244 0 2.412 6.74 11.063 8.041 10.32.629-.36 1.88-3.606 2.781-7.215 1.875-7.506 4.898-12.61 6.82-11.512.722.413 1.004 1.214.625 1.78s1.174 5.447 3.45 10.844a4845 4845 0 0 1 5.08 12.077c.831 2 1.583 1.709 6.462-2.499 3.037-2.618 5.793-5.55 6.125-6.514.501-1.457 1.179-1.404 4.018.317 3.972 2.406 17.322 6.282 18.354 5.329.386-.357.782-3.78.88-7.608l.177-6.959 3.84.777c2.111.428 6.551.402 9.866-.058l6.028-.836-5.372-3.598c-2.954-1.98-5.942-4.54-6.638-5.692-.742-1.226-3.372-2.267-6.35-2.514-8.048-.668-22.312-8.48-22.312-12.219 0-.702 1.976.492 4.39 2.653 5.357 4.794 12.799 7.803 19.298 7.803h4.864l-3.009-3.907c-1.728-2.244-3.278-6.502-3.642-10.004-.58-5.583-1.183-6.47-7.154-10.523-3.586-2.435-8.028-6.083-9.87-8.109l-3.351-3.682-1.71 4.372c-.94 2.405-2.09 4.372-2.553 4.372s-2.272-1.405-4.017-3.123-3.522-3.116-3.95-3.109-1.974 2.322-3.435 5.142l-2.657 5.126-2.054-2.955c-1.13-1.625-3.797-4.5-5.928-6.39s-3.252-3.435-2.49-3.435c.76 0 3.39 1.968 5.844 4.374l4.461 4.373 1.816-3.204c1.078-1.902 1.481-4.823.993-7.184-.711-3.443-.611-3.643.74-1.482.86 1.374 3.47 4.008 5.8 5.854l4.237 3.356 2.924-5.23c2.91-5.204 2.93-5.214 4.254-2.106 1.771 4.156 14.584 14.412 25.493 20.404 1.682.923.973-2.253-2.133-9.556-.822-1.934-1.495-5.42-1.495-7.748 0-3.453-1.02-4.99-5.543-8.35-6.53-4.852-8.641-8.302-9.871-16.13-.499-3.17-1.642-6.696-2.54-7.836-1.332-1.69-1.552-.744-1.196 5.14.24 3.967-.288 8.899-1.174 10.96l-1.611 3.747-1.245-3.123c-.685-1.717-3.715-4.704-6.733-6.637s-5.135-3.84-4.706-4.236c.429-.397 3.533 1.365 6.899 3.915 5.127 3.885 6.256 4.305 6.966 2.594.834-2.01-.001-10.758-1.613-16.871-.804-3.052-.734-3.036 3.123.729 2.844 2.777 4.417 6.088 5.635 11.867 1.548 7.34 2.329 8.562 9.28 14.522 4.175 3.58 7.808 6.306 8.074 6.06.265-.245.792-9.503 1.17-20.573.726-21.229-.094-26.28-5.33-32.838l-2.69-3.37 4.229-4.454c5.517-5.81 8.05-10.468 9.149-16.822l.893-5.17-4.772 4.414c-3.908 3.614-5.774 4.413-10.3 4.413-4.483 0-6.234-.733-9.254-3.875-3.624-3.77-10.045-7.399-16.22-9.164-2.282-.653-3.04-.369-3.04 1.138 0 1.104-1.26 4.292-2.8 7.083l-2.8 5.075-5.867-5.661c-3.598-3.473-7.869-6.177-11.046-6.992-8.116-2.084-8.556-1.877-8.556 4.027 0 8.957-3.916 10.625-10.965 4.672-5.373-4.538-9.83-5.525-20.02-4.431l-7.868.844 1.416 3.47c1.182 2.897.916 4.117-1.618 7.407-4.11 5.338-9.454 7.65-17.68 7.65-3.789 0-8.53.765-10.536 1.7-2.006.936-6.99 2.014-11.077 2.396s-8.442 1.064-9.679 1.515c-1.935.706-2.148.124-1.524-4.174.954-6.578-3.752-11.43-11.086-11.43-9.515 0-13.904 8.31-10.178 19.273.717 2.11 1.656 5.437 2.085 7.394.446 2.03 4.732 7.417 9.982 12.547 5.06 4.943 9.843 10.088 10.628 11.431.785 1.344 3.38 3.5 5.768 4.792l4.34 2.348-.572-4.534c-.63-4.984.483-5.766 3.199-2.25.97 1.258 3.436 3.29 5.48 4.516 3.218 1.932 3.714 1.972 3.714.294 0-1.065.656-3.518 1.458-5.452l1.458-3.517 2.53 4.785c1.392 2.631 5.916 8.612 10.055 13.29 8.031 9.077 12.925 19.221 10.4 21.556-1.025.948-3.794.874-9.533-.252-4.449-.873-9.951-1.334-12.228-1.025-4.65.63-5.016.045-2.156-3.451 3.018-3.69 2.538-4.299-3.392-4.299-6.86 0-23.89-3.21-30.427-5.736-6.356-2.456-7.823-1.845-9.694 4.042-.842 2.65-2.384 7.45-3.426 10.668l-1.895 5.851 6.877-.647c3.783-.355 8.648-1.164 10.812-1.797 2.163-.632 4.13-.968 4.37-.747.24.222-.725 2.508-2.143 5.08l-2.58 4.678 4.288-.853c2.359-.47 5.907-1.618 7.885-2.552 3.443-1.626 3.719-1.508 6.434 2.747 3.339 5.233 6.01 5.018 6.603-.532.612-5.737 2.545-4.888 6.181 2.715 3.496 7.31 7.134 9.891 7.833 5.557.232-1.439 2.115-3.78 4.185-5.205 4.187-2.88 7.342-2.016 9.151 2.506 1.873 4.681-2.304 9.506-14.452 16.696-24.333 14.402-38.478 34.1-42.517 59.207-3.642 22.646 7.734 46.046 30.555 62.854 10.921 8.043 28.27 16.532 27.168 13.293-4.682-13.756-4.528-40.003.261-44.432.719-.664.471 2.075-.55 6.087-3.802 14.944-2.15 26.852 7.597 54.761 8.816 25.242 7.595 36.03-4.881 43.161-4.008 2.29-6.588 2.668-17.362 2.54-11.69-.138-12.965.091-16.718 3.011-3.639 2.832-8.357 12.128-8.357 16.466 0 2.35 2.673 2.039 7.925-.922zm94.738-218.916c0-1.832-5.512-6.799-11.097-9.999-4.386-2.513-5.11-2.59-5.12-.54-.015 3.112-2.85 10.93-3.962 10.93-.628 0-1.556-1.527-2.063-3.395-.507-1.867-2.633-5.547-4.725-8.178l-3.803-4.782-2.962 4.431c-2.761 4.131-7.544 8.177-9.666 8.177-.507 0-.607-2.176-.22-4.835.418-2.889.095-5.18-.805-5.695-.828-.473-1.505-.308-1.505.367 0 1.557-6.642 8.914-8.047 8.914-.58 0-1.39-2.108-1.802-4.685a465 465 0 0 0-1.555-9.056c-.444-2.404.502-.774 2.102 3.624l2.909 7.996 3.19-4.873c1.754-2.68 3.192-5.609 3.196-6.508 0-.9.597-1.298 1.319-.886.721.413 1.725 3.634 2.23 7.16l.92 6.409 3.51-3.758c1.93-2.067 4.193-4.833 5.027-6.148 1.489-2.347 1.573-2.345 4.534.107 1.66 1.374 4.21 4.661 5.669 7.304s2.847 4.61 3.086 4.372.773-2.963 1.188-6.055.785-5.735.823-5.875c.206-.767 10.572 5.813 14.408 9.144 2.465 2.141 4.806 3.593 5.202 3.227.397-.366.721-3.526.721-7.02 0-5.416-.588-6.867-3.98-9.828-3.9-3.404-4.01-3.423-5.451-.933-1.87 3.232-4.077 3.279-4.077.087 0-2.33-7.371-11.286-9.289-11.286-.497 0-2.05 1.967-3.45 4.372s-2.906 4.37-3.346 4.367c-1.891-.012-12.282-11.324-12.278-13.366 0-1.624.7-1.208 2.522 1.504 1.384 2.061 4.15 5.138 6.145 6.838 4.04 3.44 5.51 2.604 7.068-4.027.444-1.89 1.216-3.436 1.716-3.436 1.727 0 10.773 9.381 12.045 12.492l1.277 3.123.968-3.435c1.183-4.201 2.488-4.357 4.377-.524.789 1.6 4.685 4.93 8.66 7.398l7.224 4.486 1.45-4.512c.798-2.482 1.854-3.909 2.348-3.17.736 1.102-1.142 8.58-2.559 10.188-.212.241-2.553-1.09-5.203-2.959l-4.816-3.397-.02 6.082c-.013 3.345-.384 7.346-.832 8.892-.876 3.022-3.201 3.873-3.201 1.17zm-36.025-48.488c-8.587-7-9.89-8.602-9.7-11.92l.202-3.531.56 3.41c.327 1.992 2.614 4.976 5.496 7.173l4.936 3.763 3.033-3.426c1.669-1.884 3.055-4.128 3.082-4.987.07-2.24.482-2.051 6.295 2.874 5.166 4.376 5.246 4.397 6.015 1.562.428-1.581.276-4.557-.338-6.614-1.688-5.653-1.357-6.506 1.2-3.096 1.274 1.698 3.323 4.1 4.553 5.336 2.14 2.152 2.272 2.125 3.068-.625.458-1.58.84-4.471.85-6.425l.02-3.554 4.657 5.155c4.35 4.815 4.75 4.993 6.079 2.699.781-1.351 1.43-4.601 1.442-7.223.015-3.386.38-4.24 1.262-2.951 1.473 2.153.45 8.016-2.27 13.012l-1.952 3.585-2.563-3.897c-3.277-4.984-4.368-4.904-6.471.474-1.988 5.083-3.28 5.47-5.217 1.562-1.253-2.53-1.492-2.22-2.381 3.094l-.989 5.904-5.923-4.489-5.924-4.488-2.663 2.956c-1.465 1.626-2.684 3.659-2.708 4.518-.054 1.86-1.479 1.92-3.65.149zm76.385-26.071c-3.126-2.75-5.28-5.373-4.785-5.83.494-.456 1.05-.587 1.235-.29.186.296 2.741 2.92 5.678 5.829 6.762 6.698 5.372 6.888-2.128.29m-101.746-10.27c-2.843-3.753-2.647-6.24.814-10.308 2.5-2.94 3.643-3.34 8.01-2.797 2.802.347 8.83 2.764 13.396 5.37 5.274 3.01 10.729 5.027 14.954 5.528 3.658.434 6.651.597 6.651.363s-1.52-2.651-3.377-5.372c-4.41-6.461-4.26-7.155.716-3.284 5.106 3.974 11.215 5.136 24.865 4.731l6.67-.198-3.87-3.734c-5.41-5.223-3.745-5.691 2.23-.627 5.604 4.75 5.253 5.083-6.542 6.233-5.012.489-10.403.134-14.883-.978-6.703-1.665-6.963-1.64-5.693.555.732 1.264 1.917 2.299 2.634 2.299s1.303.64 1.303 1.423c0 2.409-14.478.291-21.396-3.13-15.806-7.813-17.795-8.49-21.557-7.332-2.093.644-4.188 2.53-4.91 4.419-2.41 6.302 6.745 11.2 10.52 5.63 1.095-1.615.839-2.72-1.084-4.685-2.634-2.691-2.387-3.075 1.169-1.813 2.524.896 2.864 6.814.515 8.985-2.687 2.485-8.818 1.781-11.135-1.277m62.262-15.566c-1.976-1.828-.427-2.276 8.434-2.437 10.962-.2 17.62-1.983 25.474-6.825 6.294-3.88 8-3.116 2.026.906-5.45 3.67-13.95 6.491-22.155 7.354-3.974.417-8.503.996-10.064 1.285-1.561.29-3.233.162-3.715-.283m94.157 318.806 4.904-3.077 3.328 3.077c4.36 4.032 9.468 3.942 13.66-.24 1.83-1.826 3.472-3.09 3.65-2.811.179.28.995 1.632 1.813 3.006 1.036 1.74 3.167 2.614 7.013 2.879 4.633.319 5.877-.119 7.718-2.717l2.195-3.098 4.828 3.03c13.216 8.293 20.258-.408 14.351-17.735-3.003-8.81-1.352-13.763 8.328-24.976 4.082-4.729 7.425-9.776 7.43-11.216 0-2.295-.756-2.603-6.188-2.498-5.199.101-6.72-.444-9.456-3.385-4.45-4.784-4.186-10.262.789-16.341l3.974-4.857-7.051-4.673c-3.879-2.57-10.873-8.65-15.542-13.511-10.488-10.919-20.8-16.096-34.399-17.27l-9.118-.788.014 6.739c.018 8.675 4.187 17.02 15.57 31.156 12.94 16.072 13.844 18.56 14.368 39.567l.443 17.767-3.745 3.469c-3.384 3.134-4.91 3.534-15.828 4.149-10.394.585-12.578 1.109-15.628 3.747-4.052 3.505-5.263 5.41-6.514 10.25-.729 2.82-.434 3.435 1.651 3.435 1.396 0 4.746-1.385 7.443-3.078zM579.87 444.11c1.156-1.527 2.103-3.993 2.103-5.48 0-2.246 1.028-2.845 6.083-3.546l6.083-.844-4.057-3.157c-4.82-3.75-5.266-6.68-1.017-6.686 4.23 0 11.396-4.29 12.486-7.464.506-1.476.188-3.447-.72-4.458-2.372-2.643-6.832-2.245-7.66.684-.89 3.148-2.381 3.157-5.76.031-5.084-4.7-5.198-14.431-.236-20.098 2.338-2.67 2.317-2.846-.664-5.603-3.207-2.966-5.498-8.836-3.991-10.229.48-.443 3.013-.09 5.63.786 3.72 1.243 5.189 1.262 6.721.086 4.642-3.562-.387-8.143-7.83-7.133-2.997.407-4.234 0-4.664-1.517-.326-1.15-2.946-2.653-5.898-3.382-5.276-1.302-5.313-1.286-5.313 2.262 0 3.89-2.273 4.623-6.594 2.128-3.51-2.027-6.914-.453-6.914 3.197 0 3.405 3.507 5.085 9.793 4.69 4.822-.304 5.001 3.197.422 8.229l-3.293 3.619 2.609 3.66c3.863 5.419 3.538 14.42-.683 18.891l-3.309 3.505-2.17-2.81c-3.018-3.907-7.144-3.645-8.276.524-.74 2.73-.128 3.978 3.373 6.87 2.353 1.945 5.788 3.535 7.634 3.535 4.567 0 4.389 3.507-.36 7.05l-3.714 2.773 5.741.87c3.158.477 5.741 1.377 5.741 1.998 0 2.383 3.979 9.794 5.258 9.794.739 0 2.29-1.25 3.446-2.776zm74.753-31.635c5.216-2.007 16.505-11.34 16.505-13.646 0-.725-3.116-4.071-6.924-7.436-8.014-7.08-16.732-19.003-18.99-25.975-1.178-3.635-6.869-9.857-22.899-25.037l-21.331-20.201-6.148 1.52c-3.381.837-7.507 1.541-9.168 1.566-2.862.042-2.81.203.995 3.079l4.015 3.034 5.63-3.05c5.455-2.958 5.65-2.976 6.322-.596.394 1.393-.456 3.807-1.964 5.58-1.462 1.72-2.295 3.67-1.851 4.334.444.665-.961 2.054-3.122 3.087-4.006 1.916-6.786 8.22-3.625 8.22 2.844 0 9.115-7.554 8.392-10.11-.37-1.308-.191-2.654.398-2.99 2.442-1.396 2.29 4.535-.192 7.453-1.462 1.719-2.295 3.669-1.851 4.333s-.961 2.054-3.122 3.087c-3.98 1.903-6.788 8.22-3.655 8.22 3.072 0 9.24-7.218 8.476-9.919-.4-1.413-.245-2.844.344-3.18 1.645-.941 2.532 3.741 1.143 6.036-.743 1.229-.737 2.906.018 4.237 1.366 2.41-.019 7.039-2.537 8.478-1.079.616-.348 1.826 2.27 3.757 3.787 2.793 3.86 3.086 3.86 15.41 0 10.3.427 12.959 2.365 14.752 2.175 2.012 2.364 2.019 2.364.09 0-2.108 3.788-4.684 6.888-4.684.914 0 6.626 4.727 12.692 10.503 6.104 5.812 12.491 10.757 14.3 11.072 1.797.313 3.743.646 4.324.74s3.317-.7 6.079-1.763zm-65.22-49.836c0-3.32-7.015-6.865-15.405-7.784-6.774-.741-6.884-.7-6.884 2.604 0 2.735 1.065 3.811 5.74 5.799 7.514 3.194 16.548 2.856 16.548-.62m7.693-.304c3.421-3.031 5.042-6.636 2.984-6.636-2.368 0-8.651 5.505-8.651 7.58 0 3.237 1.167 3.043 5.667-.944m-7.298-9.815c.29-1.873-.897-3.123-4.455-4.692-7.673-3.384-16.847-4.95-19.056-3.255-4.07 3.123-1.358 7.316 5.218 8.07 2.648.304 6.239 1.092 7.979 1.753 5.055 1.916 9.862 1.042 10.314-1.876m0-10.033c.413-2.673-1.337-3.63-15.626-8.54-10.666-3.665-15.388-1.937-11.98 4.386 1.188 2.203 3.182 3.209 7.651 3.862 3.325.487 7.869 1.437 10.098 2.113 5.954 1.805 9.394 1.17 9.857-1.821m7.162-9.405c2.155-2.134 3.919-4.652 3.919-5.596 0-3.062-8.514 2.355-9.599 6.108-1.302 4.5.808 4.31 5.68-.512zm-7.156-.632c.47-3.044-4.715-5.793-14.912-7.906-7.48-1.55-10.78-.671-10.22 2.723.306 1.853 2.798 3.207 9.865 5.36 11.311 3.447 14.713 3.407 15.267-.177m9.97-14.17c13.066-5.68 14.196-20 1.876-23.76-5.116-1.561-8.381-.72-10.34 2.663-1.499 2.59-.496 7.3 1.555 7.3.692 0 1.26.873 1.26 1.938 0 4.973-19.95 7.226-28.13 3.177-2.874-1.422-4.125-5.114-1.733-5.114 1.787 0 3.023-3.762 2.11-6.423-1.245-3.625-4.987-4.881-10.415-3.495-12.246 3.126-11.903 17.178.567 23.14 10.224 4.89 32.638 5.187 43.25.574m-8.129-11.004c.757-.7.428-1.775-.84-2.748-2.778-2.132-2.63-5.302.417-8.932 2.288-2.725 2.574-6.804 3.361-47.948 1.357-70.904 6.757-124.236 13.875-137.03 2.834-5.095 2.436-5.115-4.886-.25-9.432 6.266-16.614 14.426-22.977 26.107-12.014 22.053-16.189 51.722-16.189 115.053 0 35.961.251 40.666 2.35 44.046 1.992 3.211 2.098 4.397.698 7.826-.907 2.223-1.319 4.348-.915 4.722 2.682 2.48 22.222 1.822 25.107-.846zm109.78-67.612c.41-.612-.495-3.703-2.01-6.87-2.361-4.937-3.312-5.757-6.676-5.757-10.538 0-27.479-4.598-44.944-12.198-10.085-4.39-13.568-5.398-14.778-4.28-3.085 2.854 2.043 9.627 9.985 13.187 7.046 3.158 26.742 7.039 35.727 7.039 5.212 0 5.335.23 2.37 4.416l-2.183 3.079 5.897.147c3.243.082 7.72.577 9.949 1.102 5.789 1.362 5.843 1.363 6.663.135z"/></g></svg>